<svg width="25" height="25" viewBox="0 0 25 25" fill="none" xmlns="http://www.w3.org/2000/svg">
<path d="M1 1H5.18629L6.67771 15.8286C6.73971 16.2373 6.94734 16.6099 7.26237 16.8777C7.57739 17.1455 7.97858 17.2904 8.392 17.2857H19.192C19.5658 17.3052 19.9358 17.2018 20.2453 16.9913C20.5549 16.7809 20.787 16.4748 20.9063 16.12L23.1863 9.26286C23.2714 9.00507 23.2941 8.73074 23.2523 8.46249C23.2106 8.19423 23.1057 7.93974 22.9463 7.72C22.7803 7.48631 22.5584 7.29795 22.3009 7.17217C22.0433 7.04639 21.7583 6.9872 21.472 7H5.78629" stroke="#28231C" stroke-width="1.5" stroke-linecap="round" stroke-linejoin="round"/>
<path d="M18.9006 23.2857C18.6733 23.2857 18.4553 23.1954 18.2945 23.0346C18.1338 22.8739 18.0435 22.6559 18.0435 22.4286C18.0435 22.2012 18.1338 21.9832 18.2945 21.8225C18.4553 21.6617 18.6733 21.5714 18.9006 21.5714C19.1279 21.5714 19.3459 21.6617 19.5067 21.8225C19.6674 21.9832 19.7577 22.2012 19.7577 22.4286C19.7577 22.6559 19.6674 22.8739 19.5067 23.0346C19.3459 23.1954 19.1279 23.2857 18.9006 23.2857Z" stroke="#28231C" stroke-width="1.5" stroke-linecap="round" stroke-linejoin="round"/>
<path d="M7.75778 23.2857C7.53045 23.2857 7.31243 23.1954 7.15169 23.0346C6.99094 22.8739 6.90063 22.6559 6.90063 22.4286C6.90063 22.2012 6.99094 21.9832 7.15169 21.8225C7.31243 21.6617 7.53045 21.5714 7.75778 21.5714C7.98511 21.5714 8.20312 21.6617 8.36387 21.8225C8.52461 21.9832 8.61492 22.2012 8.61492 22.4286C8.61492 22.6559 8.52461 22.8739 8.36387 23.0346C8.20312 23.1954 7.98511 23.2857 7.75778 23.2857Z" stroke="#28231C" stroke-width="1.5" stroke-linecap="round" stroke-linejoin="round"/>
<path d="M11.5942 10.4286V13.8572" stroke="#28231C" stroke-width="1.5" stroke-linecap="round" stroke-linejoin="round"/>
<path d="M16.7371 10.4286V13.8572" stroke="#28231C" stroke-width="1.5" stroke-linecap="round" stroke-linejoin="round"/>
</svg>
