<svg width="18" height="18" viewBox="0 0 18 18" fill="none" xmlns="http://www.w3.org/2000/svg">
<path d="M1 0.999634H4.00729L5.07869 11.6458C5.12322 11.9393 5.27238 12.2068 5.49869 12.399C5.72499 12.5913 6.01319 12.6953 6.31018 12.6919H14.0686C14.3371 12.7059 14.6029 12.6317 14.8252 12.4806C15.0476 12.3295 15.2144 12.1098 15.3 11.855L16.9379 6.93194C16.9991 6.74687 17.0154 6.54991 16.9854 6.35732C16.9554 6.16472 16.88 5.98201 16.7655 5.82425C16.6463 5.65647 16.4869 5.52124 16.3019 5.43094C16.1169 5.34063 15.9121 5.29813 15.7064 5.30733H4.43832" stroke="#28231C" stroke-width="1.5" stroke-linecap="round" stroke-linejoin="round"/>
<path d="M13.8592 17.0003C13.6958 17.0003 13.5392 16.9354 13.4238 16.8199C13.3083 16.7045 13.2434 16.5478 13.2434 16.3845C13.2434 16.2212 13.3083 16.0646 13.4238 15.9491C13.5392 15.8337 13.6958 15.7688 13.8592 15.7688C14.0225 15.7688 14.1791 15.8337 14.2945 15.9491C14.41 16.0646 14.4749 16.2212 14.4749 16.3845C14.4749 16.5478 14.41 16.7045 14.2945 16.8199C14.1791 16.9354 14.0225 17.0003 13.8592 17.0003Z" stroke="#28231C" stroke-width="1.5" stroke-linecap="round" stroke-linejoin="round"/>
<path d="M5.85451 17.0003C5.69121 17.0003 5.53459 16.9354 5.41912 16.8199C5.30364 16.7045 5.23877 16.5478 5.23877 16.3845C5.23877 16.2212 5.30364 16.0646 5.41912 15.9491C5.53459 15.8337 5.69121 15.7688 5.85451 15.7688C6.01782 15.7688 6.17444 15.8337 6.28991 15.9491C6.40539 16.0646 6.47026 16.2212 6.47026 16.3845C6.47026 16.5478 6.40539 16.7045 6.28991 16.8199C6.17444 16.9354 6.01782 17.0003 5.85451 17.0003Z" stroke="#28231C" stroke-width="1.5" stroke-linecap="round" stroke-linejoin="round"/>
<path d="M12.67 6.99963L9.45938 10.2103L8 8.75088" stroke="#28231C" stroke-width="1.5" stroke-linecap="round" stroke-linejoin="round"/>
</svg>
