<svg width="25" height="25" viewBox="0 0 25 25" fill="none" xmlns="http://www.w3.org/2000/svg">
<path d="M12.5 22.5C18.0228 22.5 22.5 18.0228 22.5 12.5C22.5 6.97715 18.0228 2.5 12.5 2.5C6.97715 2.5 2.5 6.97715 2.5 12.5C2.5 18.0228 6.97715 22.5 12.5 22.5Z" fill="#1877F2"/>
<path fill-rule="evenodd" clip-rule="evenodd" d="M15.1575 8.9789C14.8459 8.91655 14.4249 8.87 14.1602 8.87C13.4434 8.87 13.3968 9.18165 13.3968 9.68035V10.5681H15.1887L15.0325 12.4068H13.3968V18H11.1531V12.4068H10V10.5681H11.1531V9.43065C11.1531 7.87265 11.8854 7 13.7239 7C14.3626 7 14.8301 7.0935 15.4376 7.21815L15.1575 8.9789Z" fill="white"/>
</svg>
