<svg width="25" height="25" viewBox="0 0 25 25" fill="none" xmlns="http://www.w3.org/2000/svg">
<path d="M23.0011 12.7332C23.0011 11.8698 22.9296 11.2398 22.7749 10.5865H12.7153V14.4831H18.6201C18.5011 15.4515 17.8582 16.9098 16.4296 17.8898L16.4095 18.0203L19.5902 20.435L19.8106 20.4565C21.8344 18.6249 23.0011 15.9298 23.0011 12.7332Z" fill="#4285F4"/>
<path d="M12.7147 22.9998C15.6076 22.9998 18.0361 22.0665 19.81 20.4564L16.429 17.8897C15.5242 18.5081 14.3099 18.9397 12.7147 18.9397C9.88145 18.9397 7.47669 17.1081 6.61947 14.5764L6.49382 14.5869L3.18656 17.0952L3.14331 17.2131C4.9052 20.643 8.52425 22.9998 12.7147 22.9998Z" fill="#34A853"/>
<path d="M6.61973 14.5767C6.39354 13.9234 6.26264 13.2234 6.26264 12.5001C6.26264 11.7767 6.39354 11.0767 6.60783 10.4234L6.60183 10.2842L3.25312 7.7356L3.14356 7.78667C2.4174 9.21005 2.00073 10.8084 2.00073 12.5001C2.00073 14.1917 2.4174 15.79 3.14356 17.2134L6.61973 14.5767Z" fill="#FBBC05"/>
<path d="M12.7148 6.05997C14.7267 6.05997 16.0838 6.91164 16.8577 7.62335L19.8814 4.73C18.0244 3.03834 15.6076 2 12.7148 2C8.52425 2 4.9052 4.35665 3.14331 7.78662L6.60759 10.4233C7.47672 7.89166 9.88145 6.05997 12.7148 6.05997Z" fill="#EB4335"/>
</svg>
