<svg width="154" height="114" viewBox="0 0 154 114" fill="none" xmlns="http://www.w3.org/2000/svg">
<g filter="url(#filter0_d_351_374)">
<mask id="path-1-outside-1_351_374" maskUnits="userSpaceOnUse" x="21" y="28" width="63" height="48" fill="black">
<rect fill="white" x="21" y="28" width="63" height="48"/>
<path d="M62.432 63.952C64.096 63.952 65.248 63.056 65.888 61.264C66.528 59.4293 66.848 56.464 66.848 52.368L66.976 36.688C66.976 34.4267 67.488 32.784 68.512 31.76C69.5787 30.6933 71.392 30.16 73.952 30.16C75.5307 30.16 76.7893 30.416 77.728 30.928C78.7093 31.44 79.5413 32.4427 80.224 33.936C80.9067 35.4293 81.376 37.456 81.632 40.016C81.888 42.576 82.016 45.968 82.016 50.192C82.016 52.7093 81.8027 55.056 81.376 57.232C80.9493 59.408 80.3733 61.3067 79.648 62.928C78.9227 64.5493 78.048 66.0213 77.024 67.344C76.0427 68.624 74.9973 69.6907 73.888 70.544C72.7787 71.3973 71.6053 72.1227 70.368 72.72C69.1307 73.2747 67.9147 73.68 66.72 73.936C65.568 74.1493 64.4373 74.256 63.328 74.256C59.488 74.256 56.0107 73.04 52.896 70.608C49.824 73.1253 46.3467 74.384 42.464 74.384C40.8 74.384 39.136 74.1493 37.472 73.68C35.808 73.168 34.1013 72.3147 32.352 71.12C30.6453 69.9253 29.1307 68.4533 27.808 66.704C26.4853 64.912 25.3973 62.608 24.544 59.792C23.7333 56.9333 23.328 53.776 23.328 50.32C23.328 44.7307 23.584 40.5067 24.096 37.648C24.6507 34.7893 25.4613 32.848 26.528 31.824C27.6373 30.8 29.2373 30.288 31.328 30.288C33.0773 30.288 34.464 30.544 35.488 31.056C36.512 31.5253 37.2373 32.2293 37.664 33.168C38.0907 34.1067 38.304 35.3227 38.304 36.816L38.368 52.432C38.368 56.528 38.688 59.4933 39.328 61.328C39.968 63.1627 41.2267 64.08 43.104 64.08C44.0427 64.08 44.7467 63.696 45.216 62.928C45.6853 62.1173 46.0053 60.8373 46.176 59.088C45.6213 56.6133 45.344 52.752 45.344 47.504C45.344 44.56 45.408 42.2133 45.536 40.464C45.664 38.7147 45.856 37.2 46.112 35.92C46.368 34.64 46.7947 33.7227 47.392 33.168C47.9893 32.6133 48.6507 32.2293 49.376 32.016C50.144 31.76 51.1893 31.632 52.512 31.632C53.28 31.632 53.9413 31.6533 54.496 31.696C55.0933 31.7387 55.648 31.8667 56.16 32.08C56.672 32.2933 57.0987 32.4853 57.44 32.656C57.7813 32.8267 58.1013 33.1467 58.4 33.616C58.6987 34.0853 58.9333 34.4907 59.104 34.832C59.2747 35.1733 59.424 35.728 59.552 36.496C59.7227 37.264 59.8293 37.9467 59.872 38.544C59.9573 39.0987 60 39.952 60 41.104C60.0427 42.2133 60.064 43.1947 60.064 44.048C60.1067 44.8587 60.128 46.032 60.128 47.568C60.128 52.944 59.8507 56.912 59.296 59.472C59.4667 61.008 59.7867 62.1387 60.256 62.864C60.7253 63.5893 61.4507 63.952 62.432 63.952Z"/>
</mask>
<path d="M62.432 63.952C64.096 63.952 65.248 63.056 65.888 61.264C66.528 59.4293 66.848 56.464 66.848 52.368L66.976 36.688C66.976 34.4267 67.488 32.784 68.512 31.76C69.5787 30.6933 71.392 30.16 73.952 30.16C75.5307 30.16 76.7893 30.416 77.728 30.928C78.7093 31.44 79.5413 32.4427 80.224 33.936C80.9067 35.4293 81.376 37.456 81.632 40.016C81.888 42.576 82.016 45.968 82.016 50.192C82.016 52.7093 81.8027 55.056 81.376 57.232C80.9493 59.408 80.3733 61.3067 79.648 62.928C78.9227 64.5493 78.048 66.0213 77.024 67.344C76.0427 68.624 74.9973 69.6907 73.888 70.544C72.7787 71.3973 71.6053 72.1227 70.368 72.72C69.1307 73.2747 67.9147 73.68 66.72 73.936C65.568 74.1493 64.4373 74.256 63.328 74.256C59.488 74.256 56.0107 73.04 52.896 70.608C49.824 73.1253 46.3467 74.384 42.464 74.384C40.8 74.384 39.136 74.1493 37.472 73.68C35.808 73.168 34.1013 72.3147 32.352 71.12C30.6453 69.9253 29.1307 68.4533 27.808 66.704C26.4853 64.912 25.3973 62.608 24.544 59.792C23.7333 56.9333 23.328 53.776 23.328 50.32C23.328 44.7307 23.584 40.5067 24.096 37.648C24.6507 34.7893 25.4613 32.848 26.528 31.824C27.6373 30.8 29.2373 30.288 31.328 30.288C33.0773 30.288 34.464 30.544 35.488 31.056C36.512 31.5253 37.2373 32.2293 37.664 33.168C38.0907 34.1067 38.304 35.3227 38.304 36.816L38.368 52.432C38.368 56.528 38.688 59.4933 39.328 61.328C39.968 63.1627 41.2267 64.08 43.104 64.08C44.0427 64.08 44.7467 63.696 45.216 62.928C45.6853 62.1173 46.0053 60.8373 46.176 59.088C45.6213 56.6133 45.344 52.752 45.344 47.504C45.344 44.56 45.408 42.2133 45.536 40.464C45.664 38.7147 45.856 37.2 46.112 35.92C46.368 34.64 46.7947 33.7227 47.392 33.168C47.9893 32.6133 48.6507 32.2293 49.376 32.016C50.144 31.76 51.1893 31.632 52.512 31.632C53.28 31.632 53.9413 31.6533 54.496 31.696C55.0933 31.7387 55.648 31.8667 56.16 32.08C56.672 32.2933 57.0987 32.4853 57.44 32.656C57.7813 32.8267 58.1013 33.1467 58.4 33.616C58.6987 34.0853 58.9333 34.4907 59.104 34.832C59.2747 35.1733 59.424 35.728 59.552 36.496C59.7227 37.264 59.8293 37.9467 59.872 38.544C59.9573 39.0987 60 39.952 60 41.104C60.0427 42.2133 60.064 43.1947 60.064 44.048C60.1067 44.8587 60.128 46.032 60.128 47.568C60.128 52.944 59.8507 56.912 59.296 59.472C59.4667 61.008 59.7867 62.1387 60.256 62.864C60.7253 63.5893 61.4507 63.952 62.432 63.952Z" fill="#FB923C"/>
<path d="M65.888 61.264L67.3007 61.7685L67.3043 61.7581L65.888 61.264ZM66.848 52.368L65.348 52.3558V52.368H66.848ZM66.976 36.688L68.476 36.7002V36.688H66.976ZM77.728 30.928L77.0097 32.2448L77.0219 32.2515L77.0342 32.2579L77.728 30.928ZM80.224 33.936L81.5882 33.3124L81.5882 33.3124L80.224 33.936ZM81.632 40.016L83.1246 39.8667L83.1246 39.8667L81.632 40.016ZM81.376 57.232L79.904 56.9434L79.904 56.9434L81.376 57.232ZM77.024 67.344L75.8379 66.4257L75.8336 66.4314L77.024 67.344ZM73.888 70.544L74.8026 71.7329L74.8026 71.7329L73.888 70.544ZM70.368 72.72L70.9816 74.0888L71.001 74.0801L71.0201 74.0708L70.368 72.72ZM66.72 73.936L66.9931 75.4109L67.0138 75.4071L67.0343 75.4027L66.72 73.936ZM52.896 70.608L53.8192 69.4257L52.8734 68.6872L51.9453 69.4478L52.896 70.608ZM37.472 73.68L37.0309 75.1137L37.0478 75.1189L37.0648 75.1237L37.472 73.68ZM32.352 71.12L31.4918 72.3488L31.4989 72.3538L31.5061 72.3587L32.352 71.12ZM27.808 66.704L26.6011 67.5948L26.6063 67.6017L26.6115 67.6087L27.808 66.704ZM24.544 59.792L23.1009 60.2012L23.1046 60.2142L23.1085 60.227L24.544 59.792ZM24.096 37.648L22.6235 37.3623L22.6214 37.3729L22.6195 37.3836L24.096 37.648ZM26.528 31.824L25.5106 30.7218L25.4998 30.7317L25.4892 30.7419L26.528 31.824ZM35.488 31.056L34.8172 32.3976L34.8399 32.409L34.863 32.4196L35.488 31.056ZM37.664 33.168L39.0296 32.5473L39.0296 32.5473L37.664 33.168ZM38.304 36.816L36.804 36.816L36.804 36.8221L38.304 36.816ZM38.368 52.432L39.868 52.432L39.868 52.4259L38.368 52.432ZM39.328 61.328L40.7443 60.8339L40.7443 60.8339L39.328 61.328ZM45.216 62.928L46.4959 63.7102L46.5052 63.695L46.5141 63.6796L45.216 62.928ZM46.176 59.088L47.6689 59.2336L47.6922 58.9944L47.6397 58.7599L46.176 59.088ZM45.536 40.464L44.04 40.3545L44.04 40.3545L45.536 40.464ZM46.112 35.92L44.6411 35.6258L44.6411 35.6258L46.112 35.92ZM49.376 32.016L49.7993 33.455L49.8249 33.4475L49.8503 33.439L49.376 32.016ZM54.496 31.696L54.381 33.1916L54.3891 33.1922L54.496 31.696ZM56.16 32.08L55.5831 33.4646L55.5831 33.4646L56.16 32.08ZM58.4 33.616L57.1345 34.4213L57.1345 34.4213L58.4 33.616ZM59.104 34.832L57.7624 35.5028L57.7624 35.5028L59.104 34.832ZM59.552 36.496L58.0724 36.7426L58.079 36.7822L58.0877 36.8214L59.552 36.496ZM59.872 38.544L58.3758 38.6509L58.3802 38.7118L58.3894 38.7721L59.872 38.544ZM60 41.104H58.5V41.1328L58.5011 41.1617L60 41.104ZM60.064 44.048H58.564V44.0874L58.5661 44.1268L60.064 44.048ZM59.296 59.472L57.83 59.1544L57.7781 59.394L57.8052 59.6376L59.296 59.472ZM60.256 62.864L58.9966 63.6789L58.9966 63.6789L60.256 62.864ZM62.432 65.452C63.5485 65.452 64.5893 65.145 65.4649 64.464C66.325 63.795 66.9133 62.8529 67.3006 61.7685L64.4754 60.7595C64.2227 61.4671 63.915 61.869 63.6231 62.096C63.3467 62.311 62.9795 62.452 62.432 62.452V65.452ZM67.3043 61.7581C68.0328 59.6697 68.348 56.4881 68.348 52.368H65.348C65.348 56.4399 65.0232 59.189 64.4717 60.7699L67.3043 61.7581ZM68.348 52.3802L68.476 36.7002L65.4761 36.6758L65.3481 52.3558L68.348 52.3802ZM68.476 36.688C68.476 34.6073 68.9532 33.4401 69.5727 32.8207L67.4513 30.6993C66.0228 32.1279 65.476 34.246 65.476 36.688H68.476ZM69.5727 32.8207C70.2161 32.1772 71.5297 31.66 73.952 31.66V28.66C71.2543 28.66 68.9413 29.2094 67.4513 30.6993L69.5727 32.8207ZM73.952 31.66C75.3906 31.66 76.3716 31.8968 77.0097 32.2448L78.4463 29.6112C77.207 28.9352 75.6708 28.66 73.952 28.66V31.66ZM77.0342 32.2579C77.6069 32.5567 78.2515 33.2291 78.8598 34.5596L81.5882 33.3124C80.8311 31.6563 79.8118 30.3233 78.4219 29.5981L77.0342 32.2579ZM78.8598 34.5596C79.4464 35.8429 79.8916 37.6873 80.1394 40.1653L83.1246 39.8667C82.8604 37.2247 82.3669 35.0158 81.5882 33.3124L78.8598 34.5596ZM80.1394 40.1653C80.3884 42.6544 80.516 45.9906 80.516 50.192H83.516C83.516 45.9454 83.3876 42.4976 83.1246 39.8667L80.1394 40.1653ZM80.516 50.192C80.516 52.6252 80.3098 54.8742 79.904 56.9434L82.848 57.5206C83.2956 55.2378 83.516 52.7935 83.516 50.192H80.516ZM79.904 56.9434C79.4941 59.0341 78.9479 60.8197 78.2788 62.3154L81.0172 63.5405C81.7988 61.7936 82.4046 59.7819 82.848 57.5206L79.904 56.9434ZM78.2788 62.3154C77.5991 63.8347 76.7846 65.203 75.8379 66.4257L78.2101 68.2623C79.3114 66.8397 80.2462 65.264 81.0172 63.5405L78.2788 62.3154ZM75.8336 66.4314C74.92 67.623 73.9648 68.5924 72.9734 69.3551L74.8026 71.7329C76.0298 70.7889 77.1654 69.625 78.2144 68.2566L75.8336 66.4314ZM72.9734 69.3551C71.9443 70.1467 70.8587 70.8175 69.7159 71.3692L71.0201 74.0708C72.352 73.4279 73.6131 72.6479 74.8026 71.7329L72.9734 69.3551ZM69.7544 71.3512C68.6028 71.8675 67.4869 72.2376 66.4057 72.4693L67.0343 75.4027C68.3424 75.1224 69.6585 74.6819 70.9816 74.0888L69.7544 71.3512ZM66.4469 72.4611C65.3799 72.6587 64.3408 72.756 63.328 72.756V75.756C64.5339 75.756 65.7561 75.64 66.9931 75.4109L66.4469 72.4611ZM63.328 72.756C59.8329 72.756 56.6784 71.6583 53.8192 69.4257L51.9728 71.7903C55.3429 74.4217 59.1431 75.756 63.328 75.756V72.756ZM51.9453 69.4478C49.1347 71.7509 45.9915 72.884 42.464 72.884V75.884C46.7019 75.884 50.5133 74.4998 53.8467 71.7682L51.9453 69.4478ZM42.464 72.884C40.943 72.884 39.4159 72.6698 37.8792 72.2363L37.0648 75.1237C38.8561 75.6289 40.657 75.884 42.464 75.884V72.884ZM37.9131 72.2463C36.4203 71.787 34.8488 71.0087 33.1979 69.8813L31.5061 72.3587C33.3538 73.6206 35.1957 74.549 37.0309 75.1137L37.9131 72.2463ZM33.2122 69.8912C31.6405 68.791 30.2377 67.4303 29.0045 65.7993L26.6115 67.6087C28.0237 69.4763 29.6502 71.0597 31.4918 72.3488L33.2122 69.8912ZM29.0149 65.8132C27.8206 64.1952 26.7982 62.0587 25.9795 59.357L23.1085 60.227C23.9964 63.1573 25.15 65.6288 26.6011 67.5948L29.0149 65.8132ZM25.9871 59.3828C25.2197 56.6768 24.828 53.6596 24.828 50.32H21.828C21.828 53.8924 22.2469 57.1898 23.1009 60.2012L25.9871 59.3828ZM24.828 50.32C24.828 44.7541 25.0845 40.6371 25.5725 37.9124L22.6195 37.3836C22.0835 40.3762 21.828 44.7073 21.828 50.32H24.828ZM25.5685 37.9337C26.1121 35.1323 26.8539 33.5905 27.5668 32.9061L25.4892 30.7419C24.0688 32.1055 23.1892 34.4464 22.6235 37.3623L25.5685 37.9337ZM27.5454 32.9262C28.2863 32.2423 29.4683 31.788 31.328 31.788V28.788C29.0064 28.788 26.9883 29.3577 25.5106 30.7218L27.5454 32.9262ZM31.328 31.788C32.9562 31.788 34.0825 32.0303 34.8172 32.3976L36.1588 29.7144C34.8455 29.0577 33.1984 28.788 31.328 28.788V31.788ZM34.863 32.4196C35.5915 32.7535 36.0354 33.2101 36.2985 33.7887L39.0296 32.5473C38.4392 31.2486 37.4325 30.2972 36.113 29.6924L34.863 32.4196ZM36.2985 33.7887C36.606 34.4654 36.804 35.4483 36.804 36.816H39.804C39.804 35.1971 39.5753 33.748 39.0296 32.5473L36.2985 33.7887ZM36.804 36.8221L36.868 52.4381L39.868 52.4259L39.804 36.8099L36.804 36.8221ZM36.868 52.432C36.868 56.5521 37.1832 59.7337 37.9117 61.8221L40.7443 60.8339C40.1928 59.253 39.868 56.5039 39.868 52.432H36.868ZM37.9117 61.8221C38.3071 62.9556 38.9377 63.9258 39.8685 64.6042C40.8036 65.2857 41.9145 65.58 43.104 65.58V62.58C42.4161 62.58 41.9591 62.4156 41.6355 62.1798C41.3076 61.9409 40.9889 61.535 40.7443 60.8339L37.9117 61.8221ZM43.104 65.58C44.5379 65.58 45.7402 64.9469 46.4959 63.7102L43.9361 62.1458C43.7532 62.4451 43.5474 62.58 43.104 62.58V65.58ZM46.5141 63.6796C47.1484 62.5841 47.4925 61.0417 47.6689 59.2336L44.6831 58.9424C44.5181 60.633 44.2223 61.6506 43.9179 62.1764L46.5141 63.6796ZM47.6397 58.7599C47.1232 56.4554 46.844 52.7327 46.844 47.504H43.844C43.844 52.7713 44.1195 56.7712 44.7123 59.4161L47.6397 58.7599ZM46.844 47.504C46.844 44.5757 46.9078 42.2702 47.032 40.5735L44.04 40.3545C43.9082 42.1564 43.844 44.5443 43.844 47.504H46.844ZM47.032 40.5735C47.1569 38.8666 47.3424 37.4166 47.5829 36.2142L44.6411 35.6258C44.3696 36.9834 44.1711 38.5628 44.04 40.3545L47.032 40.5735ZM47.5829 36.2142C47.8113 35.0719 48.1477 34.5132 48.4127 34.2672L46.3713 32.0688C45.4416 32.9321 44.9247 34.2081 44.6411 35.6258L47.5829 36.2142ZM48.4127 34.2672C48.8534 33.8579 49.3138 33.5978 49.7993 33.455L48.9528 30.577C47.9875 30.8608 47.1252 31.3688 46.3713 32.0688L48.4127 34.2672ZM49.8503 33.439C50.3994 33.256 51.262 33.132 52.512 33.132V30.132C51.1167 30.132 49.8886 30.264 48.9017 30.593L49.8503 33.439ZM52.512 33.132C53.2549 33.132 53.8758 33.1527 54.381 33.1916L54.6111 30.2004C54.0068 30.1539 53.3051 30.132 52.512 30.132V33.132ZM54.3891 33.1922C54.8377 33.2242 55.2322 33.3184 55.5831 33.4646L56.7369 30.6954C56.0638 30.4149 55.349 30.2531 54.6029 30.1998L54.3891 33.1922ZM55.5831 33.4646C56.0761 33.6701 56.469 33.8475 56.7692 33.9976L58.1108 31.3144C57.7284 31.1231 57.2679 30.9166 56.7369 30.6954L55.5831 33.4646ZM56.7692 33.9976C56.7806 34.0034 56.9191 34.0827 57.1345 34.4213L59.6655 32.8107C59.2836 32.2106 58.782 31.65 58.1108 31.3144L56.7692 33.9976ZM57.1345 34.4213C57.4168 34.8649 57.6226 35.2232 57.7624 35.5028L60.4456 34.1612C60.2441 33.7581 59.9805 33.3058 59.6655 32.8107L57.1345 34.4213ZM57.7624 35.5028C57.8276 35.6334 57.949 36.0021 58.0724 36.7426L61.0316 36.2494C60.899 35.4539 60.7217 34.7133 60.4456 34.1612L57.7624 35.5028ZM58.0877 36.8214C58.247 37.5384 58.3397 38.1457 58.3758 38.6509L61.3682 38.4371C61.3189 37.7476 61.1983 36.9896 61.0163 36.1706L58.0877 36.8214ZM58.3894 38.7721C58.4565 39.208 58.5 39.9664 58.5 41.104H61.5C61.5 39.9376 61.4582 38.9893 61.3546 38.3159L58.3894 38.7721ZM58.5011 41.1617C58.5432 42.2571 58.564 43.2186 58.564 44.048H61.564C61.564 43.1707 61.5421 42.1695 61.4989 41.0463L58.5011 41.1617ZM58.5661 44.1268C58.6066 44.8975 58.628 46.0396 58.628 47.568H61.628C61.628 46.0244 61.6067 44.8198 61.5619 43.9692L58.5661 44.1268ZM58.628 47.568C58.628 52.9242 58.3491 56.7588 57.83 59.1544L60.762 59.7896C61.3523 57.0652 61.628 52.9638 61.628 47.568H58.628ZM57.8052 59.6376C57.9843 61.2498 58.3369 62.6593 58.9966 63.6789L61.5154 62.0491C61.2364 61.618 60.949 60.7662 60.7868 59.3064L57.8052 59.6376ZM58.9966 63.6789C59.7838 64.8954 61.0231 65.452 62.432 65.452V62.452C61.8782 62.452 61.6669 62.2832 61.5154 62.0491L58.9966 63.6789Z" fill="#37281C" mask="url(#path-1-outside-1_351_374)"/>
<g clip-path="url(#clip0_351_374)">
<path d="M113.453 54.6013C112.545 53.4759 111.436 50.6285 110.324 47.1992L107.108 47.5371C105.896 47.6645 104.811 46.7854 104.683 45.5734C104.557 44.3605 105.435 43.2757 106.648 43.1474L109.008 42.9002C108.623 41.5747 108.248 40.2332 107.892 38.9198L105.351 39.1868C104.139 39.3142 103.054 38.435 102.926 37.223C102.799 36.011 103.678 34.9253 104.89 34.7979L106.753 34.6013C106.141 32.2131 105.646 30.179 105.344 28.9186C105.156 28.1327 104.415 27.611 103.612 27.6956L100.424 28.0307C99.4741 28.1305 98.7852 28.9812 98.8843 29.9318L98.9762 30.7986C99.0878 31.8687 98.0916 32.7502 97.0558 32.4582C85.6441 29.2374 87.3598 19.025 87.3598 19.025C84.9364 16.2188 69.3444 30.5673 69.3444 30.5673L118.209 70.1369C123.39 63.7379 116.512 58.4049 113.453 54.6013Z" fill="#37281C"/>
<path d="M94.812 38.4113L91.216 33.8537L92.1124 30.1552C91.604 29.7889 91.1431 29.4058 90.7341 29.0079L87.279 30.6656L82.0733 28.0957L83.0304 33.4243L78.2555 37.7829L84.9701 37.5409L86.1294 44.1591L89.4001 38.5823L94.812 38.4113Z" fill="#F79200"/>
<path d="M88.6057 34.8051C88.2216 35.2793 87.527 35.3515 87.0536 34.9682C86.5803 34.5849 86.5065 33.8904 86.8905 33.4162C87.2745 32.9419 87.9692 32.8697 88.4425 33.253C88.9159 33.6364 88.9896 34.3309 88.6057 34.8051Z" fill="#37281C"/>
<path d="M117.489 70.1965C116.109 71.5992 114.362 71.6134 112.83 71.2057C112.002 70.9853 111.261 70.6454 110.725 70.3578C110.458 70.2146 110.244 70.0856 110.098 69.9934C110.026 69.9473 109.97 69.9105 109.933 69.8857C109.915 69.8736 109.902 69.8644 109.893 69.8584L72.295 39.4121C69.162 36.875 67.8292 35.0789 67.2721 33.9582C66.995 33.4007 66.9123 33.0155 66.8911 32.7915C66.8878 32.7563 66.886 32.725 66.8852 32.6973L69.3077 31.1805L117.489 70.1965Z" fill="#FDBD8E" stroke="#37281C"/>
<path d="M102.926 37.2225C102.798 36.0112 103.678 34.9248 104.89 34.7974L108.182 34.4521C109.394 34.3241 110.48 35.2039 110.608 36.4159C110.735 37.628 109.856 38.7136 108.644 38.841L105.352 39.187C104.139 39.3137 103.054 38.4345 102.926 37.2225Z" fill="#FB923C"/>
<path d="M104.683 45.5728C104.556 44.3608 105.435 43.2751 106.647 43.1478L109.94 42.8025C111.151 42.6745 112.237 43.5543 112.365 44.7663C112.493 45.9775 111.613 47.064 110.401 47.1914L107.109 47.5373C105.896 47.6641 104.811 46.7849 104.683 45.5728Z" fill="#FB923C"/>
</g>
</g>
<defs>
<filter id="filter0_d_351_374" x="0" y="0" width="153.482" height="114" filterUnits="userSpaceOnUse" color-interpolation-filters="sRGB">
<feFlood flood-opacity="0" result="BackgroundImageFix"/>
<feColorMatrix in="SourceAlpha" type="matrix" values="0 0 0 0 0 0 0 0 0 0 0 0 0 0 0 0 0 0 127 0" result="hardAlpha"/>
<feOffset dy="9"/>
<feGaussianBlur stdDeviation="10"/>
<feComposite in2="hardAlpha" operator="out"/>
<feColorMatrix type="matrix" values="0 0 0 0 0.156863 0 0 0 0 0.137255 0 0 0 0 0.109804 0 0 0 0.2 0"/>
<feBlend mode="normal" in2="BackgroundImageFix" result="effect1_dropShadow_351_374"/>
<feBlend mode="normal" in="SourceGraphic" in2="effect1_dropShadow_351_374" result="shape"/>
</filter>
<clipPath id="clip0_351_374">
<rect width="64" height="29.786" fill="white" transform="translate(83.7449 11) rotate(39)"/>
</clipPath>
</defs>
</svg>
