<svg width="204" height="200" viewBox="0 0 204 200" fill="none" xmlns="http://www.w3.org/2000/svg">
<rect width="200" height="200" rx="100" fill="#FFFAF6"/>
<g filter="url(#filter0_d_459_429)">
<mask id="path-2-outside-1_459_429" maskUnits="userSpaceOnUse" x="37" y="68" width="92" height="71" fill="black">
<rect fill="white" x="37" y="68" width="92" height="71"/>
<path d="M97.648 120.928C100.144 120.928 101.872 119.584 102.832 116.896C103.792 114.144 104.272 109.696 104.272 103.552L104.464 80.032C104.464 76.64 105.232 74.176 106.768 72.64C108.368 71.04 111.088 70.24 114.928 70.24C117.296 70.24 119.184 70.624 120.592 71.392C122.064 72.16 123.312 73.664 124.336 75.904C125.36 78.144 126.064 81.184 126.448 85.024C126.832 88.864 127.024 93.952 127.024 100.288C127.024 104.064 126.704 107.584 126.064 110.848C125.424 114.112 124.56 116.96 123.472 119.392C122.384 121.824 121.072 124.032 119.536 126.016C118.064 127.936 116.496 129.536 114.832 130.816C113.168 132.096 111.408 133.184 109.552 134.08C107.696 134.912 105.872 135.52 104.08 135.904C102.352 136.224 100.656 136.384 98.992 136.384C93.232 136.384 88.016 134.56 83.344 130.912C78.736 134.688 73.52 136.576 67.696 136.576C65.2 136.576 62.704 136.224 60.208 135.52C57.712 134.752 55.152 133.472 52.528 131.68C49.968 129.888 47.696 127.68 45.712 125.056C43.728 122.368 42.096 118.912 40.816 114.688C39.6 110.4 38.992 105.664 38.992 100.48C38.992 92.096 39.376 85.76 40.144 81.472C40.976 77.184 42.192 74.272 43.792 72.736C45.456 71.2 47.856 70.432 50.992 70.432C53.616 70.432 55.696 70.816 57.232 71.584C58.768 72.288 59.856 73.344 60.496 74.752C61.136 76.16 61.456 77.984 61.456 80.224L61.552 103.648C61.552 109.792 62.032 114.24 62.992 116.992C63.952 119.744 65.84 121.12 68.656 121.12C70.064 121.12 71.12 120.544 71.824 119.392C72.528 118.176 73.008 116.256 73.264 113.632C72.432 109.92 72.016 104.128 72.016 96.256C72.016 91.84 72.112 88.32 72.304 85.696C72.496 83.072 72.784 80.8 73.168 78.88C73.552 76.96 74.192 75.584 75.088 74.752C75.984 73.92 76.976 73.344 78.064 73.024C79.216 72.64 80.784 72.448 82.768 72.448C83.92 72.448 84.912 72.48 85.744 72.544C86.64 72.608 87.472 72.8 88.24 73.12C89.008 73.44 89.648 73.728 90.16 73.984C90.672 74.24 91.152 74.72 91.6 75.424C92.048 76.128 92.4 76.736 92.656 77.248C92.912 77.76 93.136 78.592 93.328 79.744C93.584 80.896 93.744 81.92 93.808 82.816C93.936 83.648 94 84.928 94 86.656C94.064 88.32 94.096 89.792 94.096 91.072C94.16 92.288 94.192 94.048 94.192 96.352C94.192 104.416 93.776 110.368 92.944 114.208C93.2 116.512 93.68 118.208 94.384 119.296C95.088 120.384 96.176 120.928 97.648 120.928Z"/>
</mask>
<path d="M97.648 120.928C100.144 120.928 101.872 119.584 102.832 116.896C103.792 114.144 104.272 109.696 104.272 103.552L104.464 80.032C104.464 76.64 105.232 74.176 106.768 72.64C108.368 71.04 111.088 70.24 114.928 70.24C117.296 70.24 119.184 70.624 120.592 71.392C122.064 72.16 123.312 73.664 124.336 75.904C125.36 78.144 126.064 81.184 126.448 85.024C126.832 88.864 127.024 93.952 127.024 100.288C127.024 104.064 126.704 107.584 126.064 110.848C125.424 114.112 124.56 116.96 123.472 119.392C122.384 121.824 121.072 124.032 119.536 126.016C118.064 127.936 116.496 129.536 114.832 130.816C113.168 132.096 111.408 133.184 109.552 134.08C107.696 134.912 105.872 135.52 104.08 135.904C102.352 136.224 100.656 136.384 98.992 136.384C93.232 136.384 88.016 134.56 83.344 130.912C78.736 134.688 73.52 136.576 67.696 136.576C65.2 136.576 62.704 136.224 60.208 135.52C57.712 134.752 55.152 133.472 52.528 131.68C49.968 129.888 47.696 127.68 45.712 125.056C43.728 122.368 42.096 118.912 40.816 114.688C39.6 110.4 38.992 105.664 38.992 100.48C38.992 92.096 39.376 85.76 40.144 81.472C40.976 77.184 42.192 74.272 43.792 72.736C45.456 71.2 47.856 70.432 50.992 70.432C53.616 70.432 55.696 70.816 57.232 71.584C58.768 72.288 59.856 73.344 60.496 74.752C61.136 76.16 61.456 77.984 61.456 80.224L61.552 103.648C61.552 109.792 62.032 114.24 62.992 116.992C63.952 119.744 65.84 121.12 68.656 121.12C70.064 121.12 71.12 120.544 71.824 119.392C72.528 118.176 73.008 116.256 73.264 113.632C72.432 109.92 72.016 104.128 72.016 96.256C72.016 91.84 72.112 88.32 72.304 85.696C72.496 83.072 72.784 80.8 73.168 78.88C73.552 76.96 74.192 75.584 75.088 74.752C75.984 73.92 76.976 73.344 78.064 73.024C79.216 72.64 80.784 72.448 82.768 72.448C83.92 72.448 84.912 72.48 85.744 72.544C86.64 72.608 87.472 72.8 88.24 73.12C89.008 73.44 89.648 73.728 90.16 73.984C90.672 74.24 91.152 74.72 91.6 75.424C92.048 76.128 92.4 76.736 92.656 77.248C92.912 77.76 93.136 78.592 93.328 79.744C93.584 80.896 93.744 81.92 93.808 82.816C93.936 83.648 94 84.928 94 86.656C94.064 88.32 94.096 89.792 94.096 91.072C94.16 92.288 94.192 94.048 94.192 96.352C94.192 104.416 93.776 110.368 92.944 114.208C93.2 116.512 93.68 118.208 94.384 119.296C95.088 120.384 96.176 120.928 97.648 120.928Z" fill="#FB923C"/>
<path d="M102.832 116.896L104.245 117.401L104.248 117.39L102.832 116.896ZM104.272 103.552L102.772 103.54V103.552H104.272ZM104.464 80.032L105.964 80.0442V80.032H104.464ZM120.592 71.392L119.874 72.7088L119.886 72.7155L119.898 72.7219L120.592 71.392ZM124.336 75.904L125.7 75.2804L125.7 75.2804L124.336 75.904ZM126.448 85.024L127.941 84.8747L127.941 84.8747L126.448 85.024ZM126.064 110.848L124.592 110.559L124.592 110.559L126.064 110.848ZM119.536 126.016L118.35 125.098L118.346 125.103L119.536 126.016ZM114.832 130.816L115.747 132.005L115.747 132.005L114.832 130.816ZM109.552 134.08L110.166 135.449L110.185 135.44L110.204 135.431L109.552 134.08ZM104.08 135.904L104.353 137.379L104.374 137.375L104.394 137.371L104.08 135.904ZM83.344 130.912L84.2672 129.73L83.3214 128.991L82.3933 129.752L83.344 130.912ZM60.208 135.52L59.7669 136.954L59.7838 136.959L59.8008 136.964L60.208 135.52ZM52.528 131.68L51.6678 132.909L51.6749 132.914L51.6821 132.919L52.528 131.68ZM45.712 125.056L44.5051 125.947L44.5103 125.954L44.5155 125.961L45.712 125.056ZM40.816 114.688L39.3729 115.097L39.3766 115.11L39.3805 115.123L40.816 114.688ZM40.144 81.472L38.6715 81.1863L38.6694 81.1969L38.6675 81.2075L40.144 81.472ZM43.792 72.736L42.7746 71.6338L42.7638 71.6437L42.7532 71.6539L43.792 72.736ZM57.232 71.584L56.5612 72.9256L56.5839 72.937L56.607 72.9476L57.232 71.584ZM60.496 74.752L61.8616 74.1313L61.8616 74.1313L60.496 74.752ZM61.456 80.224L59.956 80.224L59.956 80.2301L61.456 80.224ZM61.552 103.648L63.052 103.648L63.052 103.642L61.552 103.648ZM62.992 116.992L64.4083 116.498L64.4083 116.498L62.992 116.992ZM71.824 119.392L73.1039 120.174L73.1132 120.159L73.1221 120.144L71.824 119.392ZM73.264 113.632L74.7569 113.778L74.7802 113.538L74.7277 113.304L73.264 113.632ZM72.304 85.696L70.808 85.5865L70.808 85.5865L72.304 85.696ZM73.168 78.88L71.6971 78.5858L71.6971 78.5858L73.168 78.88ZM78.064 73.024L78.4873 74.463L78.5129 74.4555L78.5383 74.447L78.064 73.024ZM85.744 72.544L85.629 74.0396L85.6371 74.0402L85.744 72.544ZM88.24 73.12L87.6631 74.5046L87.6631 74.5046L88.24 73.12ZM91.6 75.424L90.3345 76.2293L90.3345 76.2293L91.6 75.424ZM92.656 77.248L91.3144 77.9188L91.3144 77.9188L92.656 77.248ZM93.328 79.744L91.8484 79.9906L91.855 80.0302L91.8637 80.0694L93.328 79.744ZM93.808 82.816L92.3118 82.9229L92.3162 82.9838L92.3254 83.0441L93.808 82.816ZM94 86.656H92.5V86.6848L92.5011 86.7137L94 86.656ZM94.096 91.072H92.596V91.1114L92.5981 91.1508L94.096 91.072ZM92.944 114.208L91.478 113.89L91.4261 114.13L91.4532 114.374L92.944 114.208ZM94.384 119.296L93.1246 120.111L93.1246 120.111L94.384 119.296ZM97.648 122.428C99.1805 122.428 100.573 122.009 101.737 121.104C102.885 120.211 103.697 118.933 104.245 117.401L101.419 116.391C101.007 117.547 100.475 118.285 99.8951 118.736C99.3307 119.175 98.6115 119.428 97.648 119.428V122.428ZM104.248 117.39C105.297 114.384 105.772 109.72 105.772 103.552H102.772C102.772 109.672 102.287 113.904 101.416 116.402L104.248 117.39ZM105.772 103.564L105.964 80.0442L102.964 80.0198L102.772 103.54L105.772 103.564ZM105.964 80.032C105.964 76.8206 106.697 74.8321 107.829 73.7007L105.707 71.5793C103.767 73.5199 102.964 76.4593 102.964 80.032H105.964ZM107.829 73.7007C109.005 72.5239 111.226 71.74 114.928 71.74V68.74C110.95 68.74 107.731 69.5561 105.707 71.5793L107.829 73.7007ZM114.928 71.74C117.156 71.74 118.766 72.1048 119.874 72.7088L121.31 70.0752C119.602 69.1432 117.436 68.74 114.928 68.74V71.74ZM119.898 72.7219C120.962 73.2767 122.022 74.4504 122.972 76.5276L125.7 75.2804C124.602 72.8776 123.166 71.0433 121.286 70.0621L119.898 72.7219ZM122.972 76.5276C123.9 78.5575 124.58 81.4153 124.955 85.1733L127.941 84.8747C127.548 80.9527 126.82 77.7305 125.7 75.2804L122.972 76.5276ZM124.955 85.1733C125.332 88.9424 125.524 93.9746 125.524 100.288H128.524C128.524 93.9294 128.332 88.7855 127.941 84.8747L124.955 85.1733ZM125.524 100.288C125.524 103.98 125.211 107.402 124.592 110.559L127.536 111.137C128.197 107.766 128.524 104.148 128.524 100.288H125.524ZM124.592 110.559C123.969 113.738 123.135 116.473 122.103 118.779L124.841 120.005C125.985 117.447 126.879 114.486 127.536 111.137L124.592 110.559ZM122.103 118.779C121.06 121.109 119.809 123.214 118.35 125.098L120.722 126.934C122.335 124.85 123.708 122.539 124.841 120.005L122.103 118.779ZM118.346 125.103C116.941 126.935 115.464 128.438 113.917 129.627L115.747 132.005C117.528 130.634 119.187 128.937 120.726 126.929L118.346 125.103ZM113.917 129.627C112.334 130.845 110.661 131.879 108.9 132.729L110.204 135.431C112.155 134.489 114.002 133.347 115.747 132.005L113.917 129.627ZM108.938 132.711C107.168 133.505 105.444 134.078 103.766 134.437L104.394 137.371C106.3 136.962 108.224 136.319 110.166 135.449L108.938 132.711ZM103.807 134.429C102.164 134.733 100.559 134.884 98.992 134.884V137.884C100.753 137.884 102.54 137.715 104.353 137.379L103.807 134.429ZM98.992 134.884C93.5769 134.884 88.6838 133.178 84.2672 129.73L82.4208 132.094C87.3482 135.942 92.8871 137.884 98.992 137.884V134.884ZM82.3933 129.752C78.0467 133.314 73.1648 135.076 67.696 135.076V138.076C73.8752 138.076 79.4253 136.062 84.2947 132.072L82.3933 129.752ZM67.696 135.076C65.343 135.076 62.9839 134.744 60.6152 134.076L59.8008 136.964C62.4241 137.704 65.057 138.076 67.696 138.076V135.076ZM60.6491 134.086C58.3243 133.371 55.8995 132.166 53.3739 130.441L51.6821 132.919C54.4045 134.778 57.0997 136.133 59.7669 136.954L60.6491 134.086ZM53.3882 130.451C50.9632 128.754 48.803 126.657 46.9085 124.151L44.5155 125.961C46.589 128.703 48.9728 131.022 51.6678 132.909L53.3882 130.451ZM46.9189 124.165C45.0633 121.651 43.4969 118.363 42.2515 114.253L39.3805 115.123C40.6951 119.461 42.3927 123.085 44.5051 125.947L46.9189 124.165ZM42.2591 114.279C41.0864 110.143 40.492 105.548 40.492 100.48H37.492C37.492 105.78 38.1136 110.657 39.3729 115.097L42.2591 114.279ZM40.492 100.48C40.492 92.1194 40.8765 85.8904 41.6205 81.7364L38.6675 81.2075C37.8755 85.6296 37.492 92.0726 37.492 100.48H40.492ZM41.6165 81.7577C42.4374 77.5269 43.5846 75.0145 44.8308 73.8181L42.7532 71.6539C40.7994 73.5295 39.5146 76.8411 38.6715 81.1863L41.6165 81.7577ZM44.8094 73.8382C46.105 72.6423 48.087 71.932 50.992 71.932V68.932C47.625 68.932 44.807 69.7577 42.7746 71.6338L44.8094 73.8382ZM50.992 71.932C53.4949 71.932 55.3145 72.3023 56.5612 72.9256L57.9028 70.2424C56.0775 69.3297 53.7371 68.932 50.992 68.932V71.932ZM56.607 72.9476C57.8475 73.5162 58.6541 74.3247 59.1305 75.3727L61.8616 74.1313C61.0579 72.3633 59.6885 71.0598 57.857 70.2204L56.607 72.9476ZM59.1305 75.3727C59.6514 76.5187 59.956 78.1096 59.956 80.224H62.956C62.956 77.8584 62.6206 75.8013 61.8616 74.1313L59.1305 75.3727ZM59.956 80.2301L60.052 103.654L63.052 103.642L62.956 80.2178L59.956 80.2301ZM60.052 103.648C60.052 109.816 60.5272 114.48 61.5757 117.486L64.4083 116.498C63.5368 114 63.052 109.768 63.052 103.648H60.052ZM61.5757 117.486C62.1311 119.078 62.999 120.392 64.2445 121.3C65.4943 122.211 66.9972 122.62 68.656 122.62V119.62C67.4988 119.62 66.6497 119.341 66.0115 118.876C65.369 118.408 64.8129 117.658 64.4083 116.498L61.5757 117.486ZM68.656 122.62C70.5593 122.62 72.1135 121.795 73.1039 120.174L70.5441 118.61C70.1265 119.293 69.5687 119.62 68.656 119.62V122.62ZM73.1221 120.144C73.991 118.643 74.4952 116.46 74.7569 113.778L71.7711 113.486C71.5208 116.052 71.065 117.709 70.5259 118.64L73.1221 120.144ZM74.7277 113.304C73.9338 109.762 73.516 104.109 73.516 96.256H70.516C70.516 104.147 70.9302 110.078 71.8003 113.96L74.7277 113.304ZM73.516 96.256C73.516 91.8557 73.6118 88.3769 73.8 85.8055L70.808 85.5865C70.6122 88.2631 70.516 91.8243 70.516 96.256H73.516ZM73.8 85.8055C73.9889 83.2239 74.2704 81.0166 74.6389 79.1742L71.6971 78.5858C71.2976 80.5834 71.0031 82.9201 70.808 85.5865L73.8 85.8055ZM74.6389 79.1742C74.9953 77.3919 75.545 76.3746 76.1087 75.8512L74.0673 73.6528C72.839 74.7934 72.1087 76.5281 71.6971 78.5858L74.6389 79.1742ZM76.1087 75.8512C76.8481 75.1646 77.6391 74.7125 78.4873 74.463L77.6408 71.5849C76.3129 71.9755 75.1199 72.6754 74.0673 73.6528L76.1087 75.8512ZM78.5383 74.447C79.4714 74.136 80.8566 73.948 82.768 73.948V70.948C80.7114 70.948 78.9606 71.144 77.5897 71.601L78.5383 74.447ZM82.768 73.948C83.8949 73.948 84.8465 73.9794 85.629 74.0396L85.8591 71.0484C84.9775 70.9806 83.9451 70.948 82.768 70.948V73.948ZM85.6371 74.0402C86.3843 74.0936 87.0562 74.2517 87.6631 74.5046L88.8169 71.7354C87.8878 71.3483 86.8957 71.1224 85.8509 71.0478L85.6371 74.0402ZM87.6631 74.5046C88.4121 74.8167 89.0183 75.0902 89.4892 75.3256L90.8308 72.6424C90.2777 72.3658 89.6039 72.0633 88.8169 71.7354L87.6631 74.5046ZM89.4892 75.3256C89.6713 75.4167 89.9697 75.6561 90.3345 76.2293L92.8655 74.6187C92.3343 73.7839 91.6727 73.0633 90.8308 72.6424L89.4892 75.3256ZM90.3345 76.2293C90.7661 76.9076 91.0892 77.4685 91.3144 77.9188L93.9976 76.5772C93.7108 76.0035 93.3299 75.3484 92.8655 74.6187L90.3345 76.2293ZM91.3144 77.9188C91.465 78.22 91.661 78.8661 91.8484 79.9906L94.8076 79.4974C94.611 78.3179 94.359 77.3 93.9976 76.5772L91.3144 77.9188ZM91.8637 80.0694C92.1084 81.1704 92.2544 82.1191 92.3118 82.9229L95.3042 82.7091C95.2336 81.7209 95.0596 80.6216 94.7923 79.4186L91.8637 80.0694ZM92.3254 83.0441C92.4352 83.7574 92.5 84.9424 92.5 86.656H95.5C95.5 84.9136 95.4368 83.5386 95.2906 82.5879L92.3254 83.0441ZM92.5011 86.7137C92.5646 88.3638 92.596 89.8159 92.596 91.072H95.596C95.596 89.7681 95.5634 88.2762 95.4989 86.5983L92.5011 86.7137ZM92.5981 91.1508C92.66 92.3269 92.692 94.0556 92.692 96.352H95.692C95.692 94.0404 95.66 92.2491 95.5939 90.9932L92.5981 91.1508ZM92.692 96.352C92.692 104.396 92.2744 110.215 91.478 113.89L94.41 114.526C95.2776 110.521 95.692 104.436 95.692 96.352H92.692ZM91.4532 114.374C91.7176 116.754 92.2303 118.729 93.1246 120.111L95.6434 118.481C95.1297 117.687 94.6824 116.27 94.4348 114.042L91.4532 114.374ZM93.1246 120.111C94.1465 121.69 95.7485 122.428 97.648 122.428V119.428C96.6036 119.428 96.0295 119.078 95.6434 118.481L93.1246 120.111Z" fill="#37281C" mask="url(#path-2-outside-1_459_429)"/>
<g clip-path="url(#clip0_459_429)">
<path d="M166.594 101.227C165.403 99.7498 163.948 96.0126 162.488 91.5116L158.267 91.9552C156.677 92.1224 155.252 90.9685 155.084 89.3777C154.918 87.7858 156.071 86.362 157.663 86.1936L160.76 85.8691C160.255 84.1294 159.763 82.3688 159.296 80.6449L155.961 80.9953C154.37 81.1625 152.945 80.0086 152.778 78.4178C152.611 76.8271 153.765 75.4021 155.356 75.2349L157.801 74.9769C156.998 71.8424 156.347 69.1726 155.952 67.5183C155.705 66.4868 154.733 65.8021 153.678 65.9131L149.494 66.3529C148.247 66.4839 147.343 67.6004 147.473 68.8482L147.594 69.9858C147.74 71.3904 146.433 72.5473 145.073 72.164C130.095 67.9367 132.347 54.533 132.347 54.533C129.167 50.8499 108.702 69.6823 108.702 69.6823L172.837 121.617C179.638 113.219 170.609 106.219 166.594 101.227Z" fill="#37281C"/>
<path d="M142.128 79.9774L137.408 73.9955L138.585 69.1412C137.918 68.6604 137.313 68.1577 136.776 67.6354L132.241 69.8111L125.409 66.4382L126.665 73.4319L120.398 79.1526L129.211 78.8349L130.732 87.5213L135.025 80.2018L142.128 79.9774Z" fill="#F79200"/>
<path d="M133.982 75.2444C133.478 75.8669 132.567 75.9616 131.945 75.4585C131.324 74.9554 131.227 74.0439 131.731 73.4215C132.235 72.799 133.147 72.7042 133.768 73.2074C134.389 73.7105 134.486 74.6221 133.982 75.2444Z" fill="#37281C"/>
<path d="M172.122 121.681C170.239 123.701 167.82 123.725 165.737 123.171C164.634 122.878 163.651 122.426 162.94 122.045C162.586 121.855 162.302 121.684 162.108 121.561C162.011 121.499 161.937 121.45 161.887 121.417C161.863 121.4 161.844 121.388 161.832 121.38L161.828 121.377L112.476 81.4123C108.355 78.0748 106.587 75.7006 105.842 74.2021C105.471 73.4557 105.356 72.9316 105.327 72.6159C105.318 72.5242 105.316 72.4495 105.318 72.3912L108.666 70.2952L172.122 121.681Z" fill="#FDBD8E" stroke="#37281C"/>
<path d="M152.778 78.417C152.61 76.8273 153.765 75.4013 155.355 75.2341L159.677 74.7809C161.267 74.6129 162.693 75.7676 162.86 77.3584C163.027 78.9492 161.873 80.3741 160.282 80.5413L155.962 80.9954C154.37 81.1617 152.945 80.0078 152.778 78.417Z" fill="#FB923C"/>
<path d="M155.084 89.3767C154.917 87.7859 156.071 86.361 157.662 86.1938L161.983 85.7406C163.573 85.5726 164.999 86.7273 165.166 88.3181C165.334 89.9079 164.179 91.3339 162.588 91.5011L158.268 91.9551C156.676 92.1215 155.251 90.9676 155.084 89.3767Z" fill="#FB923C"/>
</g>
</g>
<defs>
<filter id="filter0_d_459_429" x="27.9922" y="42" width="175.891" height="131" filterUnits="userSpaceOnUse" color-interpolation-filters="sRGB">
<feFlood flood-opacity="0" result="BackgroundImageFix"/>
<feColorMatrix in="SourceAlpha" type="matrix" values="0 0 0 0 0 0 0 0 0 0 0 0 0 0 0 0 0 0 127 0" result="hardAlpha"/>
<feOffset dy="9"/>
<feGaussianBlur stdDeviation="5.5"/>
<feComposite in2="hardAlpha" operator="out"/>
<feColorMatrix type="matrix" values="0 0 0 0 0.156863 0 0 0 0 0.137255 0 0 0 0 0.109804 0 0 0 0.1 0"/>
<feBlend mode="normal" in2="BackgroundImageFix" result="effect1_dropShadow_459_429"/>
<feBlend mode="normal" in="SourceGraphic" in2="effect1_dropShadow_459_429" result="shape"/>
</filter>
<clipPath id="clip0_459_429">
<rect width="84" height="39.0942" fill="white" transform="translate(127.603 44) rotate(39)"/>
</clipPath>
</defs>
</svg>
