<svg width="25" height="25" viewBox="0 0 25 25" fill="none" xmlns="http://www.w3.org/2000/svg">
<path d="M2.13623 7.14282L6.54623 2.73282C6.73229 2.54565 6.95355 2.39716 7.19726 2.2959C7.44097 2.19464 7.70232 2.14261 7.96623 2.14282H16.3062C16.5701 2.14261 16.8315 2.19464 17.0752 2.2959C17.3189 2.39716 17.5402 2.54565 17.7262 2.73282L22.1362 7.14282" stroke="#28231C" stroke-width="1.5" stroke-linecap="round" stroke-linejoin="round"/>
<path d="M4.13623 12.1428V20.1428C4.13623 20.6733 4.34694 21.182 4.72202 21.557C5.09709 21.9321 5.6058 22.1428 6.13623 22.1428H18.1362C18.6667 22.1428 19.1754 21.9321 19.5504 21.557C19.9255 21.182 20.1362 20.6733 20.1362 20.1428V12.1428" stroke="#28231C" stroke-width="1.5" stroke-linecap="round" stroke-linejoin="round"/>
<path d="M15.1362 22.1428V18.1428C15.1362 17.6124 14.9255 17.1037 14.5504 16.7286C14.1754 16.3535 13.6667 16.1428 13.1362 16.1428H11.1362C10.6058 16.1428 10.0971 16.3535 9.72202 16.7286C9.34694 17.1037 9.13623 17.6124 9.13623 18.1428V22.1428" stroke="#28231C" stroke-width="1.5" stroke-linecap="round" stroke-linejoin="round"/>
<path d="M2.13623 9.14282H22.1362" stroke="#28231C" stroke-width="1.5" stroke-linecap="round" stroke-linejoin="round"/>
<path d="M22.1362 7.14282V10.1428C22.1362 10.6733 21.9255 11.182 21.5504 11.557C21.1754 11.9321 20.6667 12.1428 20.1362 12.1428C19.552 12.1107 18.994 11.8896 18.5462 11.5128C18.4269 11.4266 18.2834 11.3802 18.1362 11.3802C17.989 11.3802 17.8456 11.4266 17.7262 11.5128C17.2785 11.8896 16.7205 12.1107 16.1362 12.1428C15.552 12.1107 14.994 11.8896 14.5462 11.5128C14.4269 11.4266 14.2834 11.3802 14.1362 11.3802C13.989 11.3802 13.8456 11.4266 13.7262 11.5128C13.2785 11.8896 12.7205 12.1107 12.1362 12.1428C11.552 12.1107 10.994 11.8896 10.5462 11.5128C10.4269 11.4266 10.2834 11.3802 10.1362 11.3802C9.98902 11.3802 9.84555 11.4266 9.72623 11.5128C9.2785 11.8896 8.7205 12.1107 8.13623 12.1428C7.55197 12.1107 6.99396 11.8896 6.54623 11.5128C6.42691 11.4266 6.28344 11.3802 6.13623 11.3802C5.98902 11.3802 5.84555 11.4266 5.72623 11.5128C5.2785 11.8896 4.7205 12.1107 4.13623 12.1428C3.6058 12.1428 3.09709 11.9321 2.72202 11.557C2.34694 11.182 2.13623 10.6733 2.13623 10.1428V7.14282" stroke="#28231C" stroke-width="1.5" stroke-linecap="round" stroke-linejoin="round"/>
</svg>
