<svg width="320" height="58" viewBox="0 0 320 58" fill="none" xmlns="http://www.w3.org/2000/svg">
<g clip-path="url(#clip0_351_435)">
<path d="M174.453 37.6014C173.545 36.476 172.436 33.6286 171.324 30.1993L168.108 30.5373C166.896 30.6646 165.811 29.7855 165.683 28.5735C165.557 27.3606 166.435 26.2758 167.648 26.1475L170.008 25.9003C169.623 24.5748 169.248 23.2333 168.892 21.9199L166.351 22.1869C165.139 22.3143 164.054 21.4351 163.926 20.2231C163.799 19.0111 164.678 17.9254 165.89 17.798L167.753 17.6014C167.141 15.2132 166.646 13.1791 166.345 11.9187C166.156 11.1328 165.415 10.6111 164.612 10.6957L161.424 11.0308C160.474 11.1306 159.785 11.9813 159.884 12.932L159.976 13.7987C160.088 14.8688 159.092 15.7503 158.056 15.4583C146.644 12.2375 148.36 2.02509 148.36 2.02509C145.936 -0.781068 130.344 13.5674 130.344 13.5674L179.209 53.137C184.391 46.738 177.512 41.405 174.453 37.6014Z" fill="#37281C"/>
<path d="M155.812 21.4112L152.216 16.8536L153.112 13.1552C152.604 12.7888 152.143 12.4058 151.734 12.0079L148.279 13.6656L143.073 11.0957L144.03 16.4242L139.256 20.7829L145.97 20.5408L147.129 27.159L150.4 21.5823L155.812 21.4112Z" fill="#F79200"/>
<path d="M149.606 17.8052C149.222 18.2795 148.527 18.3517 148.054 17.9683C147.58 17.585 147.506 16.8905 147.891 16.4163C148.275 15.942 148.969 15.8698 149.443 16.2532C149.916 16.6365 149.99 17.331 149.606 17.8052Z" fill="#37281C"/>
<path d="M178.489 53.1965C177.109 54.5993 175.362 54.6134 173.83 54.2057C173.002 53.9853 172.261 53.6455 171.725 53.3578C171.458 53.2146 171.244 53.0857 171.098 52.9934C171.026 52.9473 170.97 52.9105 170.933 52.8858C170.915 52.8736 170.902 52.8644 170.893 52.8584L133.295 22.4121C130.162 19.8751 128.829 18.0789 128.272 16.9582C127.995 16.4007 127.912 16.0155 127.891 15.7915C127.888 15.7563 127.886 15.725 127.885 15.6973L130.308 14.1805L178.489 53.1965Z" fill="#FDBD8E" stroke="#37281C"/>
<path d="M163.926 20.2226C163.798 19.0113 164.678 17.9249 165.89 17.7975L169.182 17.4522C170.394 17.3242 171.48 18.204 171.608 19.416C171.735 20.628 170.856 21.7137 169.644 21.8411L166.352 22.1871C165.139 22.3138 164.054 21.4346 163.926 20.2226Z" fill="#FB923C"/>
<path d="M165.683 28.5729C165.556 27.3609 166.435 26.2752 167.647 26.1478L170.94 25.8026C172.151 25.6746 173.237 26.5544 173.365 27.7664C173.493 28.9776 172.613 30.0641 171.401 30.1915L168.109 30.5374C166.896 30.6642 165.811 29.785 165.683 28.5729Z" fill="#FB923C"/>
</g>
<mask id="path-7-outside-1_351_435" maskUnits="userSpaceOnUse" x="2" y="14" width="317" height="37" fill="black">
<rect fill="white" x="2" y="14" width="317" height="37"/>
<path d="M33.1287 41.464C34.3767 41.464 35.2407 40.792 35.7207 39.448C36.2007 38.072 36.4407 35.848 36.4407 32.776L36.5367 21.016C36.5367 19.32 36.9207 18.088 37.6887 17.32C38.4887 16.52 39.8487 16.12 41.7687 16.12C42.9527 16.12 43.8967 16.312 44.6007 16.696C45.3367 17.08 45.9607 17.832 46.4727 18.952C46.9847 20.072 47.3367 21.592 47.5287 23.512C47.7207 25.432 47.8167 27.976 47.8167 31.144C47.8167 33.032 47.6567 34.792 47.3367 36.424C47.0167 38.056 46.5847 39.48 46.0407 40.696C45.4967 41.912 44.8407 43.016 44.0727 44.008C43.3367 44.968 42.5527 45.768 41.7207 46.408C40.8887 47.048 40.0087 47.592 39.0807 48.04C38.1527 48.456 37.2407 48.76 36.3447 48.952C35.4807 49.112 34.6327 49.192 33.8007 49.192C30.9207 49.192 28.3127 48.28 25.9767 46.456C23.6727 48.344 21.0647 49.288 18.1527 49.288C16.9047 49.288 15.6567 49.112 14.4087 48.76C13.1607 48.376 11.8807 47.736 10.5687 46.84C9.28869 45.944 8.15269 44.84 7.16069 43.528C6.16869 42.184 5.35269 40.456 4.71269 38.344C4.10469 36.2 3.80069 33.832 3.80069 31.24C3.80069 27.048 3.99269 23.88 4.37669 21.736C4.79269 19.592 5.40069 18.136 6.20069 17.368C7.03269 16.6 8.23269 16.216 9.80069 16.216C11.1127 16.216 12.1527 16.408 12.9207 16.792C13.6887 17.144 14.2327 17.672 14.5527 18.376C14.8727 19.08 15.0327 19.992 15.0327 21.112L15.0807 32.824C15.0807 35.896 15.3207 38.12 15.8007 39.496C16.2807 40.872 17.2247 41.56 18.6327 41.56C19.3367 41.56 19.8647 41.272 20.2167 40.696C20.5687 40.088 20.8087 39.128 20.9367 37.816C20.5207 35.96 20.3127 33.064 20.3127 29.128C20.3127 26.92 20.3607 25.16 20.4567 23.848C20.5527 22.536 20.6967 21.4 20.8887 20.44C21.0807 19.48 21.4007 18.792 21.8487 18.376C22.2967 17.96 22.7927 17.672 23.3367 17.512C23.9127 17.32 24.6967 17.224 25.6887 17.224C26.2647 17.224 26.7607 17.24 27.1767 17.272C27.6247 17.304 28.0407 17.4 28.4247 17.56C28.8087 17.72 29.1287 17.864 29.3847 17.992C29.6407 18.12 29.8807 18.36 30.1047 18.712C30.3287 19.064 30.5047 19.368 30.6327 19.624C30.7607 19.88 30.8727 20.296 30.9687 20.872C31.0967 21.448 31.1767 21.96 31.2087 22.408C31.2727 22.824 31.3047 23.464 31.3047 24.328C31.3367 25.16 31.3527 25.896 31.3527 26.536C31.3847 27.144 31.4007 28.024 31.4007 29.176C31.4007 33.208 31.1927 36.184 30.7767 38.104C30.9047 39.256 31.1447 40.104 31.4967 40.648C31.8487 41.192 32.3927 41.464 33.1287 41.464ZM65.1814 49.288C61.2774 49.288 58.0454 48.28 55.4854 46.264C52.9574 44.248 51.6934 41.496 51.6934 38.008C51.6934 34.232 52.9414 31.256 55.4374 29.08C57.9654 26.872 61.2134 25.768 65.1814 25.768C68.9254 25.768 71.6614 26.44 73.3894 27.784C75.1494 29.096 76.0294 30.904 76.0294 33.208C76.0294 33.656 75.9654 34.088 75.8374 34.504C75.7414 34.92 75.5654 35.336 75.3094 35.752C75.0854 36.136 74.7654 36.504 74.3494 36.856C73.9654 37.176 73.5174 37.48 73.0054 37.768C72.4934 38.024 71.8854 38.232 71.1814 38.392C70.4774 38.52 69.7254 38.584 68.9254 38.584L62.1574 38.632C62.4774 39.656 63.0534 40.472 63.8854 41.08C64.7174 41.656 65.7734 41.944 67.0534 41.944C68.4294 41.944 69.8374 41.768 71.2774 41.416C71.8854 41.256 72.5414 41 73.2454 40.648C73.9814 40.296 74.5094 40.12 74.8294 40.12C75.3734 40.12 75.7894 40.28 76.0774 40.6C76.3974 40.92 76.5574 41.32 76.5574 41.8C76.5574 42.376 76.3014 43.08 75.7894 43.912C75.2774 44.712 74.5574 45.528 73.6294 46.36C72.7334 47.16 71.5334 47.848 70.0294 48.424C68.5254 49 66.9094 49.288 65.1814 49.288ZM61.9174 35.56C64.1254 35.528 65.3254 35.512 65.5174 35.512C65.9974 35.512 66.3494 35.224 66.5734 34.648C66.7334 34.232 66.8134 33.656 66.8134 32.92C66.8134 30.904 66.2054 29.896 64.9894 29.896C64.5414 29.896 64.0934 30.136 63.6454 30.616C63.2294 31.096 62.8614 31.784 62.5414 32.68C62.2214 33.544 62.0134 34.504 61.9174 35.56ZM89.1203 49.288C86.5923 49.288 84.4963 48.264 82.8323 46.216C81.1683 44.136 80.3363 41.304 80.3363 37.72C80.3363 34.072 81.1523 31.176 82.7843 29.032C84.4483 26.856 86.5603 25.768 89.1203 25.768C91.7123 25.768 94.1123 26.68 96.3203 28.504C97.1843 26.904 98.5763 26.104 100.496 26.104C102.224 26.104 103.568 26.488 104.528 27.256C105.488 27.992 105.968 29.368 105.968 31.384V43.864C105.968 45.784 105.568 47.128 104.768 47.896C103.968 48.632 102.56 49 100.544 49C98.4323 49 97.0403 48.408 96.3683 47.224C94.3203 48.6 91.9043 49.288 89.1203 49.288ZM95.6483 33.112C95.1043 32.184 94.4003 31.72 93.5363 31.72C92.7043 31.72 92.0323 32.328 91.5203 33.544C91.0083 34.76 90.7523 36.152 90.7523 37.72C90.7523 39.192 90.9923 40.504 91.4723 41.656C91.9523 42.808 92.6243 43.384 93.4883 43.384C94.3843 43.384 95.1043 42.952 95.6483 42.088V33.112ZM120.801 43.864C120.801 45.784 120.401 47.128 119.601 47.896C118.801 48.632 117.377 49 115.329 49C113.441 49 112.161 48.568 111.489 47.704C110.817 46.808 110.481 45.352 110.481 43.336V31.528C110.481 30.44 110.673 29.496 111.057 28.696C111.441 27.864 112.001 27.224 112.737 26.776C113.473 26.328 114.337 26.104 115.329 26.104C117.761 26.104 119.361 26.808 120.129 28.216C121.985 26.808 123.777 26.104 125.505 26.104C128.865 26.104 130.545 27.704 130.545 30.904C130.545 32.184 130.177 33.224 129.441 34.024C128.705 34.824 127.745 35.224 126.561 35.224C125.857 35.224 125.281 35.08 124.833 34.792C124.417 34.504 124.017 34.216 123.633 33.928C123.281 33.64 122.865 33.496 122.385 33.496C121.681 33.496 121.153 33.736 120.801 34.216V43.864ZM199.08 15.784C202.888 15.784 206.136 16.568 208.824 18.136C211.512 19.704 212.856 21.368 212.856 23.128C212.856 23.608 212.744 24.024 212.52 24.376C212.328 24.696 212.072 24.936 211.752 25.096C211.464 25.224 211.144 25.288 210.792 25.288C210.216 25.288 209.352 25 208.2 24.424C207.048 23.816 205.768 23.224 204.36 22.648C202.952 22.04 201.656 21.736 200.472 21.736C198.584 21.736 197.64 22.504 197.64 24.04C197.64 24.52 197.784 24.984 198.072 25.432C198.392 25.848 198.888 26.296 199.56 26.776C200.232 27.224 200.888 27.624 201.528 27.976C202.168 28.328 203.048 28.808 204.168 29.416C205.288 29.992 206.232 30.504 207 30.952C209.464 32.36 211.192 33.704 212.184 34.984C213.176 36.264 213.672 37.736 213.672 39.4C213.672 46.024 209.208 49.336 200.28 49.336C198.52 49.336 196.808 49.16 195.144 48.808C193.512 48.456 192.072 47.992 190.824 47.416C189.608 46.84 188.52 46.2 187.56 45.496C186.632 44.792 185.928 44.072 185.448 43.336C184.968 42.6 184.728 41.912 184.728 41.272C184.728 40.568 184.952 39.976 185.4 39.496C185.88 38.984 186.568 38.728 187.464 38.728C188.136 38.728 189.752 39.16 192.312 40.024C194.872 40.856 196.936 41.272 198.504 41.272C199.944 41.272 200.664 40.776 200.664 39.784C200.664 39.496 200.6 39.24 200.472 39.016C200.376 38.76 200.184 38.52 199.896 38.296C199.64 38.04 199.336 37.816 198.984 37.624C198.664 37.4 198.2 37.128 197.592 36.808C197.016 36.488 196.424 36.168 195.816 35.848C195.24 35.528 194.472 35.112 193.512 34.6C192.552 34.088 191.624 33.576 190.728 33.064C189.544 32.392 188.52 31.56 187.656 30.568C186.824 29.576 186.216 28.6 185.832 27.64C185.448 26.648 185.256 25.736 185.256 24.904C185.256 22.216 186.456 20.024 188.856 18.328C191.256 16.632 194.664 15.784 199.08 15.784ZM219.663 38.728V33.064C218.863 33.032 218.223 32.904 217.743 32.68C217.263 32.424 216.911 32.104 216.687 31.72C216.495 31.336 216.399 30.856 216.399 30.28C216.399 28.456 217.503 27.464 219.711 27.304V22.84C219.711 21.624 220.591 20.536 222.351 19.576C224.111 18.584 225.855 18.088 227.583 18.088C228.639 18.088 229.327 18.392 229.647 19C229.967 19.608 230.127 20.52 230.127 21.736L230.175 27.256H231.471C233.231 27.256 234.431 27.496 235.071 27.976C235.743 28.424 236.079 29.256 236.079 30.472C236.079 30.984 235.983 31.416 235.791 31.768C235.599 32.12 235.279 32.392 234.831 32.584C234.415 32.776 233.903 32.92 233.295 33.016C232.687 33.08 231.935 33.112 231.039 33.112H230.175V38.392C230.175 38.904 230.191 39.336 230.223 39.688C230.287 40.008 230.367 40.264 230.463 40.456C230.559 40.648 230.687 40.776 230.847 40.84C231.039 40.904 231.263 40.936 231.519 40.936C231.903 40.936 232.223 40.808 232.479 40.552C232.735 40.264 232.927 39.96 233.055 39.64C233.215 39.288 233.407 38.984 233.631 38.728C233.887 38.44 234.175 38.296 234.495 38.296C235.231 38.296 235.791 38.472 236.175 38.824C236.591 39.176 236.799 39.608 236.799 40.12C236.799 40.984 236.623 41.912 236.271 42.904C235.951 43.896 235.471 44.856 234.831 45.784C234.191 46.712 233.295 47.48 232.143 48.088C231.023 48.696 229.759 49 228.351 49C225.183 49 222.943 48.2 221.631 46.6C220.319 45 219.663 42.376 219.663 38.728ZM255.876 37.624C255.876 35.96 255.668 34.504 255.252 33.256C254.836 31.976 254.228 31.336 253.428 31.336C252.884 31.336 252.404 31.656 251.988 32.296C251.572 32.936 251.268 33.72 251.076 34.648C250.884 35.576 250.788 36.568 250.788 37.624C250.788 39.256 251.012 40.696 251.46 41.944C251.908 43.16 252.548 43.768 253.38 43.768C254.212 43.768 254.836 43.16 255.252 41.944C255.668 40.728 255.876 39.288 255.876 37.624ZM253.38 49.336C250.884 49.336 248.628 48.888 246.612 47.992C244.628 47.096 243.028 45.752 241.812 43.96C240.628 42.168 240.036 40.072 240.036 37.672C240.036 34.024 241.284 31.128 243.78 28.984C246.276 26.84 249.476 25.768 253.38 25.768C257.284 25.768 260.468 26.84 262.932 28.984C265.396 31.128 266.628 34.024 266.628 37.672C266.628 41.288 265.364 44.136 262.836 46.216C260.34 48.296 257.188 49.336 253.38 49.336ZM280.973 43.864C280.973 45.784 280.573 47.128 279.773 47.896C278.973 48.632 277.549 49 275.501 49C273.613 49 272.333 48.568 271.661 47.704C270.989 46.808 270.653 45.352 270.653 43.336V31.528C270.653 30.44 270.845 29.496 271.229 28.696C271.613 27.864 272.173 27.224 272.909 26.776C273.645 26.328 274.509 26.104 275.501 26.104C277.933 26.104 279.533 26.808 280.301 28.216C282.157 26.808 283.949 26.104 285.677 26.104C289.037 26.104 290.717 27.704 290.717 30.904C290.717 32.184 290.349 33.224 289.613 34.024C288.877 34.824 287.917 35.224 286.733 35.224C286.029 35.224 285.453 35.08 285.005 34.792C284.589 34.504 284.189 34.216 283.805 33.928C283.453 33.64 283.037 33.496 282.557 33.496C281.853 33.496 281.325 33.736 280.973 34.216V43.864ZM305.556 49.288C301.652 49.288 298.42 48.28 295.86 46.264C293.332 44.248 292.068 41.496 292.068 38.008C292.068 34.232 293.316 31.256 295.812 29.08C298.34 26.872 301.588 25.768 305.556 25.768C309.3 25.768 312.036 26.44 313.764 27.784C315.524 29.096 316.404 30.904 316.404 33.208C316.404 33.656 316.34 34.088 316.212 34.504C316.116 34.92 315.94 35.336 315.684 35.752C315.46 36.136 315.14 36.504 314.724 36.856C314.34 37.176 313.892 37.48 313.38 37.768C312.868 38.024 312.26 38.232 311.556 38.392C310.852 38.52 310.1 38.584 309.3 38.584L302.532 38.632C302.852 39.656 303.428 40.472 304.26 41.08C305.092 41.656 306.148 41.944 307.428 41.944C308.804 41.944 310.212 41.768 311.652 41.416C312.26 41.256 312.916 41 313.62 40.648C314.356 40.296 314.884 40.12 315.204 40.12C315.748 40.12 316.164 40.28 316.452 40.6C316.772 40.92 316.932 41.32 316.932 41.8C316.932 42.376 316.676 43.08 316.164 43.912C315.652 44.712 314.932 45.528 314.004 46.36C313.108 47.16 311.908 47.848 310.404 48.424C308.9 49 307.284 49.288 305.556 49.288ZM302.292 35.56C304.5 35.528 305.7 35.512 305.892 35.512C306.372 35.512 306.724 35.224 306.948 34.648C307.108 34.232 307.188 33.656 307.188 32.92C307.188 30.904 306.58 29.896 305.364 29.896C304.916 29.896 304.468 30.136 304.02 30.616C303.604 31.096 303.236 31.784 302.916 32.68C302.596 33.544 302.388 34.504 302.292 35.56Z"/>
</mask>
<path d="M33.1287 41.464C34.3767 41.464 35.2407 40.792 35.7207 39.448C36.2007 38.072 36.4407 35.848 36.4407 32.776L36.5367 21.016C36.5367 19.32 36.9207 18.088 37.6887 17.32C38.4887 16.52 39.8487 16.12 41.7687 16.12C42.9527 16.12 43.8967 16.312 44.6007 16.696C45.3367 17.08 45.9607 17.832 46.4727 18.952C46.9847 20.072 47.3367 21.592 47.5287 23.512C47.7207 25.432 47.8167 27.976 47.8167 31.144C47.8167 33.032 47.6567 34.792 47.3367 36.424C47.0167 38.056 46.5847 39.48 46.0407 40.696C45.4967 41.912 44.8407 43.016 44.0727 44.008C43.3367 44.968 42.5527 45.768 41.7207 46.408C40.8887 47.048 40.0087 47.592 39.0807 48.04C38.1527 48.456 37.2407 48.76 36.3447 48.952C35.4807 49.112 34.6327 49.192 33.8007 49.192C30.9207 49.192 28.3127 48.28 25.9767 46.456C23.6727 48.344 21.0647 49.288 18.1527 49.288C16.9047 49.288 15.6567 49.112 14.4087 48.76C13.1607 48.376 11.8807 47.736 10.5687 46.84C9.28869 45.944 8.15269 44.84 7.16069 43.528C6.16869 42.184 5.35269 40.456 4.71269 38.344C4.10469 36.2 3.80069 33.832 3.80069 31.24C3.80069 27.048 3.99269 23.88 4.37669 21.736C4.79269 19.592 5.40069 18.136 6.20069 17.368C7.03269 16.6 8.23269 16.216 9.80069 16.216C11.1127 16.216 12.1527 16.408 12.9207 16.792C13.6887 17.144 14.2327 17.672 14.5527 18.376C14.8727 19.08 15.0327 19.992 15.0327 21.112L15.0807 32.824C15.0807 35.896 15.3207 38.12 15.8007 39.496C16.2807 40.872 17.2247 41.56 18.6327 41.56C19.3367 41.56 19.8647 41.272 20.2167 40.696C20.5687 40.088 20.8087 39.128 20.9367 37.816C20.5207 35.96 20.3127 33.064 20.3127 29.128C20.3127 26.92 20.3607 25.16 20.4567 23.848C20.5527 22.536 20.6967 21.4 20.8887 20.44C21.0807 19.48 21.4007 18.792 21.8487 18.376C22.2967 17.96 22.7927 17.672 23.3367 17.512C23.9127 17.32 24.6967 17.224 25.6887 17.224C26.2647 17.224 26.7607 17.24 27.1767 17.272C27.6247 17.304 28.0407 17.4 28.4247 17.56C28.8087 17.72 29.1287 17.864 29.3847 17.992C29.6407 18.12 29.8807 18.36 30.1047 18.712C30.3287 19.064 30.5047 19.368 30.6327 19.624C30.7607 19.88 30.8727 20.296 30.9687 20.872C31.0967 21.448 31.1767 21.96 31.2087 22.408C31.2727 22.824 31.3047 23.464 31.3047 24.328C31.3367 25.16 31.3527 25.896 31.3527 26.536C31.3847 27.144 31.4007 28.024 31.4007 29.176C31.4007 33.208 31.1927 36.184 30.7767 38.104C30.9047 39.256 31.1447 40.104 31.4967 40.648C31.8487 41.192 32.3927 41.464 33.1287 41.464ZM65.1814 49.288C61.2774 49.288 58.0454 48.28 55.4854 46.264C52.9574 44.248 51.6934 41.496 51.6934 38.008C51.6934 34.232 52.9414 31.256 55.4374 29.08C57.9654 26.872 61.2134 25.768 65.1814 25.768C68.9254 25.768 71.6614 26.44 73.3894 27.784C75.1494 29.096 76.0294 30.904 76.0294 33.208C76.0294 33.656 75.9654 34.088 75.8374 34.504C75.7414 34.92 75.5654 35.336 75.3094 35.752C75.0854 36.136 74.7654 36.504 74.3494 36.856C73.9654 37.176 73.5174 37.48 73.0054 37.768C72.4934 38.024 71.8854 38.232 71.1814 38.392C70.4774 38.52 69.7254 38.584 68.9254 38.584L62.1574 38.632C62.4774 39.656 63.0534 40.472 63.8854 41.08C64.7174 41.656 65.7734 41.944 67.0534 41.944C68.4294 41.944 69.8374 41.768 71.2774 41.416C71.8854 41.256 72.5414 41 73.2454 40.648C73.9814 40.296 74.5094 40.12 74.8294 40.12C75.3734 40.12 75.7894 40.28 76.0774 40.6C76.3974 40.92 76.5574 41.32 76.5574 41.8C76.5574 42.376 76.3014 43.08 75.7894 43.912C75.2774 44.712 74.5574 45.528 73.6294 46.36C72.7334 47.16 71.5334 47.848 70.0294 48.424C68.5254 49 66.9094 49.288 65.1814 49.288ZM61.9174 35.56C64.1254 35.528 65.3254 35.512 65.5174 35.512C65.9974 35.512 66.3494 35.224 66.5734 34.648C66.7334 34.232 66.8134 33.656 66.8134 32.92C66.8134 30.904 66.2054 29.896 64.9894 29.896C64.5414 29.896 64.0934 30.136 63.6454 30.616C63.2294 31.096 62.8614 31.784 62.5414 32.68C62.2214 33.544 62.0134 34.504 61.9174 35.56ZM89.1203 49.288C86.5923 49.288 84.4963 48.264 82.8323 46.216C81.1683 44.136 80.3363 41.304 80.3363 37.72C80.3363 34.072 81.1523 31.176 82.7843 29.032C84.4483 26.856 86.5603 25.768 89.1203 25.768C91.7123 25.768 94.1123 26.68 96.3203 28.504C97.1843 26.904 98.5763 26.104 100.496 26.104C102.224 26.104 103.568 26.488 104.528 27.256C105.488 27.992 105.968 29.368 105.968 31.384V43.864C105.968 45.784 105.568 47.128 104.768 47.896C103.968 48.632 102.56 49 100.544 49C98.4323 49 97.0403 48.408 96.3683 47.224C94.3203 48.6 91.9043 49.288 89.1203 49.288ZM95.6483 33.112C95.1043 32.184 94.4003 31.72 93.5363 31.72C92.7043 31.72 92.0323 32.328 91.5203 33.544C91.0083 34.76 90.7523 36.152 90.7523 37.72C90.7523 39.192 90.9923 40.504 91.4723 41.656C91.9523 42.808 92.6243 43.384 93.4883 43.384C94.3843 43.384 95.1043 42.952 95.6483 42.088V33.112ZM120.801 43.864C120.801 45.784 120.401 47.128 119.601 47.896C118.801 48.632 117.377 49 115.329 49C113.441 49 112.161 48.568 111.489 47.704C110.817 46.808 110.481 45.352 110.481 43.336V31.528C110.481 30.44 110.673 29.496 111.057 28.696C111.441 27.864 112.001 27.224 112.737 26.776C113.473 26.328 114.337 26.104 115.329 26.104C117.761 26.104 119.361 26.808 120.129 28.216C121.985 26.808 123.777 26.104 125.505 26.104C128.865 26.104 130.545 27.704 130.545 30.904C130.545 32.184 130.177 33.224 129.441 34.024C128.705 34.824 127.745 35.224 126.561 35.224C125.857 35.224 125.281 35.08 124.833 34.792C124.417 34.504 124.017 34.216 123.633 33.928C123.281 33.64 122.865 33.496 122.385 33.496C121.681 33.496 121.153 33.736 120.801 34.216V43.864ZM199.08 15.784C202.888 15.784 206.136 16.568 208.824 18.136C211.512 19.704 212.856 21.368 212.856 23.128C212.856 23.608 212.744 24.024 212.52 24.376C212.328 24.696 212.072 24.936 211.752 25.096C211.464 25.224 211.144 25.288 210.792 25.288C210.216 25.288 209.352 25 208.2 24.424C207.048 23.816 205.768 23.224 204.36 22.648C202.952 22.04 201.656 21.736 200.472 21.736C198.584 21.736 197.64 22.504 197.64 24.04C197.64 24.52 197.784 24.984 198.072 25.432C198.392 25.848 198.888 26.296 199.56 26.776C200.232 27.224 200.888 27.624 201.528 27.976C202.168 28.328 203.048 28.808 204.168 29.416C205.288 29.992 206.232 30.504 207 30.952C209.464 32.36 211.192 33.704 212.184 34.984C213.176 36.264 213.672 37.736 213.672 39.4C213.672 46.024 209.208 49.336 200.28 49.336C198.52 49.336 196.808 49.16 195.144 48.808C193.512 48.456 192.072 47.992 190.824 47.416C189.608 46.84 188.52 46.2 187.56 45.496C186.632 44.792 185.928 44.072 185.448 43.336C184.968 42.6 184.728 41.912 184.728 41.272C184.728 40.568 184.952 39.976 185.4 39.496C185.88 38.984 186.568 38.728 187.464 38.728C188.136 38.728 189.752 39.16 192.312 40.024C194.872 40.856 196.936 41.272 198.504 41.272C199.944 41.272 200.664 40.776 200.664 39.784C200.664 39.496 200.6 39.24 200.472 39.016C200.376 38.76 200.184 38.52 199.896 38.296C199.64 38.04 199.336 37.816 198.984 37.624C198.664 37.4 198.2 37.128 197.592 36.808C197.016 36.488 196.424 36.168 195.816 35.848C195.24 35.528 194.472 35.112 193.512 34.6C192.552 34.088 191.624 33.576 190.728 33.064C189.544 32.392 188.52 31.56 187.656 30.568C186.824 29.576 186.216 28.6 185.832 27.64C185.448 26.648 185.256 25.736 185.256 24.904C185.256 22.216 186.456 20.024 188.856 18.328C191.256 16.632 194.664 15.784 199.08 15.784ZM219.663 38.728V33.064C218.863 33.032 218.223 32.904 217.743 32.68C217.263 32.424 216.911 32.104 216.687 31.72C216.495 31.336 216.399 30.856 216.399 30.28C216.399 28.456 217.503 27.464 219.711 27.304V22.84C219.711 21.624 220.591 20.536 222.351 19.576C224.111 18.584 225.855 18.088 227.583 18.088C228.639 18.088 229.327 18.392 229.647 19C229.967 19.608 230.127 20.52 230.127 21.736L230.175 27.256H231.471C233.231 27.256 234.431 27.496 235.071 27.976C235.743 28.424 236.079 29.256 236.079 30.472C236.079 30.984 235.983 31.416 235.791 31.768C235.599 32.12 235.279 32.392 234.831 32.584C234.415 32.776 233.903 32.92 233.295 33.016C232.687 33.08 231.935 33.112 231.039 33.112H230.175V38.392C230.175 38.904 230.191 39.336 230.223 39.688C230.287 40.008 230.367 40.264 230.463 40.456C230.559 40.648 230.687 40.776 230.847 40.84C231.039 40.904 231.263 40.936 231.519 40.936C231.903 40.936 232.223 40.808 232.479 40.552C232.735 40.264 232.927 39.96 233.055 39.64C233.215 39.288 233.407 38.984 233.631 38.728C233.887 38.44 234.175 38.296 234.495 38.296C235.231 38.296 235.791 38.472 236.175 38.824C236.591 39.176 236.799 39.608 236.799 40.12C236.799 40.984 236.623 41.912 236.271 42.904C235.951 43.896 235.471 44.856 234.831 45.784C234.191 46.712 233.295 47.48 232.143 48.088C231.023 48.696 229.759 49 228.351 49C225.183 49 222.943 48.2 221.631 46.6C220.319 45 219.663 42.376 219.663 38.728ZM255.876 37.624C255.876 35.96 255.668 34.504 255.252 33.256C254.836 31.976 254.228 31.336 253.428 31.336C252.884 31.336 252.404 31.656 251.988 32.296C251.572 32.936 251.268 33.72 251.076 34.648C250.884 35.576 250.788 36.568 250.788 37.624C250.788 39.256 251.012 40.696 251.46 41.944C251.908 43.16 252.548 43.768 253.38 43.768C254.212 43.768 254.836 43.16 255.252 41.944C255.668 40.728 255.876 39.288 255.876 37.624ZM253.38 49.336C250.884 49.336 248.628 48.888 246.612 47.992C244.628 47.096 243.028 45.752 241.812 43.96C240.628 42.168 240.036 40.072 240.036 37.672C240.036 34.024 241.284 31.128 243.78 28.984C246.276 26.84 249.476 25.768 253.38 25.768C257.284 25.768 260.468 26.84 262.932 28.984C265.396 31.128 266.628 34.024 266.628 37.672C266.628 41.288 265.364 44.136 262.836 46.216C260.34 48.296 257.188 49.336 253.38 49.336ZM280.973 43.864C280.973 45.784 280.573 47.128 279.773 47.896C278.973 48.632 277.549 49 275.501 49C273.613 49 272.333 48.568 271.661 47.704C270.989 46.808 270.653 45.352 270.653 43.336V31.528C270.653 30.44 270.845 29.496 271.229 28.696C271.613 27.864 272.173 27.224 272.909 26.776C273.645 26.328 274.509 26.104 275.501 26.104C277.933 26.104 279.533 26.808 280.301 28.216C282.157 26.808 283.949 26.104 285.677 26.104C289.037 26.104 290.717 27.704 290.717 30.904C290.717 32.184 290.349 33.224 289.613 34.024C288.877 34.824 287.917 35.224 286.733 35.224C286.029 35.224 285.453 35.08 285.005 34.792C284.589 34.504 284.189 34.216 283.805 33.928C283.453 33.64 283.037 33.496 282.557 33.496C281.853 33.496 281.325 33.736 280.973 34.216V43.864ZM305.556 49.288C301.652 49.288 298.42 48.28 295.86 46.264C293.332 44.248 292.068 41.496 292.068 38.008C292.068 34.232 293.316 31.256 295.812 29.08C298.34 26.872 301.588 25.768 305.556 25.768C309.3 25.768 312.036 26.44 313.764 27.784C315.524 29.096 316.404 30.904 316.404 33.208C316.404 33.656 316.34 34.088 316.212 34.504C316.116 34.92 315.94 35.336 315.684 35.752C315.46 36.136 315.14 36.504 314.724 36.856C314.34 37.176 313.892 37.48 313.38 37.768C312.868 38.024 312.26 38.232 311.556 38.392C310.852 38.52 310.1 38.584 309.3 38.584L302.532 38.632C302.852 39.656 303.428 40.472 304.26 41.08C305.092 41.656 306.148 41.944 307.428 41.944C308.804 41.944 310.212 41.768 311.652 41.416C312.26 41.256 312.916 41 313.62 40.648C314.356 40.296 314.884 40.12 315.204 40.12C315.748 40.12 316.164 40.28 316.452 40.6C316.772 40.92 316.932 41.32 316.932 41.8C316.932 42.376 316.676 43.08 316.164 43.912C315.652 44.712 314.932 45.528 314.004 46.36C313.108 47.16 311.908 47.848 310.404 48.424C308.9 49 307.284 49.288 305.556 49.288ZM302.292 35.56C304.5 35.528 305.7 35.512 305.892 35.512C306.372 35.512 306.724 35.224 306.948 34.648C307.108 34.232 307.188 33.656 307.188 32.92C307.188 30.904 306.58 29.896 305.364 29.896C304.916 29.896 304.468 30.136 304.02 30.616C303.604 31.096 303.236 31.784 302.916 32.68C302.596 33.544 302.388 34.504 302.292 35.56Z" fill="#FB923C"/>
<path d="M35.7207 39.448L37.1333 39.9525L37.137 39.9421L35.7207 39.448ZM36.4407 32.776L34.9407 32.7638V32.776H36.4407ZM36.5367 21.016L38.0367 21.0282V21.016H36.5367ZM44.6007 16.696L43.8824 18.0128L43.8946 18.0195L43.9068 18.0259L44.6007 16.696ZM46.4727 18.952L47.8369 18.3284L47.8369 18.3284L46.4727 18.952ZM47.5287 23.512L49.0212 23.3627L49.0212 23.3627L47.5287 23.512ZM47.3367 36.424L45.8647 36.1354L45.8647 36.1354L47.3367 36.424ZM44.0727 44.008L42.8866 43.0897L42.8823 43.0954L44.0727 44.008ZM41.7207 46.408L42.6353 47.5969L42.6353 47.5969L41.7207 46.408ZM39.0807 48.04L39.6943 49.4088L39.7137 49.4001L39.7328 49.3908L39.0807 48.04ZM36.3447 48.952L36.6178 50.4269L36.6385 50.4231L36.659 50.4187L36.3447 48.952ZM25.9767 46.456L26.8998 45.2737L25.9541 44.5352L25.026 45.2958L25.9767 46.456ZM14.4087 48.76L13.9676 50.1937L13.9845 50.1989L14.0015 50.2037L14.4087 48.76ZM10.5687 46.84L9.70849 48.0688L9.71559 48.0738L9.72275 48.0787L10.5687 46.84ZM7.16069 43.528L5.95383 44.4188L5.95897 44.4258L5.9642 44.4327L7.16069 43.528ZM4.71269 38.344L3.26959 38.7532L3.27326 38.7662L3.27715 38.779L4.71269 38.344ZM4.37669 21.736L2.90415 21.4503L2.90209 21.4609L2.90018 21.4716L4.37669 21.736ZM6.20069 17.368L5.18327 16.2658L5.17248 16.2758L5.16189 16.2859L6.20069 17.368ZM12.9207 16.792L12.2499 18.1336L12.2726 18.145L12.2957 18.1556L12.9207 16.792ZM14.5527 18.376L15.9182 17.7553L15.9182 17.7553L14.5527 18.376ZM15.0327 21.112L13.5327 21.112L13.5327 21.1181L15.0327 21.112ZM15.0807 32.824L16.5807 32.824L16.5807 32.8179L15.0807 32.824ZM15.8007 39.496L17.217 39.0019L17.217 39.0019L15.8007 39.496ZM20.2167 40.696L21.4966 41.4782L21.5059 41.463L21.5148 41.4476L20.2167 40.696ZM20.9367 37.816L22.4296 37.9616L22.4529 37.7224L22.4004 37.4879L20.9367 37.816ZM20.4567 23.848L18.9607 23.7385L18.9607 23.7385L20.4567 23.848ZM20.8887 20.44L19.4178 20.1458L19.4178 20.1458L20.8887 20.44ZM23.3367 17.512L23.7599 18.951L23.7856 18.9435L23.811 18.935L23.3367 17.512ZM27.1767 17.272L27.0616 18.7676L27.0698 18.7682L27.1767 17.272ZM28.4247 17.56L27.8478 18.9446L27.8478 18.9446L28.4247 17.56ZM30.1047 18.712L28.8392 19.5173L28.8392 19.5173L30.1047 18.712ZM30.6327 19.624L29.291 20.2948L29.291 20.2948L30.6327 19.624ZM30.9687 20.872L29.4891 21.1186L29.4957 21.1582L29.5044 21.1974L30.9687 20.872ZM31.2087 22.408L29.7125 22.5149L29.7168 22.5758L29.7261 22.6361L31.2087 22.408ZM31.3047 24.328H29.8047V24.3568L29.8058 24.3857L31.3047 24.328ZM31.3527 26.536H29.8527V26.5754L29.8548 26.6148L31.3527 26.536ZM30.7767 38.104L29.3107 37.7864L29.2588 38.026L29.2859 38.2696L30.7767 38.104ZM31.4967 40.648L30.2373 41.4629L30.2373 41.4629L31.4967 40.648ZM33.1287 42.964C34.0372 42.964 34.902 42.713 35.6336 42.144C36.3497 41.587 36.826 40.8129 37.1333 39.9525L34.3081 38.9435C34.1354 39.4271 33.9397 39.661 33.7918 39.776C33.6593 39.879 33.4682 39.964 33.1287 39.964V42.964ZM37.137 39.9421C37.7055 38.3123 37.9407 35.8721 37.9407 32.776H34.9407C34.9407 35.8239 34.6959 37.8317 34.3044 38.9539L37.137 39.9421ZM37.9406 32.7882L38.0366 21.0282L35.0367 21.0038L34.9407 32.7638L37.9406 32.7882ZM38.0367 21.016C38.0367 19.5006 38.3859 18.7441 38.7493 18.3807L36.628 16.2593C35.4554 17.4319 35.0367 19.1393 35.0367 21.016H38.0367ZM38.7493 18.3807C39.1261 18.0039 39.9864 17.62 41.7687 17.62V14.62C39.711 14.62 37.8513 15.0361 36.628 16.2593L38.7493 18.3807ZM41.7687 17.62C42.8126 17.62 43.479 17.7928 43.8824 18.0128L45.319 15.3792C44.3144 14.8312 43.0928 14.62 41.7687 14.62V17.62ZM43.9068 18.0259C44.2343 18.1967 44.6709 18.6184 45.1085 19.5756L47.8369 18.3284C47.2505 17.0456 46.4391 15.9633 45.2945 15.3661L43.9068 18.0259ZM45.1085 19.5756C45.5244 20.4855 45.8523 21.8233 46.0361 23.6613L49.0212 23.3627C48.821 21.3607 48.445 19.6585 47.8369 18.3284L45.1085 19.5756ZM46.0361 23.6613C46.2211 25.5104 46.3167 27.9986 46.3167 31.144H49.3167C49.3167 27.9534 49.2203 25.3536 49.0212 23.3627L46.0361 23.6613ZM46.3167 31.144C46.3167 32.9479 46.1638 34.6102 45.8647 36.1354L48.8087 36.7126C49.1496 34.9738 49.3167 33.1161 49.3167 31.144H46.3167ZM45.8647 36.1354C45.5614 37.6821 45.1593 38.9931 44.6715 40.0834L47.4099 41.3085C48.0101 39.9669 48.4719 38.4299 48.8087 36.7126L45.8647 36.1354ZM44.6715 40.0834C44.1731 41.1973 43.5773 42.1976 42.8866 43.0897L45.2588 44.9263C46.1041 43.8344 46.8202 42.6267 47.4099 41.3085L44.6715 40.0834ZM42.8823 43.0954C42.214 43.967 41.5202 44.6698 40.8061 45.2191L42.6353 47.5969C43.5852 46.8662 44.4594 45.969 45.2631 44.9206L42.8823 43.0954ZM40.8061 45.2191C40.0543 45.7974 39.262 46.2868 38.4286 46.6892L39.7328 49.3908C40.7553 48.8972 41.7231 48.2986 42.6353 47.5969L40.8061 45.2191ZM38.4671 46.6712C37.6248 47.0488 36.8129 47.3176 36.0304 47.4853L36.659 50.4187C37.6684 50.2024 38.6806 49.8632 39.6943 49.4088L38.4671 46.6712ZM36.0716 47.4771C35.2926 47.6213 34.5361 47.692 33.8007 47.692V50.692C34.7293 50.692 35.6688 50.6027 36.6178 50.4269L36.0716 47.4771ZM33.8007 47.692C31.2656 47.692 28.9804 46.8983 26.8998 45.2737L25.0535 47.6383C27.6449 49.6617 30.5758 50.692 33.8007 50.692V47.692ZM25.026 45.2958C22.9834 46.9695 20.7095 47.788 18.1527 47.788V50.788C21.4199 50.788 24.362 49.7185 26.9274 47.6162L25.026 45.2958ZM18.1527 47.788C17.0477 47.788 15.9366 47.6324 14.8159 47.3163L14.0015 50.2037C15.3768 50.5916 16.7617 50.788 18.1527 50.788V47.788ZM14.8498 47.3263C13.773 46.995 12.6282 46.4301 11.4146 45.6013L9.72275 48.0787C11.1332 49.0419 12.5484 49.757 13.9676 50.1937L14.8498 47.3263ZM11.4289 45.6112C10.2838 44.8096 9.2597 43.817 8.35718 42.6233L5.9642 44.4327C7.04567 45.863 8.29353 47.0784 9.70849 48.0688L11.4289 45.6112ZM8.36755 42.6372C7.50399 41.4672 6.75358 39.9067 6.14822 37.909L3.27715 38.779C3.95179 41.0053 4.83339 42.9008 5.95383 44.4188L8.36755 42.6372ZM6.15578 37.9348C5.5911 35.9435 5.30069 33.7156 5.30069 31.24H2.30069C2.30069 33.9484 2.61828 36.4565 3.26959 38.7532L6.15578 37.9348ZM5.30069 31.24C5.30069 27.0714 5.49319 24.0104 5.85319 22.0004L2.90018 21.4716C2.49218 23.7496 2.30069 27.0246 2.30069 31.24H5.30069ZM5.84923 22.0217C6.25412 19.9349 6.79325 18.8785 7.23949 18.4501L5.16189 16.2859C4.00813 17.3935 3.33125 19.2491 2.90415 21.4503L5.84923 22.0217ZM7.21811 18.4702C7.68168 18.0423 8.46366 17.716 9.80069 17.716V14.716C8.00171 14.716 6.3837 15.1577 5.18327 16.2658L7.21811 18.4702ZM9.80069 17.716C10.9916 17.716 11.7712 17.8943 12.2499 18.1336L13.5915 15.4504C12.5342 14.9217 11.2338 14.716 9.80069 14.716V17.716ZM12.2957 18.1556C12.7682 18.3722 13.0308 18.6527 13.1871 18.9967L15.9182 17.7553C15.4346 16.6913 14.6092 15.9158 13.5457 15.4284L12.2957 18.1556ZM13.1871 18.9967C13.388 19.4387 13.5327 20.1176 13.5327 21.112H16.5327C16.5327 19.8664 16.3573 18.7213 15.9182 17.7553L13.1871 18.9967ZM13.5327 21.1181L13.5807 32.8301L16.5807 32.8179L16.5327 21.1059L13.5327 21.1181ZM13.5807 32.824C13.5807 35.9201 13.8159 38.3603 14.3844 39.9901L17.217 39.0019C16.8255 37.8797 16.5807 35.8719 16.5807 32.824H13.5807ZM14.3844 39.9901C14.6998 40.8943 15.2117 41.6925 15.9852 42.2562C16.763 42.823 17.6779 43.06 18.6327 43.06V40.06C18.1795 40.06 17.9184 39.953 17.7522 39.8318C17.5817 39.7075 17.3816 39.4737 17.217 39.0019L14.3844 39.9901ZM18.6327 43.06C19.832 43.06 20.8582 42.5229 21.4966 41.4782L18.9368 39.9138C18.8807 40.0055 18.8443 40.0239 18.8384 40.0272C18.8296 40.032 18.7767 40.06 18.6327 40.06V43.06ZM21.5148 41.4476C22.0317 40.5547 22.2959 39.3323 22.4296 37.9616L19.4438 37.6704C19.3215 38.9237 19.1057 39.6213 18.9185 39.9444L21.5148 41.4476ZM22.4004 37.4879C22.0225 35.8021 21.8127 33.0447 21.8127 29.128H18.8127C18.8127 33.0833 19.0189 36.1179 19.473 38.1441L22.4004 37.4879ZM21.8127 29.128C21.8127 26.9357 21.8605 25.2169 21.9527 23.9575L18.9607 23.7385C18.8608 25.1031 18.8127 26.9043 18.8127 29.128H21.8127ZM21.9527 23.9575C22.0456 22.6879 22.1831 21.6166 22.3596 20.7342L19.4178 20.1458C19.2103 21.1834 19.0598 22.3841 18.9607 23.7385L21.9527 23.9575ZM22.3596 20.7342C22.524 19.9119 22.7537 19.5826 22.8694 19.4752L20.828 17.2768C20.0476 18.0014 19.6374 19.0481 19.4178 20.1458L22.3596 20.7342ZM22.8694 19.4752C23.1608 19.2046 23.4558 19.0405 23.7599 18.951L22.9134 16.073C22.1296 16.3035 21.4326 16.7154 20.828 17.2768L22.8694 19.4752ZM23.811 18.935C24.1681 18.816 24.7693 18.724 25.6887 18.724V15.724C24.624 15.724 23.6573 15.824 22.8623 16.089L23.811 18.935ZM25.6887 18.724C26.2396 18.724 26.6952 18.7394 27.0616 18.7676L27.2917 15.7764C26.8262 15.7406 26.2898 15.724 25.6887 15.724V18.724ZM27.0698 18.7682C27.369 18.7896 27.6249 18.8517 27.8478 18.9446L29.0016 16.1754C28.4565 15.9483 27.8804 15.8184 27.2836 15.7758L27.0698 18.7682ZM27.8478 18.9446C28.2128 19.0967 28.499 19.2262 28.7139 19.3336L30.0555 16.6504C29.7584 16.5018 29.4045 16.3433 29.0016 16.1754L27.8478 18.9446ZM28.7139 19.3336C28.6737 19.3136 28.6694 19.3021 28.696 19.3287C28.7234 19.356 28.7731 19.4135 28.8392 19.5173L31.3702 17.9067C31.063 17.4239 30.6414 16.9433 30.0555 16.6504L28.7139 19.3336ZM28.8392 19.5173C29.0468 19.8436 29.1939 20.1005 29.291 20.2948L31.9743 18.9532C31.8155 18.6355 31.6106 18.2844 31.3702 17.9067L28.8392 19.5173ZM29.291 20.2948C29.2905 20.2936 29.2987 20.3101 29.3131 20.3505C29.3272 20.3901 29.3446 20.445 29.3643 20.518C29.404 20.6655 29.4465 20.8632 29.4891 21.1186L32.4483 20.6254C32.3477 20.0219 32.2077 19.42 31.9743 18.9532L29.291 20.2948ZM29.5044 21.1974C29.6211 21.7224 29.6871 22.1591 29.7125 22.5149L32.7049 22.3011C32.6663 21.7609 32.5723 21.1736 32.433 20.5466L29.5044 21.1974ZM29.7261 22.6361C29.7719 22.9334 29.8047 23.4784 29.8047 24.328H32.8047C32.8047 23.4496 32.7735 22.7146 32.6912 22.1799L29.7261 22.6361ZM29.8058 24.3857C29.8373 25.2038 29.8527 25.9199 29.8527 26.536H32.8527C32.8527 25.8721 32.8361 25.1162 32.8036 24.2703L29.8058 24.3857ZM29.8548 26.6148C29.8847 27.1829 29.9007 28.0316 29.9007 29.176H32.9007C32.9007 28.0164 32.8847 27.1051 32.8506 26.4572L29.8548 26.6148ZM29.9007 29.176C29.9007 33.1882 29.6911 36.0308 29.3107 37.7864L32.2427 38.4216C32.6943 36.3372 32.9007 33.2278 32.9007 29.176H29.9007ZM29.2859 38.2696C29.4223 39.4978 29.695 40.6247 30.2373 41.4629L32.756 39.8331C32.5944 39.5833 32.3871 39.0142 32.2675 37.9384L29.2859 38.2696ZM30.2373 41.4629C30.9072 42.4981 31.9651 42.964 33.1287 42.964V39.964C32.9453 39.964 32.8639 39.9306 32.8395 39.9184C32.823 39.9101 32.7963 39.8954 32.756 39.8331L30.2373 41.4629ZM55.4854 46.264L54.5502 47.4368L54.5574 47.4425L55.4854 46.264ZM55.4374 29.08L56.4231 30.2107L56.4242 30.2097L55.4374 29.08ZM73.3894 27.784L72.4685 28.968L72.4806 28.9774L72.4929 28.9866L73.3894 27.784ZM75.8374 34.504L74.4038 34.0629L74.388 34.1143L74.3759 34.1667L75.8374 34.504ZM75.3094 35.752L74.032 34.9659L74.0227 34.9809L74.0138 34.9962L75.3094 35.752ZM74.3494 36.856L75.3097 38.0084L75.3184 38.0011L74.3494 36.856ZM73.0054 37.768L73.6763 39.1096L73.709 39.0933L73.7408 39.0754L73.0054 37.768ZM71.1814 38.392L71.4498 39.8678L71.482 39.862L71.5139 39.8547L71.1814 38.392ZM68.9254 38.584V37.084L68.9148 37.084L68.9254 38.584ZM62.1574 38.632L62.1468 37.132L60.1217 37.1464L60.7257 39.0794L62.1574 38.632ZM63.8854 41.08L63.0004 42.2911L63.0159 42.3024L63.0316 42.3133L63.8854 41.08ZM71.2774 41.416L71.6336 42.8731L71.6464 42.87L71.6592 42.8666L71.2774 41.416ZM73.2454 40.648L72.5983 39.2948L72.5864 39.3005L72.5746 39.3064L73.2454 40.648ZM76.0774 40.6L74.9625 41.6034L74.9889 41.6328L75.0168 41.6607L76.0774 40.6ZM75.7894 43.912L77.0528 44.7206L77.06 44.7094L77.0669 44.6981L75.7894 43.912ZM73.6294 46.36L74.6285 47.4789L74.6308 47.4769L73.6294 46.36ZM70.0294 48.424L70.5659 49.8248L70.0294 48.424ZM61.9174 35.56L60.4236 35.4242L60.2727 37.084L61.9392 37.0598L61.9174 35.56ZM66.5734 34.648L67.9715 35.1917L67.9735 35.1865L66.5734 34.648ZM63.6454 30.616L62.5489 29.5925L62.53 29.6127L62.5119 29.6336L63.6454 30.616ZM62.5414 32.68L63.9481 33.201L63.9511 33.1928L63.9541 33.1845L62.5414 32.68ZM65.1814 47.788C61.5451 47.788 58.6594 46.8542 56.4135 45.0855L54.5574 47.4425C57.4315 49.7058 61.0098 50.788 65.1814 50.788V47.788ZM56.4207 45.0912C54.2806 43.3846 53.1934 41.0808 53.1934 38.008H50.1934C50.1934 41.9112 51.6343 45.1114 54.5502 47.4367L56.4207 45.0912ZM53.1934 38.008C53.1934 34.5979 54.3016 32.0602 56.4231 30.2107L54.4517 27.9493C51.5812 30.4518 50.1934 33.8661 50.1934 38.008H53.1934ZM56.4242 30.2097C58.6306 28.2826 61.5066 27.268 65.1814 27.268V24.268C60.9202 24.268 57.3003 25.4614 54.4507 27.9502L56.4242 30.2097ZM65.1814 27.268C68.806 27.268 71.1338 27.9299 72.4685 28.968L74.3103 26.6C72.1891 24.9501 69.0449 24.268 65.1814 24.268V27.268ZM72.4929 28.9866C73.8517 29.9995 74.5294 31.3502 74.5294 33.208H77.5294C77.5294 30.4578 76.4472 28.1925 74.2859 26.5814L72.4929 28.9866ZM74.5294 33.208C74.5294 33.5109 74.4865 33.794 74.4038 34.0629L77.2711 34.9451C77.4444 34.382 77.5294 33.8011 77.5294 33.208H74.5294ZM74.3759 34.1667C74.3213 34.4031 74.2147 34.6688 74.032 34.9659L76.5869 36.5381C76.9161 36.0032 77.1616 35.4369 77.299 34.8413L74.3759 34.1667ZM74.0138 34.9962C73.8927 35.2038 73.6946 35.4451 73.3805 35.7109L75.3184 38.0011C75.8362 37.5629 76.2782 37.0682 76.6051 36.5078L74.0138 34.9962ZM73.3892 35.7037C73.0862 35.9562 72.7159 36.2098 72.27 36.4606L73.7408 39.0754C74.3189 38.7502 74.8447 38.3958 75.3097 38.0083L73.3892 35.7037ZM72.3346 36.4264C71.9538 36.6168 71.4647 36.7894 70.849 36.9293L71.5139 39.8547C72.3062 39.6746 73.0331 39.4312 73.6763 39.1096L72.3346 36.4264ZM70.9131 36.9162C70.3073 37.0263 69.6458 37.084 68.9254 37.084V40.084C69.8051 40.084 70.6476 40.0137 71.4498 39.8678L70.9131 36.9162ZM68.9148 37.084L62.1468 37.132L62.1681 40.132L68.9361 40.084L68.9148 37.084ZM60.7257 39.0794C61.1373 40.3965 61.898 41.4854 63.0004 42.2911L64.7705 39.8689C64.2089 39.4586 63.8176 38.9155 63.5892 38.1846L60.7257 39.0794ZM63.0316 42.3133C64.1737 43.104 65.5493 43.444 67.0534 43.444V40.444C65.9976 40.444 65.2612 40.208 64.7393 39.8467L63.0316 42.3133ZM67.0534 43.444C68.5583 43.444 70.086 43.2514 71.6336 42.8731L70.9213 39.9589C69.5889 40.2846 68.3006 40.444 67.0534 40.444V43.444ZM71.6592 42.8666C72.3883 42.6747 73.1419 42.3768 73.9163 41.9896L72.5746 39.3064C71.941 39.6232 71.3826 39.8373 70.8957 39.9654L71.6592 42.8666ZM73.8926 42.0012C74.2278 41.8409 74.483 41.7366 74.6678 41.675C74.8743 41.6062 74.9074 41.62 74.8294 41.62V38.62C74.4315 38.62 74.0406 38.7218 73.7191 38.829C73.3758 38.9434 72.9991 39.1031 72.5983 39.2948L73.8926 42.0012ZM74.8294 41.62C74.9567 41.62 75.0081 41.6389 75.011 41.64C75.0119 41.6404 75.0044 41.6375 74.9924 41.6293C74.9803 41.6211 74.9699 41.6116 74.9625 41.6034L77.1924 39.5966C76.5485 38.8811 75.6787 38.62 74.8294 38.62V41.62ZM75.0168 41.6607C75.0301 41.674 75.0366 41.6829 75.0394 41.687C75.042 41.691 75.0435 41.6939 75.0447 41.6971C75.0462 41.7008 75.0574 41.7291 75.0574 41.8H78.0574C78.0574 40.949 77.7578 40.159 77.1381 39.5393L75.0168 41.6607ZM75.0574 41.8C75.0574 41.9665 74.9681 42.3846 74.512 43.1259L77.0669 44.6981C77.6348 43.7754 78.0574 42.7855 78.0574 41.8H75.0574ZM74.526 43.1034C74.1057 43.7602 73.4847 44.4752 72.6281 45.2431L74.6308 47.4769C75.6302 46.5808 76.4492 45.6638 77.0528 44.7206L74.526 43.1034ZM72.6304 45.2411C71.9078 45.8863 70.8814 46.4915 69.493 47.0232L70.5659 49.8248C72.1855 49.2045 73.5591 48.4337 74.6285 47.4789L72.6304 45.2411ZM69.493 47.0232C68.1724 47.529 66.7395 47.788 65.1814 47.788V50.788C67.0794 50.788 68.8785 50.471 70.5659 49.8248L69.493 47.0232ZM61.9392 37.0598C64.1572 37.0277 65.3397 37.012 65.5174 37.012V34.012C65.3111 34.012 64.0937 34.0283 61.8957 34.0602L61.9392 37.0598ZM65.5174 37.012C66.083 37.012 66.6317 36.833 67.0913 36.4569C67.5265 36.1009 67.798 35.6377 67.9714 35.1917L65.1754 34.1043C65.1249 34.2343 65.1084 34.2031 65.1916 34.1351C65.2357 34.0989 65.2943 34.0642 65.3628 34.0405C65.4302 34.0172 65.4855 34.012 65.5174 34.012V37.012ZM67.9735 35.1865C68.2287 34.5227 68.3134 33.736 68.3134 32.92H65.3134C65.3134 33.576 65.2381 33.9413 65.1734 34.1095L67.9735 35.1865ZM68.3134 32.92C68.3134 31.8101 68.1548 30.7277 67.6419 29.8773C67.0556 28.9053 66.1019 28.396 64.9894 28.396V31.396C65.0823 31.396 65.0906 31.4137 65.0619 31.3979C65.031 31.3808 65.0389 31.3702 65.073 31.4267C65.1681 31.5843 65.3134 32.0139 65.3134 32.92H68.3134ZM64.9894 28.396C63.9641 28.396 63.1474 28.9512 62.5489 29.5925L64.742 31.6395C64.8849 31.4864 64.9819 31.4217 65.0258 31.3982C65.0616 31.3791 65.0442 31.396 64.9894 31.396V28.396ZM62.5119 29.6336C61.9292 30.306 61.4833 31.183 61.1288 32.1755L63.9541 33.1845C64.2396 32.3849 64.5297 31.886 64.779 31.5984L62.5119 29.6336ZM61.1348 32.159C60.7626 33.164 60.5298 34.2559 60.4236 35.4242L63.4113 35.6958C63.4971 34.7521 63.6803 33.924 63.9481 33.201L61.1348 32.159ZM82.8323 46.216L81.661 47.1531L81.6681 47.1619L82.8323 46.216ZM82.7843 29.032L81.5928 28.1208L81.5908 28.1235L82.7843 29.032ZM96.3203 28.504L95.365 29.6604L96.7726 30.8233L97.6402 29.2167L96.3203 28.504ZM104.528 27.256L103.591 28.4273L103.603 28.437L103.616 28.4464L104.528 27.256ZM104.768 47.896L105.784 48.9999L105.796 48.9891L105.807 48.9781L104.768 47.896ZM96.3683 47.224L97.6728 46.4836L96.8744 45.0768L95.5318 45.9789L96.3683 47.224ZM95.6483 33.112H97.1483V32.7048L96.9424 32.3534L95.6483 33.112ZM91.5203 33.544L90.1379 32.9619L90.1379 32.9619L91.5203 33.544ZM91.4723 41.656L92.8569 41.0791L92.8569 41.0791L91.4723 41.656ZM95.6483 42.088L96.9177 42.8872L97.1483 42.5209V42.088H95.6483ZM89.1203 47.788C87.0664 47.788 85.3901 46.9853 83.9965 45.2701L81.6681 47.1619C83.6026 49.5427 86.1183 50.788 89.1203 50.788V47.788ZM84.0036 45.279C82.6157 43.544 81.8363 41.0808 81.8363 37.72H78.8363C78.8363 41.5272 79.7209 44.728 81.661 47.153L84.0036 45.279ZM81.8363 37.72C81.8363 34.2853 82.6045 31.7447 83.9779 29.9405L81.5908 28.1235C79.7001 30.6073 78.8363 33.8587 78.8363 37.72H81.8363ZM83.9758 29.9432C85.3791 28.1082 87.0642 27.268 89.1203 27.268V24.268C86.0564 24.268 83.5175 25.6038 81.5928 28.1208L83.9758 29.9432ZM89.1203 27.268C91.3265 27.268 93.3957 28.0337 95.365 29.6604L97.2756 27.3476C94.8289 25.3263 92.0982 24.268 89.1203 24.268V27.268ZM97.6402 29.2167C97.9577 28.6287 98.3363 28.2479 98.7597 28.0045C99.1875 27.7587 99.7471 27.604 100.496 27.604V24.604C99.3255 24.604 98.2291 24.8493 97.2649 25.4035C96.2963 25.9601 95.5469 26.7793 95.0005 27.7913L97.6402 29.2167ZM100.496 27.604C102.019 27.604 102.987 27.9437 103.591 28.4273L105.465 26.0847C104.15 25.0323 102.429 24.604 100.496 24.604V27.604ZM103.616 28.4464C104.016 28.7531 104.468 29.5276 104.468 31.384H107.468C107.468 29.2084 106.961 27.2309 105.441 26.0656L103.616 28.4464ZM104.468 31.384V43.864H107.468V31.384H104.468ZM104.468 43.864C104.468 45.655 104.081 46.4767 103.73 46.8139L105.807 48.9781C107.056 47.7793 107.468 45.913 107.468 43.864H104.468ZM103.753 46.7921C103.385 47.13 102.47 47.5 100.544 47.5V50.5C102.65 50.5 104.551 50.134 105.784 48.9999L103.753 46.7921ZM100.544 47.5C98.6521 47.5 97.9511 46.9739 97.6728 46.4836L95.0638 47.9644C96.1295 49.8421 98.2125 50.5 100.544 50.5V47.5ZM95.5318 45.9789C93.762 47.168 91.6459 47.788 89.1203 47.788V50.788C92.1627 50.788 94.8786 50.032 97.2048 48.4691L95.5318 45.9789ZM96.9424 32.3534C96.2059 31.097 95.0687 30.22 93.5363 30.22V33.22C93.7319 33.22 94.0028 33.271 94.3543 33.8706L96.9424 32.3534ZM93.5363 30.22C91.7839 30.22 90.7299 31.5559 90.1379 32.9619L92.9028 34.1261C93.1094 33.6352 93.298 33.3938 93.4147 33.2883C93.5016 33.2097 93.5267 33.22 93.5363 33.22V30.22ZM90.1379 32.9619C89.5351 34.3935 89.2523 35.9891 89.2523 37.72H92.2523C92.2523 36.3149 92.4815 35.1265 92.9028 34.1261L90.1379 32.9619ZM89.2523 37.72C89.2523 39.3551 89.5191 40.8684 90.0877 42.2329L92.8569 41.0791C92.4655 40.1396 92.2523 39.0289 92.2523 37.72H89.2523ZM90.0877 42.2329C90.6793 43.6527 91.7557 44.884 93.4883 44.884V41.884C93.4238 41.884 93.3839 41.8743 93.3125 41.8131C93.2125 41.7274 93.0414 41.5217 92.8569 41.0791L90.0877 42.2329ZM93.4883 44.884C94.9792 44.884 96.1443 44.1156 96.9177 42.8872L94.379 41.2888C94.0644 41.7884 93.7894 41.884 93.4883 41.884V44.884ZM97.1483 42.088V33.112H94.1483V42.088H97.1483ZM119.601 47.896L120.617 48.9999L120.629 48.9891L120.64 48.9781L119.601 47.896ZM111.489 47.704L110.289 48.604L110.297 48.6145L110.305 48.6249L111.489 47.704ZM111.057 28.696L112.41 29.3451L112.415 29.3349L112.419 29.3246L111.057 28.696ZM120.129 28.216L118.813 28.9343L119.647 30.4646L121.036 29.411L120.129 28.216ZM124.833 34.792L123.98 36.0253L124.001 36.0399L124.022 36.0538L124.833 34.792ZM123.633 33.928L122.684 35.0889L122.708 35.109L122.733 35.128L123.633 33.928ZM120.801 34.216L119.592 33.329L119.301 33.7249V34.216H120.801ZM119.301 43.864C119.301 45.655 118.914 46.4767 118.563 46.8139L120.64 48.9781C121.889 47.7793 122.301 45.913 122.301 43.864H119.301ZM118.586 46.7921C118.222 47.1272 117.295 47.5 115.329 47.5V50.5C117.46 50.5 119.381 50.1368 120.617 48.9999L118.586 46.7921ZM115.329 47.5C113.579 47.5 112.908 47.085 112.673 46.7831L110.305 48.6249C111.415 50.051 113.304 50.5 115.329 50.5V47.5ZM112.689 46.804C112.315 46.3048 111.981 45.2558 111.981 43.336H108.981C108.981 45.4482 109.32 47.3112 110.289 48.604L112.689 46.804ZM111.981 43.336V31.528H108.981V43.336H111.981ZM111.981 31.528C111.981 30.6149 112.142 29.902 112.41 29.3451L109.705 28.0469C109.204 29.09 108.981 30.2651 108.981 31.528H111.981ZM112.419 29.3246C112.687 28.7451 113.052 28.3403 113.517 28.0573L111.958 25.4947C110.95 26.1077 110.196 26.9829 109.695 28.0674L112.419 29.3246ZM113.517 28.0573C113.985 27.7729 114.57 27.604 115.329 27.604V24.604C114.105 24.604 112.962 24.8831 111.958 25.4947L113.517 28.0573ZM115.329 27.604C117.523 27.604 118.428 28.2298 118.813 28.9343L121.446 27.4977C120.295 25.3862 118 24.604 115.329 24.604V27.604ZM121.036 29.411C122.721 28.1327 124.202 27.604 125.505 27.604V24.604C123.353 24.604 121.25 25.4833 119.223 27.021L121.036 29.411ZM125.505 27.604C126.972 27.604 127.793 27.9544 128.251 28.3902C128.695 28.8129 129.045 29.5544 129.045 30.904H132.045C132.045 29.0536 131.556 27.3951 130.32 26.2178C129.097 25.0536 127.399 24.604 125.505 24.604V27.604ZM129.045 30.904C129.045 31.8788 128.775 32.5334 128.338 33.0084L130.545 35.0396C131.58 33.9146 132.045 32.4892 132.045 30.904H129.045ZM128.338 33.0084C127.913 33.4702 127.368 33.724 126.561 33.724V36.724C128.123 36.724 129.498 36.1778 130.545 35.0396L128.338 33.0084ZM126.561 33.724C126.054 33.724 125.784 33.62 125.645 33.5302L124.022 36.0538C124.779 36.54 125.66 36.724 126.561 36.724V33.724ZM125.687 33.5587C125.286 33.2809 124.901 33.004 124.533 32.728L122.733 35.128C123.133 35.428 123.549 35.7271 123.98 36.0253L125.687 33.5587ZM124.583 32.7671C123.948 32.247 123.191 31.996 122.385 31.996V34.996C122.54 34.996 122.615 35.033 122.684 35.0889L124.583 32.7671ZM122.385 31.996C121.303 31.996 120.28 32.3902 119.592 33.329L122.011 35.103C122.039 35.0647 122.059 35.0523 122.082 35.0415C122.114 35.027 122.203 34.996 122.385 34.996V31.996ZM119.301 34.216V43.864H122.301V34.216H119.301ZM208.824 18.136L208.068 19.4317L208.068 19.4317L208.824 18.136ZM212.52 24.376L211.255 23.5707L211.244 23.5873L211.234 23.6043L212.52 24.376ZM211.752 25.096L212.361 26.4667L212.392 26.4529L212.423 26.4376L211.752 25.096ZM208.2 24.424L207.5 25.7506L207.515 25.7583L207.529 25.7656L208.2 24.424ZM204.36 22.648L203.765 24.0251L203.779 24.0308L203.792 24.0363L204.36 22.648ZM198.072 25.432L196.81 26.2431L196.845 26.2964L196.883 26.3466L198.072 25.432ZM199.56 26.776L198.688 27.9966L198.708 28.0107L198.728 28.0241L199.56 26.776ZM201.528 27.976L200.805 29.2903L200.805 29.2903L201.528 27.976ZM204.168 29.416L203.452 30.7343L203.467 30.7423L203.482 30.7499L204.168 29.416ZM207 30.952L206.244 32.2477L206.256 32.2544L207 30.952ZM212.184 34.984L210.998 35.9029L210.998 35.9029L212.184 34.984ZM195.144 48.808L194.828 50.2743L194.834 50.2755L195.144 48.808ZM190.824 47.416L190.182 48.7716L190.189 48.7748L190.195 48.7779L190.824 47.416ZM187.56 45.496L186.653 46.691L186.663 46.6984L186.673 46.7056L187.56 45.496ZM185.448 43.336L186.704 42.5166L186.704 42.5166L185.448 43.336ZM185.4 39.496L184.306 38.4701L184.303 38.4725L185.4 39.496ZM192.312 40.024L191.832 41.4452L191.84 41.4479L191.848 41.4506L192.312 40.024ZM200.472 39.016L199.068 39.5427L199.11 39.6556L199.17 39.7602L200.472 39.016ZM199.896 38.296L198.835 39.3567L198.901 39.4227L198.975 39.48L199.896 38.296ZM198.984 37.624L198.124 38.8528L198.192 38.9008L198.266 38.9408L198.984 37.624ZM197.592 36.808L196.864 38.1192L196.878 38.1275L196.893 38.1354L197.592 36.808ZM195.816 35.848L195.088 37.1592L195.102 37.1675L195.117 37.1754L195.816 35.848ZM190.728 33.064L191.472 31.7616L191.468 31.7595L190.728 33.064ZM187.656 30.568L186.507 31.5319L186.516 31.5426L186.525 31.5532L187.656 30.568ZM185.832 27.64L184.433 28.1815L184.436 28.1893L184.439 28.1971L185.832 27.64ZM188.856 18.328L187.99 17.103L187.99 17.103L188.856 18.328ZM199.08 17.284C202.682 17.284 205.656 18.0244 208.068 19.4317L209.58 16.8403C206.616 15.1116 203.094 14.284 199.08 14.284V17.284ZM208.068 19.4317C210.652 20.939 211.356 22.2145 211.356 23.128H214.356C214.356 20.5215 212.372 18.469 209.58 16.8403L208.068 19.4317ZM211.356 23.128C211.356 23.3666 211.303 23.4939 211.255 23.5707L213.786 25.1813C214.185 24.5541 214.356 23.8494 214.356 23.128H211.356ZM211.234 23.6043C211.182 23.6907 211.135 23.7276 211.081 23.7544L212.423 26.4376C213.009 26.1444 213.474 25.7013 213.806 25.1477L211.234 23.6043ZM211.143 23.7253C211.068 23.7586 210.959 23.788 210.792 23.788V26.788C211.329 26.788 211.86 26.6894 212.361 26.4667L211.143 23.7253ZM210.792 23.788C210.598 23.788 210.011 23.6525 208.871 23.0824L207.529 25.7656C208.693 26.3475 209.834 26.788 210.792 26.788V23.788ZM208.9 23.0974C207.699 22.4633 206.374 21.8511 204.928 21.2597L203.792 24.0363C205.162 24.5969 206.397 25.1687 207.5 25.7506L208.9 23.0974ZM204.955 21.2709C203.412 20.6047 201.911 20.236 200.472 20.236V23.236C201.401 23.236 202.492 23.4753 203.765 24.0251L204.955 21.2709ZM200.472 20.236C199.363 20.236 198.253 20.4553 197.401 21.1484C196.49 21.8897 196.14 22.9496 196.14 24.04H199.14C199.14 23.5944 199.262 23.5023 199.295 23.4756C199.387 23.4007 199.693 23.236 200.472 23.236V20.236ZM196.14 24.04C196.14 24.8386 196.384 25.5806 196.81 26.2431L199.334 24.6209C199.184 24.3874 199.14 24.2014 199.14 24.04H196.14ZM196.883 26.3466C197.329 26.9267 197.957 27.474 198.688 27.9966L200.432 25.5554C199.82 25.118 199.455 24.7693 199.261 24.5174L196.883 26.3466ZM198.728 28.0241C199.432 28.4933 200.124 28.9158 200.805 29.2903L202.251 26.6617C201.652 26.3322 201.032 25.9547 200.392 25.5279L198.728 28.0241ZM200.805 29.2903C201.449 29.6443 202.331 30.1258 203.452 30.7343L204.884 28.0977C203.765 27.4902 202.887 27.0117 202.251 26.6617L200.805 29.2903ZM203.482 30.7499C204.587 31.3183 205.506 31.8173 206.244 32.2477L207.756 29.6563C206.958 29.1907 205.989 28.6657 204.854 28.0821L203.482 30.7499ZM206.256 32.2544C208.658 33.6271 210.186 34.8539 210.998 35.9029L213.37 34.0651C212.199 32.5541 210.27 31.0929 207.744 29.6496L206.256 32.2544ZM210.998 35.9029C211.781 36.9122 212.172 38.0588 212.172 39.4H215.172C215.172 37.4132 214.571 35.6158 213.37 34.0651L210.998 35.9029ZM212.172 39.4C212.172 42.3399 211.205 44.3304 209.43 45.6474C207.571 47.0265 204.602 47.836 200.28 47.836V50.836C204.886 50.836 208.613 49.9895 211.218 48.0566C213.907 46.0616 215.172 43.0841 215.172 39.4H212.172ZM200.28 47.836C198.621 47.836 197.013 47.6701 195.455 47.3405L194.834 50.2755C196.603 50.6499 198.419 50.836 200.28 50.836V47.836ZM195.46 47.3417C193.914 47.0082 192.582 46.5753 191.453 46.0541L190.195 48.7779C191.562 49.4087 193.11 49.9038 194.828 50.2743L195.46 47.3417ZM191.466 46.0604C190.325 45.52 189.321 44.9273 188.447 44.2864L186.673 46.7056C187.719 47.4727 188.891 48.16 190.182 48.7716L191.466 46.0604ZM188.467 44.301C187.634 43.6692 187.065 43.0698 186.704 42.5166L184.192 44.1554C184.791 45.0742 185.63 45.9148 186.653 46.691L188.467 44.301ZM186.704 42.5166C186.326 41.9364 186.228 41.5313 186.228 41.272H183.228C183.228 42.2927 183.61 43.2636 184.192 44.1554L186.704 42.5166ZM186.228 41.272C186.228 40.9179 186.328 40.7005 186.497 40.5195L184.303 38.4725C183.576 39.2515 183.228 40.2181 183.228 41.272H186.228ZM186.494 40.5219C186.617 40.3909 186.861 40.228 187.464 40.228V37.228C186.275 37.228 185.143 37.5771 184.306 38.4701L186.494 40.5219ZM187.464 40.228C187.58 40.228 187.979 40.2835 188.793 40.5011C189.557 40.7054 190.567 41.0181 191.832 41.4452L192.792 38.6028C191.497 38.1659 190.419 37.8306 189.567 37.6029C188.765 37.3885 188.02 37.228 187.464 37.228V40.228ZM191.848 41.4506C194.467 42.3016 196.705 42.772 198.504 42.772V39.772C197.167 39.772 195.277 39.4104 192.776 38.5974L191.848 41.4506ZM198.504 42.772C199.35 42.772 200.25 42.6348 200.975 42.1353C201.801 41.5662 202.164 40.6963 202.164 39.784H199.164C199.164 39.8504 199.152 39.8361 199.179 39.7817C199.209 39.7201 199.252 39.6793 199.273 39.6647C199.285 39.6569 199.246 39.6865 199.113 39.717C198.981 39.7475 198.783 39.772 198.504 39.772V42.772ZM202.164 39.784C202.164 39.266 202.047 38.7479 201.774 38.2718L199.17 39.7602C199.167 39.7559 199.165 39.7514 199.163 39.7471C199.162 39.7428 199.161 39.7402 199.161 39.7398C199.161 39.7385 199.164 39.7516 199.164 39.784H202.164ZM201.877 38.4893C201.656 37.9006 201.253 37.4508 200.817 37.112L198.975 39.48C199.043 39.5328 199.074 39.5681 199.085 39.581C199.094 39.5926 199.082 39.5801 199.068 39.5427L201.877 38.4893ZM200.957 37.2353C200.589 36.8678 200.167 36.5605 199.702 36.3072L198.266 38.9408C198.505 39.0715 198.691 39.2122 198.835 39.3567L200.957 37.2353ZM199.844 36.3952C199.448 36.1177 198.919 35.8116 198.291 35.4806L196.893 38.1354C197.481 38.4444 197.88 38.6823 198.124 38.8528L199.844 36.3952ZM198.321 35.4968C197.734 35.171 197.132 34.8457 196.515 34.5206L195.117 37.1754C195.716 37.4903 196.298 37.805 196.864 38.1192L198.321 35.4968ZM196.545 34.5368C195.958 34.2108 195.181 33.7903 194.218 33.2765L192.806 35.9235C193.763 36.4337 194.522 36.8452 195.088 37.1592L196.545 34.5368ZM194.218 33.2765C193.27 32.771 192.355 32.266 191.472 31.7616L189.984 34.3664C190.893 34.886 191.834 35.405 192.806 35.9235L194.218 33.2765ZM191.468 31.7595C190.427 31.1681 189.536 30.4426 188.787 29.5828L186.525 31.5532C187.504 32.6774 188.662 33.6159 189.988 34.3685L191.468 31.7595ZM188.805 29.6041C188.051 28.7046 187.537 27.8634 187.225 27.0829L184.439 28.1971C184.895 29.3366 185.597 30.4474 186.507 31.5319L188.805 29.6041ZM187.231 27.0985C186.896 26.2333 186.756 25.5072 186.756 24.904H183.756C183.756 25.9648 184 27.0627 184.433 28.1815L187.231 27.0985ZM186.756 24.904C186.756 22.7539 187.676 20.9985 189.722 19.553L187.99 17.103C185.236 19.0495 183.756 21.6781 183.756 24.904H186.756ZM189.722 19.553C191.77 18.1053 194.827 17.284 199.08 17.284V14.284C194.501 14.284 190.742 15.1587 187.99 17.103L189.722 19.553ZM219.663 33.064H221.163V31.6228L219.723 31.5652L219.663 33.064ZM217.743 32.68L217.037 34.0035L217.072 34.0224L217.108 34.0393L217.743 32.68ZM216.687 31.72L215.345 32.3908L215.367 32.4341L215.391 32.4758L216.687 31.72ZM219.711 27.304L219.819 28.8001L221.211 28.6992V27.304H219.711ZM222.351 19.576L223.069 20.8928L223.078 20.8878L223.087 20.8827L222.351 19.576ZM229.647 19L228.319 19.6986L228.319 19.6986L229.647 19ZM230.127 21.736L228.627 21.736L228.627 21.749L230.127 21.736ZM230.175 27.256L228.675 27.269L228.688 28.756H230.175V27.256ZM235.071 27.976L234.171 29.176L234.204 29.201L234.239 29.2241L235.071 27.976ZM235.791 31.768L234.474 31.0497L234.474 31.0497L235.791 31.768ZM234.831 32.584L234.24 31.2053L234.221 31.2134L234.202 31.2221L234.831 32.584ZM233.295 33.016L233.452 34.5078L233.49 34.5037L233.529 34.4976L233.295 33.016ZM230.175 33.112V31.612H228.675V33.112H230.175ZM230.223 39.688L228.729 39.8238L228.736 39.9036L228.752 39.9822L230.223 39.688ZM230.463 40.456L229.121 41.1268L229.121 41.1268L230.463 40.456ZM230.847 40.84L230.29 42.2327L230.331 42.2491L230.372 42.263L230.847 40.84ZM232.479 40.552L233.539 41.6127L233.571 41.5815L233.6 41.5485L232.479 40.552ZM233.055 39.64L231.689 39.0193L231.675 39.0508L231.662 39.0829L233.055 39.64ZM233.631 38.728L232.51 37.7314L232.502 37.7402L233.631 38.728ZM236.175 38.824L235.161 39.9297L235.183 39.9498L235.206 39.9691L236.175 38.824ZM236.271 42.904L234.857 42.4024L234.85 42.4228L234.843 42.4435L236.271 42.904ZM234.831 45.784L236.066 46.6356L236.066 46.6356L234.831 45.784ZM232.143 48.088L231.443 46.7614L231.435 46.7655L231.427 46.7697L232.143 48.088ZM221.631 46.6L222.791 45.6489L222.791 45.6489L221.631 46.6ZM221.163 38.728V33.064H218.163V38.728H221.163ZM219.723 31.5652C219.03 31.5375 218.609 31.4289 218.377 31.3207L217.108 34.0393C217.837 34.3791 218.696 34.5265 219.603 34.5628L219.723 31.5652ZM218.449 31.3565C218.159 31.2021 218.038 31.0593 217.982 30.9642L215.391 32.4758C215.784 33.1487 216.366 33.6459 217.037 34.0035L218.449 31.3565ZM218.028 31.0492C217.97 30.9321 217.899 30.699 217.899 30.28H214.899C214.899 31.013 215.02 31.7399 215.345 32.3908L218.028 31.0492ZM217.899 30.28C217.899 29.6883 218.065 29.4317 218.229 29.2837C218.438 29.096 218.891 28.8673 219.819 28.8001L219.602 25.8079C218.322 25.9007 217.119 26.2479 216.224 27.0523C215.285 27.8963 214.899 29.0477 214.899 30.28H217.899ZM221.211 27.304V22.84H218.211V27.304H221.211ZM221.211 22.84C221.211 22.4668 221.461 21.7697 223.069 20.8928L221.632 18.2592C219.72 19.3023 218.211 20.7812 218.211 22.84H221.211ZM223.087 20.8827C224.661 19.9958 226.153 19.588 227.583 19.588V16.588C225.556 16.588 223.561 17.1721 221.614 18.2693L223.087 20.8827ZM227.583 19.588C227.98 19.588 228.192 19.6472 228.284 19.688C228.326 19.7062 228.336 19.7175 228.331 19.7133C228.33 19.7117 228.327 19.7087 228.323 19.7047C228.32 19.7007 228.319 19.6982 228.319 19.6986L230.974 18.3014C230.271 16.9661 228.868 16.588 227.583 16.588V19.588ZM228.319 19.6986C228.469 19.9836 228.627 20.6027 228.627 21.736H231.627C231.627 20.4373 231.464 19.2324 230.974 18.3014L228.319 19.6986ZM228.627 21.749L228.675 27.269L231.675 27.243L231.627 21.723L228.627 21.749ZM230.175 28.756H231.471V25.756H230.175V28.756ZM231.471 28.756C232.291 28.756 232.925 28.8126 233.397 28.9069C233.882 29.004 234.1 29.1227 234.171 29.176L235.971 26.776C235.402 26.3493 234.699 26.108 233.985 25.9651C233.256 25.8194 232.41 25.756 231.471 25.756V28.756ZM234.239 29.2241C234.311 29.2724 234.579 29.4895 234.579 30.472H237.579C237.579 29.0225 237.174 27.5756 235.903 26.7279L234.239 29.2241ZM234.579 30.472C234.579 30.8009 234.517 30.9708 234.474 31.0497L237.108 32.4863C237.448 31.8612 237.579 31.1671 237.579 30.472H234.579ZM234.474 31.0497C234.47 31.0566 234.462 31.0705 234.435 31.0931C234.406 31.1177 234.347 31.1591 234.24 31.2053L235.422 33.9627C236.11 33.6676 236.722 33.1931 237.108 32.4863L234.474 31.0497ZM234.202 31.2221C233.946 31.3402 233.576 31.453 233.061 31.5344L233.529 34.4976C234.23 34.387 234.883 34.2118 235.459 33.9459L234.202 31.2221ZM233.138 31.5242C232.6 31.5809 231.904 31.612 231.039 31.612V34.612C231.965 34.612 232.774 34.5791 233.452 34.5078L233.138 31.5242ZM231.039 31.612H230.175V34.612H231.039V31.612ZM228.675 33.112V38.392H231.675V33.112H228.675ZM228.675 38.392C228.675 38.9312 228.691 39.4116 228.729 39.8238L231.717 39.5522C231.69 39.2604 231.675 38.8768 231.675 38.392H228.675ZM228.752 39.9822C228.83 40.3726 228.943 40.7708 229.121 41.1268L231.804 39.7852C231.79 39.7572 231.743 39.6434 231.694 39.3938L228.752 39.9822ZM229.121 41.1268C229.339 41.5635 229.71 42.0011 230.29 42.2327L231.404 39.4473C231.522 39.4945 231.619 39.5631 231.691 39.6353C231.76 39.7043 231.793 39.763 231.804 39.7852L229.121 41.1268ZM230.372 42.263C230.752 42.3895 231.142 42.436 231.519 42.436V39.436C231.383 39.436 231.326 39.4185 231.321 39.417L230.372 42.263ZM231.519 42.436C232.274 42.436 232.984 42.1684 233.539 41.6127L231.418 39.4913C231.421 39.4887 231.429 39.4812 231.443 39.4719C231.457 39.4626 231.473 39.454 231.49 39.4473C231.526 39.4328 231.542 39.436 231.519 39.436V42.436ZM233.6 41.5485C233.958 41.1461 234.248 40.696 234.447 40.1971L231.662 39.0829C231.606 39.224 231.512 39.3819 231.358 39.5555L233.6 41.5485ZM234.42 40.2607C234.528 40.0241 234.644 39.8477 234.76 39.7158L232.502 37.7402C232.169 38.1203 231.902 38.5519 231.689 39.0193L234.42 40.2607ZM234.752 39.7245C234.777 39.6958 234.766 39.7173 234.71 39.7456C234.647 39.7771 234.569 39.796 234.495 39.796V36.796C233.659 36.796 232.987 37.1945 232.51 37.7315L234.752 39.7245ZM234.495 39.796C235.01 39.796 235.15 39.9194 235.161 39.9297L237.188 37.7183C236.432 37.0246 235.451 36.796 234.495 36.796V39.796ZM235.206 39.9691C235.275 40.0275 235.29 40.0608 235.291 40.0627C235.292 40.0653 235.294 40.0682 235.295 40.0738C235.296 40.0797 235.299 40.0941 235.299 40.12H238.299C238.299 39.1354 237.872 38.295 237.144 37.6789L235.206 39.9691ZM235.299 40.12C235.299 40.7804 235.164 41.5375 234.857 42.4024L237.684 43.4056C238.081 42.2865 238.299 41.1876 238.299 40.12H235.299ZM234.843 42.4435C234.571 43.2856 234.16 44.1149 233.596 44.9324L236.066 46.6356C236.782 45.5971 237.33 44.5064 237.698 43.3645L234.843 42.4435ZM233.596 44.9324C233.113 45.6323 232.414 46.2487 231.443 46.7614L232.843 49.4146C234.175 48.7113 235.268 47.7917 236.066 46.6356L233.596 44.9324ZM231.427 46.7697C230.549 47.2463 229.535 47.5 228.351 47.5V50.5C229.982 50.5 231.496 50.1457 232.858 49.4063L231.427 46.7697ZM228.351 47.5C225.391 47.5 223.694 46.7501 222.791 45.6489L220.471 47.5511C222.192 49.6499 224.975 50.5 228.351 50.5V47.5ZM222.791 45.6489C221.813 44.4562 221.163 42.2667 221.163 38.728H218.163C218.163 42.4853 218.825 45.5438 220.471 47.5511L222.791 45.6489ZM255.252 33.256L253.825 33.7196L253.829 33.7303L255.252 33.256ZM251.076 34.648L252.545 34.9519L252.545 34.9519L251.076 34.648ZM251.46 41.944L250.048 42.4508L250.053 42.4626L251.46 41.944ZM255.252 41.944L253.833 41.4585L253.833 41.4585L255.252 41.944ZM246.612 47.992L245.995 49.3591L246.003 49.3627L246.612 47.992ZM241.812 43.96L240.561 44.7869L240.566 44.7946L240.571 44.8023L241.812 43.96ZM243.78 28.984L244.757 30.1219L243.78 28.984ZM262.836 46.216L261.883 45.0577L261.876 45.0637L262.836 46.216ZM257.376 37.624C257.376 35.8395 257.154 34.217 256.675 32.7817L253.829 33.7303C254.183 34.791 254.376 36.0805 254.376 37.624H257.376ZM256.679 32.7924C256.218 31.3755 255.27 29.836 253.428 29.836V32.836C253.422 32.836 253.397 32.8332 253.371 32.8215C253.349 32.8113 253.359 32.8093 253.397 32.8491C253.487 32.9443 253.654 33.1911 253.826 33.7196L256.679 32.7924ZM253.428 29.836C252.187 29.836 251.301 30.6003 250.73 31.4785L253.246 33.1135C253.377 32.912 253.467 32.8408 253.492 32.8241C253.502 32.8173 253.498 32.822 253.479 32.8277C253.461 32.8336 253.442 32.836 253.428 32.836V29.836ZM250.73 31.4785C250.191 32.3078 249.828 33.2759 249.607 34.3441L252.545 34.9519C252.708 34.1641 252.953 33.5642 253.246 33.1135L250.73 31.4785ZM249.607 34.3441C249.392 35.3827 249.288 36.4773 249.288 37.624H252.288C252.288 36.6587 252.376 35.7693 252.545 34.9519L249.607 34.3441ZM249.288 37.624C249.288 39.3903 249.53 41.0076 250.048 42.4508L252.872 41.4372C252.494 40.3844 252.288 39.1217 252.288 37.624H249.288ZM250.053 42.4626C250.577 43.8871 251.593 45.268 253.38 45.268V42.268C253.36 42.268 253.359 42.2653 253.365 42.2676C253.369 42.2693 253.35 42.2632 253.309 42.2245C253.215 42.1355 253.046 41.9108 252.868 41.4254L250.053 42.4626ZM253.38 45.268C255.186 45.268 256.181 43.8631 256.671 42.4295L253.833 41.4585C253.668 41.9413 253.508 42.1574 253.425 42.2377C253.39 42.2715 253.377 42.2739 253.387 42.2698C253.398 42.2652 253.401 42.268 253.38 42.268V45.268ZM256.671 42.4295C257.154 41.0189 257.376 39.4071 257.376 37.624H254.376C254.376 39.1689 254.182 40.4371 253.833 41.4585L256.671 42.4295ZM253.38 47.836C251.066 47.836 249.022 47.4215 247.221 46.6213L246.003 49.3627C248.234 50.3545 250.702 50.836 253.38 50.836V47.836ZM247.229 46.6249C245.496 45.8423 244.113 44.6793 243.053 43.1177L240.571 44.8023C241.943 46.8247 243.76 48.3497 245.995 49.3591L247.229 46.6249ZM243.064 43.1331C242.06 41.6147 241.536 39.8137 241.536 37.672H238.536C238.536 40.3303 239.196 42.7213 240.561 44.7869L243.064 43.1331ZM241.536 37.672C241.536 34.4079 242.632 31.9478 244.757 30.1219L242.803 27.8461C239.936 30.3082 238.536 33.6401 238.536 37.672H241.536ZM244.757 30.1219C246.932 28.2535 249.764 27.268 253.38 27.268V24.268C249.188 24.268 245.62 25.4265 242.803 27.8461L244.757 30.1219ZM253.38 27.268C256.996 27.268 259.808 28.2537 261.947 30.1156L263.917 27.8524C261.128 25.4263 257.572 24.268 253.38 24.268V27.268ZM261.947 30.1156C264.044 31.9394 265.128 34.4012 265.128 37.672H268.128C268.128 33.6468 266.749 30.3166 263.917 27.8524L261.947 30.1156ZM265.128 37.672C265.128 40.8927 264.026 43.2948 261.883 45.0577L263.789 47.3743C266.702 44.9772 268.128 41.6833 268.128 37.672H265.128ZM261.876 45.0637C259.694 46.8815 256.901 47.836 253.38 47.836V50.836C257.476 50.836 260.986 49.7105 263.796 47.3683L261.876 45.0637ZM279.773 47.896L280.789 48.9999L280.801 48.9891L280.812 48.9781L279.773 47.896ZM271.661 47.704L270.461 48.604L270.469 48.6145L270.477 48.6249L271.661 47.704ZM271.229 28.696L272.582 29.3451L272.587 29.3349L272.591 29.3246L271.229 28.696ZM280.301 28.216L278.984 28.9343L279.819 30.4646L281.208 29.411L280.301 28.216ZM285.005 34.792L284.151 36.0253L284.173 36.0399L284.194 36.0538L285.005 34.792ZM283.805 33.928L282.855 35.0889L282.88 35.109L282.905 35.128L283.805 33.928ZM280.973 34.216L279.764 33.329L279.473 33.7249V34.216H280.973ZM279.473 43.864C279.473 45.655 279.086 46.4767 278.735 46.8139L280.812 48.9781C282.061 47.7793 282.473 45.913 282.473 43.864H279.473ZM278.758 46.7921C278.393 47.1272 277.467 47.5 275.501 47.5V50.5C277.632 50.5 279.553 50.1368 280.789 48.9999L278.758 46.7921ZM275.501 47.5C273.751 47.5 273.08 47.085 272.845 46.7831L270.477 48.6249C271.586 50.051 273.476 50.5 275.501 50.5V47.5ZM272.861 46.804C272.487 46.3048 272.153 45.2558 272.153 43.336H269.153C269.153 45.4482 269.492 47.3112 270.461 48.604L272.861 46.804ZM272.153 43.336V31.528H269.153V43.336H272.153ZM272.153 31.528C272.153 30.6149 272.314 29.902 272.582 29.3451L269.877 28.0469C269.376 29.09 269.153 30.2651 269.153 31.528H272.153ZM272.591 29.3246C272.859 28.7451 273.224 28.3403 273.689 28.0573L272.129 25.4947C271.122 26.1077 270.368 26.9829 269.867 28.0674L272.591 29.3246ZM273.689 28.0573C274.156 27.7729 274.742 27.604 275.501 27.604V24.604C274.277 24.604 273.134 24.8831 272.129 25.4947L273.689 28.0573ZM275.501 27.604C277.694 27.604 278.6 28.2298 278.984 28.9343L281.618 27.4977C280.466 25.3862 278.172 24.604 275.501 24.604V27.604ZM281.208 29.411C282.893 28.1327 284.374 27.604 285.677 27.604V24.604C283.525 24.604 281.422 25.4833 279.395 27.021L281.208 29.411ZM285.677 27.604C287.144 27.604 287.965 27.9544 288.423 28.3902C288.867 28.8129 289.217 29.5544 289.217 30.904H292.217C292.217 29.0536 291.728 27.3951 290.492 26.2178C289.269 25.0536 287.571 24.604 285.677 24.604V27.604ZM289.217 30.904C289.217 31.8788 288.946 32.5334 288.509 33.0084L290.717 35.0396C291.752 33.9146 292.217 32.4892 292.217 30.904H289.217ZM288.509 33.0084C288.085 33.4702 287.54 33.724 286.733 33.724V36.724C288.295 36.724 289.67 36.1778 290.717 35.0396L288.509 33.0084ZM286.733 33.724C286.226 33.724 285.956 33.62 285.816 33.5302L284.194 36.0538C284.951 36.54 285.832 36.724 286.733 36.724V33.724ZM285.859 33.5587C285.458 33.2809 285.073 33.004 284.705 32.728L282.905 35.128C283.305 35.428 283.721 35.7271 284.151 36.0253L285.859 33.5587ZM284.755 32.7671C284.12 32.247 283.363 31.996 282.557 31.996V34.996C282.712 34.996 282.787 35.033 282.855 35.0889L284.755 32.7671ZM282.557 31.996C281.475 31.996 280.452 32.3902 279.764 33.329L282.183 35.103C282.211 35.0647 282.23 35.0523 282.254 35.0415C282.286 35.027 282.375 34.996 282.557 34.996V31.996ZM279.473 34.216V43.864H282.473V34.216H279.473ZM295.86 46.264L294.925 47.4368L294.932 47.4425L295.86 46.264ZM295.812 29.08L296.798 30.2107L296.799 30.2097L295.812 29.08ZM313.764 27.784L312.844 28.968L312.856 28.9774L312.868 28.9866L313.764 27.784ZM316.212 34.504L314.779 34.0629L314.763 34.1143L314.751 34.1667L316.212 34.504ZM315.684 35.752L314.407 34.9659L314.398 34.9809L314.389 34.9962L315.684 35.752ZM314.724 36.856L315.685 38.0084L315.693 38.0011L314.724 36.856ZM313.38 37.768L314.051 39.1096L314.084 39.0933L314.116 39.0754L313.38 37.768ZM311.556 38.392L311.825 39.8678L311.857 39.862L311.889 39.8547L311.556 38.392ZM309.3 38.584V37.084L309.29 37.084L309.3 38.584ZM302.532 38.632L302.522 37.132L300.497 37.1464L301.101 39.0794L302.532 38.632ZM304.26 41.08L303.375 42.2911L303.391 42.3024L303.407 42.3133L304.26 41.08ZM311.652 41.416L312.009 42.8731L312.021 42.87L312.034 42.8666L311.652 41.416ZM313.62 40.648L312.973 39.2948L312.961 39.3005L312.95 39.3064L313.62 40.648ZM316.452 40.6L315.337 41.6034L315.364 41.6328L315.392 41.6607L316.452 40.6ZM316.164 43.912L317.428 44.7206L317.435 44.7094L317.442 44.6981L316.164 43.912ZM314.004 46.36L315.003 47.4789L315.006 47.4769L314.004 46.36ZM310.404 48.424L310.941 49.8248L310.404 48.424ZM302.292 35.56L300.799 35.4242L300.648 37.084L302.314 37.0598L302.292 35.56ZM306.948 34.648L308.346 35.1917L308.348 35.1865L306.948 34.648ZM304.02 30.616L302.924 29.5925L302.905 29.6127L302.887 29.6336L304.02 30.616ZM302.916 32.68L304.323 33.201L304.326 33.1928L304.329 33.1845L302.916 32.68ZM305.556 47.788C301.92 47.788 299.034 46.8542 296.788 45.0855L294.932 47.4425C297.806 49.7058 301.385 50.788 305.556 50.788V47.788ZM296.796 45.0912C294.656 43.3846 293.568 41.0808 293.568 38.008H290.568C290.568 41.9112 292.009 45.1114 294.925 47.4367L296.796 45.0912ZM293.568 38.008C293.568 34.5979 294.677 32.0602 296.798 30.2107L294.827 27.9493C291.956 30.4518 290.568 33.8661 290.568 38.008H293.568ZM296.799 30.2097C299.006 28.2826 301.882 27.268 305.556 27.268V24.268C301.295 24.268 297.675 25.4614 294.826 27.9502L296.799 30.2097ZM305.556 27.268C309.181 27.268 311.509 27.9299 312.844 28.968L314.685 26.6C312.564 24.9501 309.42 24.268 305.556 24.268V27.268ZM312.868 28.9866C314.227 29.9995 314.904 31.3502 314.904 33.208H317.904C317.904 30.4578 316.822 28.1925 314.661 26.5814L312.868 28.9866ZM314.904 33.208C314.904 33.5109 314.862 33.794 314.779 34.0629L317.646 34.9451C317.819 34.382 317.904 33.8011 317.904 33.208H314.904ZM314.751 34.1667C314.696 34.4031 314.59 34.6688 314.407 34.9659L316.962 36.5381C317.291 36.0032 317.537 35.4369 317.674 34.8413L314.751 34.1667ZM314.389 34.9962C314.268 35.2038 314.07 35.4451 313.756 35.7109L315.693 38.0011C316.211 37.5629 316.653 37.0682 316.98 36.5078L314.389 34.9962ZM313.764 35.7037C313.461 35.9562 313.091 36.2098 312.645 36.4606L314.116 39.0754C314.694 38.7502 315.22 38.3958 315.685 38.0083L313.764 35.7037ZM312.71 36.4264C312.329 36.6168 311.84 36.7894 311.224 36.9293L311.889 39.8547C312.681 39.6746 313.408 39.4312 314.051 39.1096L312.71 36.4264ZM311.288 36.9162C310.682 37.0263 310.021 37.084 309.3 37.084V40.084C310.18 40.084 311.023 40.0137 311.825 39.8678L311.288 36.9162ZM309.29 37.084L302.522 37.132L302.543 40.132L309.311 40.084L309.29 37.084ZM301.101 39.0794C301.512 40.3965 302.273 41.4854 303.375 42.2911L305.145 39.8689C304.584 39.4586 304.193 38.9155 303.964 38.1846L301.101 39.0794ZM303.407 42.3133C304.549 43.104 305.924 43.444 307.428 43.444V40.444C306.373 40.444 305.636 40.208 305.114 39.8467L303.407 42.3133ZM307.428 43.444C308.933 43.444 310.461 43.2514 312.009 42.8731L311.296 39.9589C309.964 40.2846 308.676 40.444 307.428 40.444V43.444ZM312.034 42.8666C312.763 42.6747 313.517 42.3768 314.291 41.9896L312.95 39.3064C312.316 39.6232 311.758 39.8373 311.271 39.9654L312.034 42.8666ZM314.268 42.0012C314.603 41.8409 314.858 41.7366 315.043 41.675C315.249 41.6062 315.282 41.62 315.204 41.62V38.62C314.807 38.62 314.416 38.7218 314.094 38.829C313.751 38.9434 313.374 39.1031 312.973 39.2948L314.268 42.0012ZM315.204 41.62C315.332 41.62 315.383 41.6389 315.386 41.64C315.387 41.6404 315.379 41.6375 315.367 41.6293C315.355 41.6211 315.345 41.6116 315.337 41.6034L317.567 39.5966C316.923 38.8811 316.054 38.62 315.204 38.62V41.62ZM315.392 41.6607C315.405 41.674 315.412 41.6829 315.414 41.687C315.417 41.691 315.418 41.6939 315.42 41.6971C315.421 41.7008 315.432 41.7291 315.432 41.8H318.432C318.432 40.949 318.133 40.159 317.513 39.5393L315.392 41.6607ZM315.432 41.8C315.432 41.9665 315.343 42.3846 314.887 43.1259L317.442 44.6981C318.01 43.7754 318.432 42.7855 318.432 41.8H315.432ZM314.901 43.1034C314.481 43.7602 313.86 44.4752 313.003 45.2431L315.006 47.4769C316.005 46.5808 316.824 45.6638 317.428 44.7206L314.901 43.1034ZM313.005 45.2411C312.283 45.8863 311.256 46.4915 309.868 47.0232L310.941 49.8248C312.56 49.2045 313.934 48.4337 315.003 47.4789L313.005 45.2411ZM309.868 47.0232C308.547 47.529 307.115 47.788 305.556 47.788V50.788C307.454 50.788 309.254 50.471 310.941 49.8248L309.868 47.0232ZM302.314 37.0598C304.532 37.0277 305.715 37.012 305.892 37.012V34.012C305.686 34.012 304.469 34.0283 302.271 34.0602L302.314 37.0598ZM305.892 37.012C306.458 37.012 307.007 36.833 307.466 36.4569C307.901 36.1009 308.173 35.6377 308.346 35.1917L305.55 34.1043C305.5 34.2343 305.483 34.2031 305.567 34.1351C305.611 34.0989 305.669 34.0642 305.738 34.0405C305.805 34.0172 305.86 34.012 305.892 34.012V37.012ZM308.348 35.1865C308.604 34.5227 308.688 33.736 308.688 32.92H305.688C305.688 33.576 305.613 33.9413 305.548 34.1095L308.348 35.1865ZM308.688 32.92C308.688 31.8101 308.53 30.7277 308.017 29.8773C307.431 28.9053 306.477 28.396 305.364 28.396V31.396C305.457 31.396 305.466 31.4137 305.437 31.3979C305.406 31.3808 305.414 31.3702 305.448 31.4267C305.543 31.5843 305.688 32.0139 305.688 32.92H308.688ZM305.364 28.396C304.339 28.396 303.522 28.9512 302.924 29.5925L305.117 31.6395C305.26 31.4864 305.357 31.4217 305.401 31.3982C305.437 31.3791 305.419 31.396 305.364 31.396V28.396ZM302.887 29.6336C302.304 30.306 301.858 31.183 301.504 32.1755L304.329 33.1845C304.615 32.3849 304.905 31.886 305.154 31.5984L302.887 29.6336ZM301.51 32.159C301.138 33.164 300.905 34.2559 300.799 35.4242L303.786 35.6958C303.872 34.7521 304.055 33.924 304.323 33.201L301.51 32.159Z" fill="#28231C" mask="url(#path-7-outside-1_351_435)"/>
<defs>
<clipPath id="clip0_351_435">
<rect width="64" height="29.786" fill="white" transform="translate(144.745 -6) rotate(39)"/>
</clipPath>
</defs>
</svg>
