<svg width="355" height="70" viewBox="0 0 355 70" fill="none" xmlns="http://www.w3.org/2000/svg">
<mask id="path-1-outside-1_351_435" maskUnits="userSpaceOnUse" x="2" y="13" width="352" height="48" fill="black">
<rect fill="white" x="2" y="13" width="352" height="48"/>
<path d="M42.8383 48.952C44.5023 48.952 45.6543 48.056 46.2943 46.264C46.9343 44.4293 47.2543 41.464 47.2543 37.368L47.3823 21.688C47.3823 19.4267 47.8943 17.784 48.9183 16.76C49.9849 15.6933 51.7983 15.16 54.3583 15.16C55.9369 15.16 57.1956 15.416 58.1343 15.928C59.1156 16.44 59.9476 17.4427 60.6303 18.936C61.3129 20.4293 61.7823 22.456 62.0383 25.016C62.2943 27.576 62.4223 30.968 62.4223 35.192C62.4223 37.7093 62.2089 40.056 61.7823 42.232C61.3556 44.408 60.7796 46.3067 60.0543 47.928C59.3289 49.5493 58.4543 51.0213 57.4303 52.344C56.4489 53.624 55.4036 54.6907 54.2943 55.544C53.1849 56.3973 52.0116 57.1227 50.7743 57.72C49.5369 58.2747 48.3209 58.68 47.1263 58.936C45.9743 59.1493 44.8436 59.256 43.7343 59.256C39.8943 59.256 36.4169 58.04 33.3022 55.608C30.2303 58.1253 26.7529 59.384 22.8703 59.384C21.2063 59.384 19.5423 59.1493 17.8783 58.68C16.2143 58.168 14.5076 57.3147 12.7583 56.12C11.0516 54.9253 9.53692 53.4533 8.21425 51.704C6.89158 49.912 5.80358 47.608 4.95025 44.792C4.13958 41.9333 3.73425 38.776 3.73425 35.32C3.73425 29.7307 3.99025 25.5067 4.50225 22.648C5.05692 19.7893 5.86758 17.848 6.93425 16.824C8.04358 15.8 9.64358 15.288 11.7343 15.288C13.4836 15.288 14.8703 15.544 15.8943 16.056C16.9183 16.5253 17.6436 17.2293 18.0703 18.168C18.4969 19.1067 18.7103 20.3227 18.7103 21.816L18.7743 37.432C18.7743 41.528 19.0943 44.4933 19.7343 46.328C20.3743 48.1627 21.6329 49.08 23.5103 49.08C24.4489 49.08 25.1529 48.696 25.6223 47.928C26.0916 47.1173 26.4116 45.8373 26.5823 44.088C26.0276 41.6133 25.7503 37.752 25.7503 32.504C25.7503 29.56 25.8143 27.2133 25.9423 25.464C26.0703 23.7147 26.2623 22.2 26.5183 20.92C26.7743 19.64 27.2009 18.7227 27.7983 18.168C28.3956 17.6133 29.0569 17.2293 29.7823 17.016C30.5503 16.76 31.5956 16.632 32.9183 16.632C33.6863 16.632 34.3476 16.6533 34.9023 16.696C35.4996 16.7387 36.0543 16.8667 36.5662 17.08C37.0783 17.2933 37.5049 17.4853 37.8463 17.656C38.1876 17.8267 38.5076 18.1467 38.8063 18.616C39.1049 19.0853 39.3396 19.4907 39.5103 19.832C39.6809 20.1733 39.8303 20.728 39.9583 21.496C40.1289 22.264 40.2356 22.9467 40.2783 23.544C40.3636 24.0987 40.4062 24.952 40.4062 26.104C40.4489 27.2133 40.4703 28.1947 40.4703 29.048C40.5129 29.8587 40.5343 31.032 40.5343 32.568C40.5343 37.944 40.2569 41.912 39.7023 44.472C39.8729 46.008 40.1929 47.1387 40.6623 47.864C41.1316 48.5893 41.8569 48.952 42.8383 48.952ZM85.5753 59.384C80.3699 59.384 76.0606 58.04 72.6473 55.352C69.2766 52.664 67.5913 48.9947 67.5913 44.344C67.5913 39.3093 69.2553 35.3413 72.5833 32.44C75.9539 29.496 80.2846 28.024 85.5753 28.024C90.5673 28.024 94.2153 28.92 96.5193 30.712C98.8659 32.4613 100.039 34.872 100.039 37.944C100.039 38.5413 99.9539 39.1173 99.7833 39.672C99.6553 40.2267 99.4206 40.7813 99.0793 41.336C98.7806 41.848 98.3539 42.3387 97.7993 42.808C97.2873 43.2347 96.6899 43.64 96.0073 44.024C95.3246 44.3653 94.5139 44.6427 93.5753 44.856C92.6366 45.0267 91.6339 45.112 90.5673 45.112L81.5433 45.176C81.9699 46.5413 82.7379 47.6293 83.8472 48.44C84.9566 49.208 86.3646 49.592 88.0713 49.592C89.9059 49.592 91.7833 49.3573 93.7033 48.888C94.5139 48.6747 95.3886 48.3333 96.3273 47.864C97.3086 47.3947 98.0126 47.16 98.4393 47.16C99.1646 47.16 99.7193 47.3733 100.103 47.8C100.53 48.2267 100.743 48.76 100.743 49.4C100.743 50.168 100.402 51.1067 99.7193 52.216C99.0366 53.2827 98.0766 54.3707 96.8393 55.48C95.6446 56.5467 94.0446 57.464 92.0393 58.232C90.0339 59 87.8793 59.384 85.5753 59.384ZM81.2233 41.08C84.1673 41.0373 85.7673 41.016 86.0233 41.016C86.6633 41.016 87.1326 40.632 87.4313 39.864C87.6446 39.3093 87.7513 38.5413 87.7513 37.56C87.7513 34.872 86.9406 33.528 85.3193 33.528C84.7219 33.528 84.1246 33.848 83.5273 34.488C82.9726 35.128 82.4819 36.0453 82.0553 37.24C81.6286 38.392 81.3513 39.672 81.2233 41.08ZM117.494 59.384C114.123 59.384 111.328 58.0187 109.11 55.288C106.891 52.5147 105.782 48.7387 105.782 43.96C105.782 39.096 106.87 35.2347 109.046 32.376C111.264 29.4747 114.08 28.024 117.494 28.024C120.95 28.024 124.15 29.24 127.094 31.672C128.246 29.5387 130.102 28.472 132.662 28.472C134.966 28.472 136.758 28.984 138.038 30.008C139.318 30.9893 139.958 32.824 139.958 35.512V52.152C139.958 54.712 139.424 56.504 138.358 57.528C137.291 58.5093 135.414 59 132.726 59C129.91 59 128.054 58.2107 127.158 56.632C124.427 58.4667 121.206 59.384 117.494 59.384ZM126.198 37.816C125.472 36.5787 124.534 35.96 123.382 35.96C122.272 35.96 121.376 36.7707 120.694 38.392C120.011 40.0133 119.67 41.8693 119.67 43.96C119.67 45.9227 119.99 47.672 120.63 49.208C121.27 50.744 122.166 51.512 123.318 51.512C124.512 51.512 125.472 50.936 126.198 49.784V37.816ZM159.735 52.152C159.735 54.712 159.202 56.504 158.135 57.528C157.069 58.5093 155.17 59 152.439 59C149.922 59 148.215 58.424 147.319 57.272C146.423 56.0773 145.975 54.136 145.975 51.448V35.704C145.975 34.2533 146.231 32.9947 146.743 31.928C147.255 30.8187 148.002 29.9653 148.983 29.368C149.965 28.7707 151.117 28.472 152.439 28.472C155.682 28.472 157.815 29.4107 158.839 31.288C161.314 29.4107 163.703 28.472 166.007 28.472C170.487 28.472 172.727 30.6053 172.727 34.872C172.727 36.5787 172.237 37.9653 171.255 39.032C170.274 40.0987 168.994 40.632 167.415 40.632C166.477 40.632 165.709 40.44 165.111 40.056C164.557 39.672 164.023 39.288 163.511 38.904C163.042 38.52 162.487 38.328 161.847 38.328C160.909 38.328 160.205 38.648 159.735 39.288V52.152ZM195.107 14.712C200.184 14.712 204.515 15.7573 208.099 17.848C211.683 19.9387 213.475 22.1573 213.475 24.504C213.475 25.144 213.325 25.6987 213.027 26.168C212.771 26.5947 212.429 26.9147 212.003 27.128C211.619 27.2987 211.192 27.384 210.723 27.384C209.955 27.384 208.803 27 207.267 26.232C205.731 25.4213 204.024 24.632 202.147 23.864C200.269 23.0533 198.541 22.648 196.963 22.648C194.445 22.648 193.187 23.672 193.187 25.72C193.187 26.36 193.379 26.9787 193.763 27.576C194.189 28.1307 194.851 28.728 195.747 29.368C196.643 29.9653 197.517 30.4987 198.371 30.968C199.224 31.4373 200.397 32.0773 201.891 32.888C203.384 33.656 204.643 34.3387 205.667 34.936C208.952 36.8133 211.256 38.6053 212.579 40.312C213.901 42.0187 214.563 43.9813 214.563 46.2C214.563 55.032 208.611 59.448 196.707 59.448C194.36 59.448 192.077 59.2133 189.859 58.744C187.683 58.2747 185.763 57.656 184.099 56.888C182.477 56.12 181.027 55.2667 179.747 54.328C178.509 53.3893 177.571 52.4293 176.931 51.448C176.291 50.4667 175.971 49.5493 175.971 48.696C175.971 47.7573 176.269 46.968 176.867 46.328C177.507 45.6453 178.424 45.304 179.619 45.304C180.515 45.304 182.669 45.88 186.083 47.032C189.496 48.1413 192.248 48.696 194.339 48.696C196.259 48.696 197.219 48.0347 197.219 46.712C197.219 46.328 197.133 45.9867 196.963 45.688C196.835 45.3467 196.579 45.0267 196.195 44.728C195.853 44.3867 195.448 44.088 194.979 43.832C194.552 43.5333 193.933 43.1707 193.123 42.744C192.355 42.3173 191.565 41.8907 190.755 41.464C189.987 41.0373 188.963 40.4827 187.683 39.8C186.403 39.1173 185.165 38.4347 183.971 37.752C182.392 36.856 181.027 35.7467 179.875 34.424C178.765 33.1013 177.955 31.8 177.443 30.52C176.931 29.1973 176.675 27.9813 176.675 26.872C176.675 23.288 178.275 20.3653 181.475 18.104C184.675 15.8427 189.219 14.712 195.107 14.712ZM222.55 45.304V37.752C221.484 37.7093 220.63 37.5387 219.99 37.24C219.35 36.8987 218.881 36.472 218.582 35.96C218.326 35.448 218.198 34.808 218.198 34.04C218.198 31.608 219.67 30.2853 222.614 30.072V24.12C222.614 22.4987 223.788 21.048 226.134 19.768C228.481 18.4453 230.806 17.784 233.11 17.784C234.518 17.784 235.436 18.1893 235.862 19C236.289 19.8107 236.502 21.0267 236.502 22.648L236.566 30.008H238.294C240.641 30.008 242.241 30.328 243.094 30.968C243.99 31.5653 244.438 32.6747 244.438 34.296C244.438 34.9787 244.31 35.5547 244.054 36.024C243.798 36.4933 243.372 36.856 242.774 37.112C242.22 37.368 241.537 37.56 240.726 37.688C239.916 37.7733 238.913 37.816 237.718 37.816H236.566V44.856C236.566 45.5387 236.588 46.1147 236.63 46.584C236.716 47.0107 236.822 47.352 236.95 47.608C237.078 47.864 237.249 48.0347 237.462 48.12C237.718 48.2053 238.017 48.248 238.358 48.248C238.87 48.248 239.297 48.0773 239.638 47.736C239.98 47.352 240.236 46.9467 240.406 46.52C240.62 46.0507 240.876 45.6453 241.174 45.304C241.516 44.92 241.9 44.728 242.326 44.728C243.308 44.728 244.054 44.9627 244.566 45.432C245.121 45.9013 245.398 46.4773 245.398 47.16C245.398 48.312 245.164 49.5493 244.694 50.872C244.268 52.1947 243.628 53.4747 242.774 54.712C241.921 55.9493 240.726 56.9733 239.19 57.784C237.697 58.5947 236.012 59 234.134 59C229.91 59 226.924 57.9333 225.174 55.8C223.425 53.6667 222.55 50.168 222.55 45.304ZM270.835 43.832C270.835 41.6133 270.557 39.672 270.003 38.008C269.448 36.3013 268.637 35.448 267.571 35.448C266.845 35.448 266.205 35.8747 265.651 36.728C265.096 37.5813 264.691 38.6267 264.435 39.864C264.179 41.1013 264.051 42.424 264.051 43.832C264.051 46.008 264.349 47.928 264.947 49.592C265.544 51.2133 266.397 52.024 267.507 52.024C268.616 52.024 269.448 51.2133 270.003 49.592C270.557 47.9707 270.835 46.0507 270.835 43.832ZM267.507 59.448C264.179 59.448 261.171 58.8507 258.483 57.656C255.837 56.4613 253.704 54.6693 252.083 52.28C250.504 49.8907 249.715 47.096 249.715 43.896C249.715 39.032 251.379 35.1707 254.707 32.312C258.035 29.4533 262.301 28.024 267.507 28.024C272.712 28.024 276.957 29.4533 280.243 32.312C283.528 35.1707 285.171 39.032 285.171 43.896C285.171 48.7173 283.485 52.5147 280.115 55.288C276.787 58.0613 272.584 59.448 267.507 59.448ZM304.298 52.152C304.298 54.712 303.764 56.504 302.698 57.528C301.631 58.5093 299.732 59 297.002 59C294.484 59 292.778 58.424 291.882 57.272C290.986 56.0773 290.538 54.136 290.538 51.448V35.704C290.538 34.2533 290.794 32.9947 291.306 31.928C291.818 30.8187 292.564 29.9653 293.546 29.368C294.527 28.7707 295.679 28.472 297.002 28.472C300.244 28.472 302.378 29.4107 303.402 31.288C305.876 29.4107 308.266 28.472 310.57 28.472C315.05 28.472 317.29 30.6053 317.29 34.872C317.29 36.5787 316.799 37.9653 315.818 39.032C314.836 40.0987 313.556 40.632 311.978 40.632C311.039 40.632 310.271 40.44 309.674 40.056C309.119 39.672 308.586 39.288 308.074 38.904C307.604 38.52 307.05 38.328 306.41 38.328C305.471 38.328 304.767 38.648 304.298 39.288V52.152ZM337.075 59.384C331.87 59.384 327.561 58.04 324.147 55.352C320.777 52.664 319.091 48.9947 319.091 44.344C319.091 39.3093 320.755 35.3413 324.083 32.44C327.454 29.496 331.785 28.024 337.075 28.024C342.067 28.024 345.715 28.92 348.019 30.712C350.366 32.4613 351.539 34.872 351.539 37.944C351.539 38.5413 351.454 39.1173 351.283 39.672C351.155 40.2267 350.921 40.7813 350.579 41.336C350.281 41.848 349.854 42.3387 349.299 42.808C348.787 43.2347 348.19 43.64 347.507 44.024C346.825 44.3653 346.014 44.6427 345.075 44.856C344.137 45.0267 343.134 45.112 342.067 45.112L333.043 45.176C333.47 46.5413 334.238 47.6293 335.347 48.44C336.457 49.208 337.865 49.592 339.571 49.592C341.406 49.592 343.283 49.3573 345.203 48.888C346.014 48.6747 346.889 48.3333 347.827 47.864C348.809 47.3947 349.513 47.16 349.939 47.16C350.665 47.16 351.219 47.3733 351.603 47.8C352.03 48.2267 352.243 48.76 352.243 49.4C352.243 50.168 351.902 51.1067 351.219 52.216C350.537 53.2827 349.577 54.3707 348.339 55.48C347.145 56.5467 345.545 57.464 343.539 58.232C341.534 59 339.379 59.384 337.075 59.384ZM332.723 41.08C335.667 41.0373 337.267 41.016 337.523 41.016C338.163 41.016 338.633 40.632 338.931 39.864C339.145 39.3093 339.251 38.5413 339.251 37.56C339.251 34.872 338.441 33.528 336.819 33.528C336.222 33.528 335.625 33.848 335.027 34.488C334.473 35.128 333.982 36.0453 333.555 37.24C333.129 38.392 332.851 39.672 332.723 41.08Z"/>
</mask>
<path d="M42.8383 48.952C44.5023 48.952 45.6543 48.056 46.2943 46.264C46.9343 44.4293 47.2543 41.464 47.2543 37.368L47.3823 21.688C47.3823 19.4267 47.8943 17.784 48.9183 16.76C49.9849 15.6933 51.7983 15.16 54.3583 15.16C55.9369 15.16 57.1956 15.416 58.1343 15.928C59.1156 16.44 59.9476 17.4427 60.6303 18.936C61.3129 20.4293 61.7823 22.456 62.0383 25.016C62.2943 27.576 62.4223 30.968 62.4223 35.192C62.4223 37.7093 62.2089 40.056 61.7823 42.232C61.3556 44.408 60.7796 46.3067 60.0543 47.928C59.3289 49.5493 58.4543 51.0213 57.4303 52.344C56.4489 53.624 55.4036 54.6907 54.2943 55.544C53.1849 56.3973 52.0116 57.1227 50.7743 57.72C49.5369 58.2747 48.3209 58.68 47.1263 58.936C45.9743 59.1493 44.8436 59.256 43.7343 59.256C39.8943 59.256 36.4169 58.04 33.3022 55.608C30.2303 58.1253 26.7529 59.384 22.8703 59.384C21.2063 59.384 19.5423 59.1493 17.8783 58.68C16.2143 58.168 14.5076 57.3147 12.7583 56.12C11.0516 54.9253 9.53692 53.4533 8.21425 51.704C6.89158 49.912 5.80358 47.608 4.95025 44.792C4.13958 41.9333 3.73425 38.776 3.73425 35.32C3.73425 29.7307 3.99025 25.5067 4.50225 22.648C5.05692 19.7893 5.86758 17.848 6.93425 16.824C8.04358 15.8 9.64358 15.288 11.7343 15.288C13.4836 15.288 14.8703 15.544 15.8943 16.056C16.9183 16.5253 17.6436 17.2293 18.0703 18.168C18.4969 19.1067 18.7103 20.3227 18.7103 21.816L18.7743 37.432C18.7743 41.528 19.0943 44.4933 19.7343 46.328C20.3743 48.1627 21.6329 49.08 23.5103 49.08C24.4489 49.08 25.1529 48.696 25.6223 47.928C26.0916 47.1173 26.4116 45.8373 26.5823 44.088C26.0276 41.6133 25.7503 37.752 25.7503 32.504C25.7503 29.56 25.8143 27.2133 25.9423 25.464C26.0703 23.7147 26.2623 22.2 26.5183 20.92C26.7743 19.64 27.2009 18.7227 27.7983 18.168C28.3956 17.6133 29.0569 17.2293 29.7823 17.016C30.5503 16.76 31.5956 16.632 32.9183 16.632C33.6863 16.632 34.3476 16.6533 34.9023 16.696C35.4996 16.7387 36.0543 16.8667 36.5662 17.08C37.0783 17.2933 37.5049 17.4853 37.8463 17.656C38.1876 17.8267 38.5076 18.1467 38.8063 18.616C39.1049 19.0853 39.3396 19.4907 39.5103 19.832C39.6809 20.1733 39.8303 20.728 39.9583 21.496C40.1289 22.264 40.2356 22.9467 40.2783 23.544C40.3636 24.0987 40.4062 24.952 40.4062 26.104C40.4489 27.2133 40.4703 28.1947 40.4703 29.048C40.5129 29.8587 40.5343 31.032 40.5343 32.568C40.5343 37.944 40.2569 41.912 39.7023 44.472C39.8729 46.008 40.1929 47.1387 40.6623 47.864C41.1316 48.5893 41.8569 48.952 42.8383 48.952ZM85.5753 59.384C80.3699 59.384 76.0606 58.04 72.6473 55.352C69.2766 52.664 67.5913 48.9947 67.5913 44.344C67.5913 39.3093 69.2553 35.3413 72.5833 32.44C75.9539 29.496 80.2846 28.024 85.5753 28.024C90.5673 28.024 94.2153 28.92 96.5193 30.712C98.8659 32.4613 100.039 34.872 100.039 37.944C100.039 38.5413 99.9539 39.1173 99.7833 39.672C99.6553 40.2267 99.4206 40.7813 99.0793 41.336C98.7806 41.848 98.3539 42.3387 97.7993 42.808C97.2873 43.2347 96.6899 43.64 96.0073 44.024C95.3246 44.3653 94.5139 44.6427 93.5753 44.856C92.6366 45.0267 91.6339 45.112 90.5673 45.112L81.5433 45.176C81.9699 46.5413 82.7379 47.6293 83.8472 48.44C84.9566 49.208 86.3646 49.592 88.0713 49.592C89.9059 49.592 91.7833 49.3573 93.7033 48.888C94.5139 48.6747 95.3886 48.3333 96.3273 47.864C97.3086 47.3947 98.0126 47.16 98.4393 47.16C99.1646 47.16 99.7193 47.3733 100.103 47.8C100.53 48.2267 100.743 48.76 100.743 49.4C100.743 50.168 100.402 51.1067 99.7193 52.216C99.0366 53.2827 98.0766 54.3707 96.8393 55.48C95.6446 56.5467 94.0446 57.464 92.0393 58.232C90.0339 59 87.8793 59.384 85.5753 59.384ZM81.2233 41.08C84.1673 41.0373 85.7673 41.016 86.0233 41.016C86.6633 41.016 87.1326 40.632 87.4313 39.864C87.6446 39.3093 87.7513 38.5413 87.7513 37.56C87.7513 34.872 86.9406 33.528 85.3193 33.528C84.7219 33.528 84.1246 33.848 83.5273 34.488C82.9726 35.128 82.4819 36.0453 82.0553 37.24C81.6286 38.392 81.3513 39.672 81.2233 41.08ZM117.494 59.384C114.123 59.384 111.328 58.0187 109.11 55.288C106.891 52.5147 105.782 48.7387 105.782 43.96C105.782 39.096 106.87 35.2347 109.046 32.376C111.264 29.4747 114.08 28.024 117.494 28.024C120.95 28.024 124.15 29.24 127.094 31.672C128.246 29.5387 130.102 28.472 132.662 28.472C134.966 28.472 136.758 28.984 138.038 30.008C139.318 30.9893 139.958 32.824 139.958 35.512V52.152C139.958 54.712 139.424 56.504 138.358 57.528C137.291 58.5093 135.414 59 132.726 59C129.91 59 128.054 58.2107 127.158 56.632C124.427 58.4667 121.206 59.384 117.494 59.384ZM126.198 37.816C125.472 36.5787 124.534 35.96 123.382 35.96C122.272 35.96 121.376 36.7707 120.694 38.392C120.011 40.0133 119.67 41.8693 119.67 43.96C119.67 45.9227 119.99 47.672 120.63 49.208C121.27 50.744 122.166 51.512 123.318 51.512C124.512 51.512 125.472 50.936 126.198 49.784V37.816ZM159.735 52.152C159.735 54.712 159.202 56.504 158.135 57.528C157.069 58.5093 155.17 59 152.439 59C149.922 59 148.215 58.424 147.319 57.272C146.423 56.0773 145.975 54.136 145.975 51.448V35.704C145.975 34.2533 146.231 32.9947 146.743 31.928C147.255 30.8187 148.002 29.9653 148.983 29.368C149.965 28.7707 151.117 28.472 152.439 28.472C155.682 28.472 157.815 29.4107 158.839 31.288C161.314 29.4107 163.703 28.472 166.007 28.472C170.487 28.472 172.727 30.6053 172.727 34.872C172.727 36.5787 172.237 37.9653 171.255 39.032C170.274 40.0987 168.994 40.632 167.415 40.632C166.477 40.632 165.709 40.44 165.111 40.056C164.557 39.672 164.023 39.288 163.511 38.904C163.042 38.52 162.487 38.328 161.847 38.328C160.909 38.328 160.205 38.648 159.735 39.288V52.152ZM195.107 14.712C200.184 14.712 204.515 15.7573 208.099 17.848C211.683 19.9387 213.475 22.1573 213.475 24.504C213.475 25.144 213.325 25.6987 213.027 26.168C212.771 26.5947 212.429 26.9147 212.003 27.128C211.619 27.2987 211.192 27.384 210.723 27.384C209.955 27.384 208.803 27 207.267 26.232C205.731 25.4213 204.024 24.632 202.147 23.864C200.269 23.0533 198.541 22.648 196.963 22.648C194.445 22.648 193.187 23.672 193.187 25.72C193.187 26.36 193.379 26.9787 193.763 27.576C194.189 28.1307 194.851 28.728 195.747 29.368C196.643 29.9653 197.517 30.4987 198.371 30.968C199.224 31.4373 200.397 32.0773 201.891 32.888C203.384 33.656 204.643 34.3387 205.667 34.936C208.952 36.8133 211.256 38.6053 212.579 40.312C213.901 42.0187 214.563 43.9813 214.563 46.2C214.563 55.032 208.611 59.448 196.707 59.448C194.36 59.448 192.077 59.2133 189.859 58.744C187.683 58.2747 185.763 57.656 184.099 56.888C182.477 56.12 181.027 55.2667 179.747 54.328C178.509 53.3893 177.571 52.4293 176.931 51.448C176.291 50.4667 175.971 49.5493 175.971 48.696C175.971 47.7573 176.269 46.968 176.867 46.328C177.507 45.6453 178.424 45.304 179.619 45.304C180.515 45.304 182.669 45.88 186.083 47.032C189.496 48.1413 192.248 48.696 194.339 48.696C196.259 48.696 197.219 48.0347 197.219 46.712C197.219 46.328 197.133 45.9867 196.963 45.688C196.835 45.3467 196.579 45.0267 196.195 44.728C195.853 44.3867 195.448 44.088 194.979 43.832C194.552 43.5333 193.933 43.1707 193.123 42.744C192.355 42.3173 191.565 41.8907 190.755 41.464C189.987 41.0373 188.963 40.4827 187.683 39.8C186.403 39.1173 185.165 38.4347 183.971 37.752C182.392 36.856 181.027 35.7467 179.875 34.424C178.765 33.1013 177.955 31.8 177.443 30.52C176.931 29.1973 176.675 27.9813 176.675 26.872C176.675 23.288 178.275 20.3653 181.475 18.104C184.675 15.8427 189.219 14.712 195.107 14.712ZM222.55 45.304V37.752C221.484 37.7093 220.63 37.5387 219.99 37.24C219.35 36.8987 218.881 36.472 218.582 35.96C218.326 35.448 218.198 34.808 218.198 34.04C218.198 31.608 219.67 30.2853 222.614 30.072V24.12C222.614 22.4987 223.788 21.048 226.134 19.768C228.481 18.4453 230.806 17.784 233.11 17.784C234.518 17.784 235.436 18.1893 235.862 19C236.289 19.8107 236.502 21.0267 236.502 22.648L236.566 30.008H238.294C240.641 30.008 242.241 30.328 243.094 30.968C243.99 31.5653 244.438 32.6747 244.438 34.296C244.438 34.9787 244.31 35.5547 244.054 36.024C243.798 36.4933 243.372 36.856 242.774 37.112C242.22 37.368 241.537 37.56 240.726 37.688C239.916 37.7733 238.913 37.816 237.718 37.816H236.566V44.856C236.566 45.5387 236.588 46.1147 236.63 46.584C236.716 47.0107 236.822 47.352 236.95 47.608C237.078 47.864 237.249 48.0347 237.462 48.12C237.718 48.2053 238.017 48.248 238.358 48.248C238.87 48.248 239.297 48.0773 239.638 47.736C239.98 47.352 240.236 46.9467 240.406 46.52C240.62 46.0507 240.876 45.6453 241.174 45.304C241.516 44.92 241.9 44.728 242.326 44.728C243.308 44.728 244.054 44.9627 244.566 45.432C245.121 45.9013 245.398 46.4773 245.398 47.16C245.398 48.312 245.164 49.5493 244.694 50.872C244.268 52.1947 243.628 53.4747 242.774 54.712C241.921 55.9493 240.726 56.9733 239.19 57.784C237.697 58.5947 236.012 59 234.134 59C229.91 59 226.924 57.9333 225.174 55.8C223.425 53.6667 222.55 50.168 222.55 45.304ZM270.835 43.832C270.835 41.6133 270.557 39.672 270.003 38.008C269.448 36.3013 268.637 35.448 267.571 35.448C266.845 35.448 266.205 35.8747 265.651 36.728C265.096 37.5813 264.691 38.6267 264.435 39.864C264.179 41.1013 264.051 42.424 264.051 43.832C264.051 46.008 264.349 47.928 264.947 49.592C265.544 51.2133 266.397 52.024 267.507 52.024C268.616 52.024 269.448 51.2133 270.003 49.592C270.557 47.9707 270.835 46.0507 270.835 43.832ZM267.507 59.448C264.179 59.448 261.171 58.8507 258.483 57.656C255.837 56.4613 253.704 54.6693 252.083 52.28C250.504 49.8907 249.715 47.096 249.715 43.896C249.715 39.032 251.379 35.1707 254.707 32.312C258.035 29.4533 262.301 28.024 267.507 28.024C272.712 28.024 276.957 29.4533 280.243 32.312C283.528 35.1707 285.171 39.032 285.171 43.896C285.171 48.7173 283.485 52.5147 280.115 55.288C276.787 58.0613 272.584 59.448 267.507 59.448ZM304.298 52.152C304.298 54.712 303.764 56.504 302.698 57.528C301.631 58.5093 299.732 59 297.002 59C294.484 59 292.778 58.424 291.882 57.272C290.986 56.0773 290.538 54.136 290.538 51.448V35.704C290.538 34.2533 290.794 32.9947 291.306 31.928C291.818 30.8187 292.564 29.9653 293.546 29.368C294.527 28.7707 295.679 28.472 297.002 28.472C300.244 28.472 302.378 29.4107 303.402 31.288C305.876 29.4107 308.266 28.472 310.57 28.472C315.05 28.472 317.29 30.6053 317.29 34.872C317.29 36.5787 316.799 37.9653 315.818 39.032C314.836 40.0987 313.556 40.632 311.978 40.632C311.039 40.632 310.271 40.44 309.674 40.056C309.119 39.672 308.586 39.288 308.074 38.904C307.604 38.52 307.05 38.328 306.41 38.328C305.471 38.328 304.767 38.648 304.298 39.288V52.152ZM337.075 59.384C331.87 59.384 327.561 58.04 324.147 55.352C320.777 52.664 319.091 48.9947 319.091 44.344C319.091 39.3093 320.755 35.3413 324.083 32.44C327.454 29.496 331.785 28.024 337.075 28.024C342.067 28.024 345.715 28.92 348.019 30.712C350.366 32.4613 351.539 34.872 351.539 37.944C351.539 38.5413 351.454 39.1173 351.283 39.672C351.155 40.2267 350.921 40.7813 350.579 41.336C350.281 41.848 349.854 42.3387 349.299 42.808C348.787 43.2347 348.19 43.64 347.507 44.024C346.825 44.3653 346.014 44.6427 345.075 44.856C344.137 45.0267 343.134 45.112 342.067 45.112L333.043 45.176C333.47 46.5413 334.238 47.6293 335.347 48.44C336.457 49.208 337.865 49.592 339.571 49.592C341.406 49.592 343.283 49.3573 345.203 48.888C346.014 48.6747 346.889 48.3333 347.827 47.864C348.809 47.3947 349.513 47.16 349.939 47.16C350.665 47.16 351.219 47.3733 351.603 47.8C352.03 48.2267 352.243 48.76 352.243 49.4C352.243 50.168 351.902 51.1067 351.219 52.216C350.537 53.2827 349.577 54.3707 348.339 55.48C347.145 56.5467 345.545 57.464 343.539 58.232C341.534 59 339.379 59.384 337.075 59.384ZM332.723 41.08C335.667 41.0373 337.267 41.016 337.523 41.016C338.163 41.016 338.633 40.632 338.931 39.864C339.145 39.3093 339.251 38.5413 339.251 37.56C339.251 34.872 338.441 33.528 336.819 33.528C336.222 33.528 335.625 33.848 335.027 34.488C334.473 35.128 333.982 36.0453 333.555 37.24C333.129 38.392 332.851 39.672 332.723 41.08Z" fill="#FB923C"/>
<path d="M46.2943 46.264L47.7069 46.7685L47.7106 46.7581L46.2943 46.264ZM47.2543 37.368L45.7543 37.3558V37.368H47.2543ZM47.3823 21.688L48.8823 21.7002V21.688H47.3823ZM58.1343 15.928L57.416 17.2448L57.4281 17.2515L57.4404 17.2579L58.1343 15.928ZM60.6303 18.936L61.9945 18.3124L61.9945 18.3124L60.6303 18.936ZM62.0383 25.016L63.5308 24.8667L63.5308 24.8667L62.0383 25.016ZM61.7823 42.232L60.3103 41.9434L60.3103 41.9434L61.7823 42.232ZM57.4303 52.344L56.2442 51.4257L56.2398 51.4314L57.4303 52.344ZM54.2943 55.544L55.2088 56.7329L55.2088 56.7329L54.2943 55.544ZM50.7743 57.72L51.3878 59.0888L51.4072 59.0801L51.4264 59.0708L50.7743 57.72ZM47.1263 58.936L47.3994 60.4109L47.42 60.4071L47.4405 60.4027L47.1263 58.936ZM33.3022 55.608L34.2254 54.4257L33.2796 53.6872L32.3515 54.4478L33.3022 55.608ZM17.8783 58.68L17.4371 60.1137L17.454 60.1189L17.4711 60.1237L17.8783 58.68ZM12.7583 56.12L11.8981 57.3488L11.9052 57.3538L11.9123 57.3587L12.7583 56.12ZM8.21425 51.704L7.00739 52.5948L7.01254 52.6017L7.01776 52.6087L8.21425 51.704ZM4.95025 44.792L3.50715 45.2012L3.51082 45.2142L3.51471 45.227L4.95025 44.792ZM4.50225 22.648L3.02971 22.3623L3.02765 22.3729L3.02575 22.3836L4.50225 22.648ZM6.93425 16.824L5.91683 15.7218L5.90604 15.7317L5.89545 15.7419L6.93425 16.824ZM15.8943 16.056L15.2234 17.3976L15.2462 17.409L15.2693 17.4196L15.8943 16.056ZM18.0703 18.168L19.4358 17.5473L19.4358 17.5473L18.0703 18.168ZM18.7103 21.816L17.2102 21.816L17.2103 21.8221L18.7103 21.816ZM18.7743 37.432L20.2743 37.432L20.2742 37.4259L18.7743 37.432ZM19.7343 46.328L21.1506 45.8339L21.1506 45.8339L19.7343 46.328ZM25.6223 47.928L26.9022 48.7102L26.9115 48.695L26.9204 48.6796L25.6223 47.928ZM26.5823 44.088L28.0752 44.2336L28.0985 43.9944L28.0459 43.7599L26.5823 44.088ZM25.9423 25.464L24.4463 25.3545L24.4463 25.3545L25.9423 25.464ZM26.5183 20.92L25.0474 20.6258L25.0474 20.6258L26.5183 20.92ZM29.7823 17.016L30.2055 18.455L30.2312 18.4475L30.2566 18.439L29.7823 17.016ZM34.9023 16.696L34.7872 18.1916L34.7954 18.1922L34.9023 16.696ZM36.5662 17.08L35.9893 18.4646L35.9893 18.4646L36.5662 17.08ZM38.8063 18.616L37.5408 19.4213L37.5408 19.4213L38.8063 18.616ZM39.5103 19.832L38.1686 20.5028L38.1686 20.5028L39.5103 19.832ZM39.9583 21.496L38.4787 21.7426L38.4853 21.7822L38.494 21.8214L39.9583 21.496ZM40.2783 23.544L38.7821 23.6509L38.7864 23.7118L38.7957 23.7721L40.2783 23.544ZM40.4062 26.104H38.9062V26.1328L38.9074 26.1617L40.4062 26.104ZM40.4703 29.048H38.9703V29.0874L38.9723 29.1268L40.4703 29.048ZM39.7023 44.472L38.2363 44.1544L38.1844 44.394L38.2114 44.6376L39.7023 44.472ZM40.6623 47.864L39.4029 48.6789L39.4029 48.6789L40.6623 47.864ZM42.8383 50.452C43.9548 50.452 44.9956 50.145 45.8712 49.464C46.7313 48.795 47.3196 47.8529 47.7069 46.7685L44.8816 45.7595C44.6289 46.4671 44.3212 46.869 44.0293 47.096C43.7529 47.311 43.3857 47.452 42.8383 47.452V50.452ZM47.7106 46.7581C48.4391 44.6697 48.7543 41.4881 48.7543 37.368H45.7543C45.7543 41.4399 45.4294 44.189 44.878 45.7699L47.7106 46.7581ZM48.7542 37.3802L48.8822 21.7002L45.8823 21.6758L45.7543 37.3558L48.7542 37.3802ZM48.8823 21.688C48.8823 19.6073 49.3595 18.4401 49.9789 17.8207L47.8576 15.6993C46.429 17.1279 45.8823 19.246 45.8823 21.688H48.8823ZM49.9789 17.8207C50.6223 17.1772 51.936 16.66 54.3583 16.66V13.66C51.6606 13.66 49.3475 14.2094 47.8576 15.6993L49.9789 17.8207ZM54.3583 16.66C55.7968 16.66 56.7779 16.8968 57.416 17.2448L58.8525 14.6112C57.6133 13.9352 56.077 13.66 54.3583 13.66V16.66ZM57.4404 17.2579C58.0132 17.5567 58.6578 18.2291 59.266 19.5596L61.9945 18.3124C61.2374 16.6563 60.218 15.3233 58.8281 14.5981L57.4404 17.2579ZM59.266 19.5596C59.8527 20.8429 60.2979 22.6873 60.5457 25.1653L63.5308 24.8667C63.2666 22.2247 62.7732 20.0158 61.9945 18.3124L59.266 19.5596ZM60.5457 25.1653C60.7946 27.6544 60.9223 30.9906 60.9223 35.192H63.9223C63.9223 30.9454 63.7939 27.4976 63.5308 24.8667L60.5457 25.1653ZM60.9223 35.192C60.9223 37.6252 60.716 39.8742 60.3103 41.9434L63.2542 42.5206C63.7018 40.2378 63.9223 37.7935 63.9223 35.192H60.9223ZM60.3103 41.9434C59.9003 44.0341 59.3542 45.8197 58.685 47.3154L61.4235 48.5405C62.205 46.7936 62.8108 44.7819 63.2542 42.5206L60.3103 41.9434ZM58.685 47.3154C58.0054 48.8347 57.1908 50.203 56.2442 51.4257L58.6163 53.2623C59.7177 51.8397 60.6525 50.264 61.4235 48.5405L58.685 47.3154ZM56.2398 51.4314C55.3262 52.623 54.3711 53.5924 53.3797 54.3551L55.2088 56.7329C56.4361 55.7889 57.5716 54.625 58.6207 53.2566L56.2398 51.4314ZM53.3797 54.3551C52.3505 55.1467 51.2649 55.8175 50.1221 56.3692L51.4264 59.0708C52.7582 58.4279 54.0193 57.6479 55.2088 56.7329L53.3797 54.3551ZM50.1607 56.3512C49.009 56.8675 47.8932 57.2376 46.812 57.4693L47.4405 60.4027C48.7487 60.1224 50.0648 59.6819 51.3878 59.0888L50.1607 56.3512ZM46.8531 57.4611C45.7862 57.6587 44.747 57.756 43.7343 57.756V60.756C44.9402 60.756 46.1623 60.64 47.3994 60.4109L46.8531 57.4611ZM43.7343 57.756C40.2391 57.756 37.0847 56.6583 34.2254 54.4257L32.3791 56.7903C35.7492 59.4217 39.5494 60.756 43.7343 60.756V57.756ZM32.3515 54.4478C29.541 56.7509 26.3977 57.884 22.8703 57.884V60.884C27.1081 60.884 30.9195 59.4998 34.253 56.7682L32.3515 54.4478ZM22.8703 57.884C21.3492 57.884 19.8221 57.6698 18.2854 57.2363L17.4711 60.1237C19.2624 60.6289 21.0633 60.884 22.8703 60.884V57.884ZM18.3194 57.2463C16.8266 56.787 15.2551 56.0087 13.6042 54.8813L11.9123 57.3587C13.7601 58.6206 15.6019 59.549 17.4371 60.1137L18.3194 57.2463ZM13.6184 54.8912C12.0467 53.791 10.6439 52.4303 9.41074 50.7993L7.01776 52.6087C8.4299 54.4763 10.0564 56.0597 11.8981 57.3488L13.6184 54.8912ZM9.42111 50.8132C8.22689 49.1952 7.20448 47.0587 6.38579 44.357L3.51471 45.227C4.40269 48.1573 5.55628 50.6288 7.00739 52.5948L9.42111 50.8132ZM6.39335 44.3828C5.62599 41.6768 5.23425 38.6596 5.23425 35.32H2.23425C2.23425 38.8924 2.65318 42.1898 3.50715 45.2012L6.39335 44.3828ZM5.23425 35.32C5.23425 29.7541 5.49076 25.6371 5.97876 22.9124L3.02575 22.3836C2.48974 25.3762 2.23425 29.7073 2.23425 35.32H5.23425ZM5.97479 22.9337C6.51835 20.1323 7.26014 18.5905 7.97305 17.9061L5.89545 15.7419C4.47502 17.1055 3.59548 19.4464 3.02971 22.3623L5.97479 22.9337ZM7.95167 17.9262C8.69257 17.2423 9.87456 16.788 11.7343 16.788V13.788C9.41261 13.788 7.39459 14.3577 5.91683 15.7218L7.95167 17.9262ZM11.7343 16.788C13.3625 16.788 14.4888 17.0303 15.2234 17.3976L16.5651 14.7144C15.2517 14.0577 13.6047 13.788 11.7343 13.788V16.788ZM15.2693 17.4196C15.9978 17.7535 16.4417 18.2101 16.7047 18.7887L19.4358 17.5473C18.8455 16.2486 17.8387 15.2972 16.5192 14.6924L15.2693 17.4196ZM16.7047 18.7887C17.0123 19.4654 17.2103 20.4483 17.2103 21.816H20.2103C20.2103 20.1971 19.9816 18.748 19.4358 17.5473L16.7047 18.7887ZM17.2103 21.8221L17.2743 37.4381L20.2742 37.4259L20.2102 21.8099L17.2103 21.8221ZM17.2743 37.432C17.2743 41.5521 17.5894 44.7337 18.318 46.8221L21.1506 45.8339C20.5991 44.253 20.2743 41.5039 20.2743 37.432H17.2743ZM18.318 46.8221C18.7134 47.9556 19.3439 48.9258 20.2748 49.6042C21.2099 50.2857 22.3208 50.58 23.5103 50.58V47.58C22.8224 47.58 22.3653 47.4156 22.0417 47.1798C21.7139 46.9409 21.3951 46.535 21.1506 45.8339L18.318 46.8221ZM23.5103 50.58C24.9442 50.58 26.1464 49.9469 26.9022 48.7102L24.3423 47.1458C24.1594 47.4451 23.9537 47.58 23.5103 47.58V50.58ZM26.9204 48.6796C27.5546 47.5841 27.8988 46.0417 28.0752 44.2336L25.0893 43.9424C24.9244 45.633 24.6286 46.6506 24.3241 47.1764L26.9204 48.6796ZM28.0459 43.7599C27.5294 41.4554 27.2503 37.7327 27.2503 32.504H24.2503C24.2503 37.7713 24.5258 41.7712 25.1186 44.4161L28.0459 43.7599ZM27.2503 32.504C27.2503 29.5757 27.3141 27.2702 27.4383 25.5735L24.4463 25.3545C24.3144 27.1564 24.2503 29.5443 24.2503 32.504H27.2503ZM27.4383 25.5735C27.5631 23.8666 27.7486 22.4166 27.9891 21.2142L25.0474 20.6258C24.7759 21.9834 24.5774 23.5628 24.4463 25.3545L27.4383 25.5735ZM27.9891 21.2142C28.2176 20.0719 28.554 19.5132 28.8189 19.2672L26.7776 17.0688C25.8479 17.9321 25.3309 19.2081 25.0474 20.6258L27.9891 21.2142ZM28.8189 19.2672C29.2597 18.8579 29.7201 18.5978 30.2055 18.455L29.359 15.577C28.3938 15.8608 27.5315 16.3688 26.7776 17.0688L28.8189 19.2672ZM30.2566 18.439C30.8057 18.256 31.6682 18.132 32.9183 18.132V15.132C31.5229 15.132 30.2948 15.264 29.3079 15.593L30.2566 18.439ZM32.9183 18.132C33.6611 18.132 34.2821 18.1527 34.7872 18.1916L35.0173 15.2004C34.4131 15.1539 33.7114 15.132 32.9183 15.132V18.132ZM34.7954 18.1922C35.2439 18.2242 35.6384 18.3184 35.9893 18.4646L37.1432 15.6954C36.4701 15.4149 35.7553 15.2531 35.0091 15.1998L34.7954 18.1922ZM35.9893 18.4646C36.4824 18.6701 36.8752 18.8475 37.1754 18.9976L38.5171 16.3144C38.1346 16.1231 37.6741 15.9166 37.1432 15.6954L35.9893 18.4646ZM37.1754 18.9976C37.1869 19.0034 37.3253 19.0827 37.5408 19.4213L40.0717 17.8107C39.6899 17.2106 39.1883 16.65 38.5171 16.3144L37.1754 18.9976ZM37.5408 19.4213C37.823 19.8649 38.0288 20.2232 38.1686 20.5028L40.8519 19.1612C40.6504 18.7581 40.3868 18.3058 40.0717 17.8107L37.5408 19.4213ZM38.1686 20.5028C38.2339 20.6334 38.3552 21.0021 38.4787 21.7426L41.4378 21.2494C41.3053 20.4539 41.128 19.7133 40.8519 19.1612L38.1686 20.5028ZM38.494 21.8214C38.6533 22.5384 38.746 23.1457 38.7821 23.6509L41.7744 23.4371C41.7252 22.7476 41.6045 21.9896 41.4225 21.1706L38.494 21.8214ZM38.7957 23.7721C38.8628 24.208 38.9062 24.9664 38.9062 26.104H41.9062C41.9062 24.9376 41.8644 23.9893 41.7608 23.3159L38.7957 23.7721ZM38.9074 26.1617C38.9495 27.2571 38.9703 28.2186 38.9703 29.048H41.9703C41.9703 28.1707 41.9483 27.1695 41.9051 26.0463L38.9074 26.1617ZM38.9723 29.1268C39.0129 29.8975 39.0343 31.0396 39.0343 32.568H42.0343C42.0343 31.0244 42.0129 29.8198 41.9682 28.9692L38.9723 29.1268ZM39.0343 32.568C39.0343 37.9242 38.7553 41.7588 38.2363 44.1544L41.1682 44.7896C41.7585 42.0652 42.0343 37.9638 42.0343 32.568H39.0343ZM38.2114 44.6376C38.3906 46.2498 38.7432 47.6593 39.4029 48.6789L41.9216 47.0491C41.6427 46.618 41.3553 45.7662 41.1931 44.3064L38.2114 44.6376ZM39.4029 48.6789C40.1901 49.8954 41.4294 50.452 42.8383 50.452V47.452C42.2845 47.452 42.0731 47.2832 41.9216 47.0491L39.4029 48.6789ZM72.6473 55.352L71.712 56.5248L71.7192 56.5305L72.6473 55.352ZM72.5833 32.44L73.569 33.5707L73.57 33.5697L72.5833 32.44ZM96.5193 30.712L95.5983 31.896L95.6105 31.9054L95.6228 31.9146L96.5193 30.712ZM99.7833 39.672L98.3496 39.2309L98.3338 39.2823L98.3217 39.3347L99.7833 39.672ZM99.0793 41.336L97.8018 40.5499L97.7925 40.5649L97.7836 40.5802L99.0793 41.336ZM97.7993 42.808L98.7596 43.9604L98.7682 43.9531L97.7993 42.808ZM96.0073 44.024L96.6781 45.3656L96.7108 45.3493L96.7426 45.3314L96.0073 44.024ZM93.5753 44.856L93.8436 46.3318L93.8758 46.326L93.9077 46.3187L93.5753 44.856ZM90.5673 45.112V43.612L90.5566 43.612L90.5673 45.112ZM81.5433 45.176L81.5326 43.676L79.5075 43.6904L80.1115 45.6234L81.5433 45.176ZM83.8472 48.44L82.9622 49.6511L82.9777 49.6624L82.9934 49.6733L83.8472 48.44ZM93.7033 48.888L94.0594 50.3451L94.0722 50.342L94.085 50.3386L93.7033 48.888ZM96.3273 47.864L95.6801 46.5108L95.6682 46.5165L95.6564 46.5224L96.3273 47.864ZM100.103 47.8L98.9883 48.8034L99.0147 48.8328L99.0426 48.8607L100.103 47.8ZM99.7193 52.216L100.983 53.0246L100.99 53.0134L100.997 53.0021L99.7193 52.216ZM96.8393 55.48L97.8383 56.5989L97.8406 56.5969L96.8393 55.48ZM92.0393 58.232L92.5757 59.6328L92.0393 58.232ZM81.2233 41.08L79.7294 40.9442L79.5785 42.604L81.245 42.5798L81.2233 41.08ZM87.4313 39.864L88.8293 40.4077L88.8313 40.4025L87.4313 39.864ZM83.5273 34.488L82.4307 33.4645L82.4118 33.4847L82.3937 33.5056L83.5273 34.488ZM82.0553 37.24L83.4619 37.761L83.4649 37.7528L83.4679 37.7445L82.0553 37.24ZM85.5753 57.884C80.6375 57.884 76.6746 56.6142 73.5753 54.1735L71.7192 56.5305C75.4466 59.4658 80.1023 60.884 85.5753 60.884V57.884ZM73.5825 54.1792C70.5998 51.8006 69.0913 48.5794 69.0913 44.344H66.0913C66.0913 49.4099 67.9534 53.5274 71.712 56.5247L73.5825 54.1792ZM69.0913 44.344C69.0913 39.6752 70.6155 36.1455 73.569 33.5707L71.5975 31.3093C67.895 34.5372 66.0913 38.9435 66.0913 44.344H69.0913ZM73.57 33.5697C76.6191 30.9066 80.5778 29.524 85.5753 29.524V26.524C79.9914 26.524 75.2887 28.0854 71.5965 31.3102L73.57 33.5697ZM85.5753 29.524C90.4478 29.524 93.6876 30.4099 95.5983 31.896L97.4402 29.528C94.7429 27.4301 90.6867 26.524 85.5753 26.524V29.524ZM95.6228 31.9146C97.5682 33.3648 98.5393 35.3182 98.5393 37.944H101.539C101.539 34.4258 100.164 31.5578 97.4157 29.5094L95.6228 31.9146ZM98.5393 37.944C98.5393 38.3962 98.475 38.8233 98.3496 39.2309L101.217 40.1131C101.433 39.4114 101.539 38.6864 101.539 37.944H98.5393ZM98.3217 39.3347C98.2351 39.7097 98.0699 40.1142 97.8018 40.5499L100.357 42.1221C100.771 41.4485 101.075 40.7436 101.245 40.0093L98.3217 39.3347ZM97.7836 40.5802C97.5878 40.9158 97.2831 41.2798 96.8303 41.6629L98.7682 43.9531C99.4247 43.3975 99.9733 42.7802 100.375 42.0918L97.7836 40.5802ZM96.839 41.6557C96.408 42.0148 95.8884 42.3698 95.2719 42.7166L96.7426 45.3314C97.4914 44.9102 98.1665 44.4545 98.7595 43.9603L96.839 41.6557ZM95.3364 42.6824C94.785 42.9581 94.0932 43.2 93.2428 43.3933L93.9077 46.3187C94.9346 46.0853 95.8642 45.7726 96.6781 45.3656L95.3364 42.6824ZM93.3069 43.3802C92.4664 43.533 91.5543 43.612 90.5673 43.612V46.612C91.7135 46.612 92.8067 46.5203 93.8436 46.3318L93.3069 43.3802ZM90.5566 43.612L81.5326 43.676L81.5539 46.676L90.5779 46.612L90.5566 43.612ZM80.1115 45.6234C80.6298 47.2818 81.5824 48.6428 82.9622 49.6511L84.7323 47.2289C83.8934 46.6159 83.3101 45.8009 82.975 44.7286L80.1115 45.6234ZM82.9934 49.6733C84.4128 50.656 86.1405 51.092 88.0713 51.092V48.092C86.5887 48.092 85.5003 47.76 84.7011 47.2067L82.9934 49.6733ZM88.0713 51.092C90.0348 51.092 92.0318 50.8407 94.0594 50.3451L93.3471 47.4309C91.5347 47.8739 89.777 48.092 88.0713 48.092V51.092ZM94.085 50.3386C95.0168 50.0934 95.989 49.7102 96.9981 49.2056L95.6564 46.5224C94.7881 46.9565 94.0111 47.2559 93.3215 47.4374L94.085 50.3386ZM96.9744 49.2172C97.4323 48.9982 97.7928 48.8499 98.0656 48.759C98.3601 48.6609 98.4638 48.66 98.4393 48.66V45.66C97.988 45.66 97.5264 45.7765 97.1169 45.913C96.6857 46.0567 96.2036 46.2604 95.6801 46.5108L96.9744 49.2172ZM98.4393 48.66C98.8594 48.66 98.9602 48.7722 98.9883 48.8034L101.218 46.7966C100.478 45.9744 99.4698 45.66 98.4393 45.66V48.66ZM99.0426 48.8607C99.1696 48.9876 99.2433 49.131 99.2433 49.4H102.243C102.243 48.389 101.89 47.4657 101.164 46.7393L99.0426 48.8607ZM99.2433 49.4C99.2433 49.7585 99.0686 50.4113 98.4418 51.4299L100.997 53.0021C101.735 51.802 102.243 50.5775 102.243 49.4H99.2433ZM98.4558 51.4074C97.8649 52.3308 97.0039 53.3178 95.8379 54.3631L97.8406 56.5969C99.1493 55.4235 100.208 54.2345 100.983 53.0246L98.4558 51.4074ZM95.8402 54.3611C94.8189 55.273 93.3925 56.1075 91.5028 56.8312L92.5757 59.6328C94.6966 58.8205 96.4702 57.8204 97.8383 56.5989L95.8402 54.3611ZM91.5028 56.8312C89.6808 57.529 87.7093 57.884 85.5753 57.884V60.884C88.0492 60.884 90.387 60.471 92.5757 59.6328L91.5028 56.8312ZM81.245 42.5798C84.199 42.537 85.7816 42.516 86.0233 42.516V39.516C85.7529 39.516 84.1355 39.5376 81.2015 39.5802L81.245 42.5798ZM86.0233 42.516C86.6688 42.516 87.2868 42.313 87.8051 41.8889C88.299 41.4849 88.6185 40.9497 88.8293 40.4077L86.0332 39.3203C85.9454 39.5463 85.8809 39.5871 85.9054 39.5671C85.9202 39.5549 85.9467 39.5382 85.9806 39.5265C86.0134 39.5152 86.0313 39.516 86.0233 39.516V42.516ZM88.8313 40.4025C89.1399 39.6001 89.2513 38.6214 89.2513 37.56H86.2513C86.2513 38.4613 86.1493 39.0186 86.0312 39.3255L88.8313 40.4025ZM89.2513 37.56C89.2513 36.1141 89.042 34.7797 88.4277 33.7613C87.7401 32.6213 86.6344 32.028 85.3193 32.028V35.028C85.5134 35.028 85.6104 35.0667 85.6577 35.0929C85.7028 35.1178 85.7741 35.1702 85.8588 35.3107C86.0552 35.6363 86.2513 36.3179 86.2513 37.56H89.2513ZM85.3193 32.028C84.1446 32.028 83.1785 32.6632 82.4307 33.4645L84.6238 35.5115C85.0706 35.0328 85.2992 35.028 85.3193 35.028V32.028ZM82.3937 33.5056C81.6723 34.338 81.1037 35.4444 80.6426 36.7355L83.4679 37.7445C83.8601 36.6463 84.2728 35.918 84.6608 35.4704L82.3937 33.5056ZM80.6486 36.719C80.1697 38.012 79.8676 39.4239 79.7294 40.9442L82.7171 41.2158C82.8349 39.9201 83.0874 38.772 83.4619 37.761L80.6486 36.719ZM109.11 55.288L107.938 56.2251L107.946 56.2339L109.11 55.288ZM109.046 32.376L107.854 31.4648L107.852 31.4675L109.046 32.376ZM127.094 31.672L126.138 32.8284L127.546 33.9913L128.414 32.3847L127.094 31.672ZM138.038 30.008L137.101 31.1793L137.113 31.189L137.125 31.1984L138.038 30.008ZM138.358 57.528L139.373 58.6319L139.385 58.6211L139.397 58.6101L138.358 57.528ZM127.158 56.632L128.462 55.8916L127.664 54.4848L126.321 55.3869L127.158 56.632ZM126.198 37.816H127.698V37.4087L127.492 37.0574L126.198 37.816ZM120.694 38.392L119.311 37.8099L119.311 37.8099L120.694 38.392ZM120.63 49.208L122.014 48.6311L122.014 48.6311L120.63 49.208ZM126.198 49.784L127.467 50.5832L127.698 50.2169V49.784H126.198ZM117.494 57.884C114.597 57.884 112.222 56.7399 110.274 54.3421L107.946 56.2339C110.435 59.2974 113.649 60.884 117.494 60.884V57.884ZM110.281 54.351C108.338 51.9227 107.282 48.5155 107.282 43.96H104.282C104.282 48.9619 105.444 53.1066 107.938 56.225L110.281 54.351ZM107.282 43.96C107.282 39.3093 108.322 35.8034 110.239 33.2845L107.852 31.4675C105.418 34.666 104.282 38.8827 104.282 43.96H107.282ZM110.237 33.2872C112.195 30.7268 114.584 29.524 117.494 29.524V26.524C113.577 26.524 110.334 28.2225 107.854 31.4648L110.237 33.2872ZM117.494 29.524C120.564 29.524 123.433 30.5937 126.138 32.8284L128.049 30.5156C124.866 27.8863 121.336 26.524 117.494 26.524V29.524ZM128.414 32.3847C128.875 31.53 129.442 30.9492 130.097 30.5725C130.757 30.1933 131.593 29.972 132.662 29.972V26.972C131.171 26.972 129.799 27.284 128.602 27.9715C127.402 28.6615 126.464 29.6806 125.774 30.9593L128.414 32.3847ZM132.662 29.972C134.761 29.972 136.176 30.4397 137.101 31.1793L138.975 28.8367C137.339 27.5283 135.171 26.972 132.662 26.972V29.972ZM137.125 31.1984C137.845 31.7505 138.458 32.9836 138.458 35.512H141.458C141.458 32.6644 140.79 30.2282 138.95 28.8176L137.125 31.1984ZM138.458 35.512V52.152H141.458V35.512H138.458ZM138.458 52.152C138.458 54.583 137.937 55.8527 137.319 56.4459L139.397 58.6101C140.912 57.1553 141.458 54.841 141.458 52.152H138.458ZM137.342 56.4241C136.708 57.0073 135.324 57.5 132.726 57.5V60.5C135.504 60.5 137.874 60.0114 139.373 58.6319L137.342 56.4241ZM132.726 57.5C130.13 57.5 128.965 56.7765 128.462 55.8916L125.853 57.3724C127.143 59.6448 129.69 60.5 132.726 60.5V57.5ZM126.321 55.3869C123.869 57.0346 120.947 57.884 117.494 57.884V60.884C121.464 60.884 124.985 59.8987 127.994 57.8771L126.321 55.3869ZM127.492 37.0574C126.574 35.4917 125.202 34.46 123.382 34.46V37.46C123.865 37.46 124.371 37.6656 124.904 38.5746L127.492 37.0574ZM123.382 34.46C121.352 34.46 120.074 35.9986 119.311 37.8099L122.076 38.9741C122.679 37.5428 123.193 37.46 123.382 37.46V34.46ZM119.311 37.8099C118.538 39.6468 118.17 41.7064 118.17 43.96H121.17C121.17 42.0323 121.484 40.3799 122.076 38.9741L119.311 37.8099ZM118.17 43.96C118.17 46.0857 118.517 48.0364 119.245 49.7849L122.014 48.6311C121.463 47.3076 121.17 45.7596 121.17 43.96H118.17ZM119.245 49.7849C119.997 51.5887 121.297 53.012 123.318 53.012V50.012C123.034 50.012 122.543 49.8993 122.014 48.6311L119.245 49.7849ZM123.318 53.012C125.107 53.012 126.512 52.0996 127.467 50.5832L124.928 48.9848C124.432 49.7724 123.917 50.012 123.318 50.012V53.012ZM127.698 49.784V37.816H124.698V49.784H127.698ZM158.135 57.528L159.151 58.6319L159.163 58.6211L159.174 58.6101L158.135 57.528ZM147.319 57.272L146.119 58.172L146.127 58.1825L146.135 58.1929L147.319 57.272ZM146.743 31.928L148.096 32.5771L148.1 32.5669L148.105 32.5566L146.743 31.928ZM158.839 31.288L157.522 32.0063L158.357 33.5366L159.746 32.483L158.839 31.288ZM165.111 40.056L164.257 41.2893L164.279 41.3039L164.3 41.3178L165.111 40.056ZM163.511 38.904L162.561 40.0649L162.586 40.085L162.611 40.104L163.511 38.904ZM159.735 39.288L158.526 38.401L158.235 38.7969V39.288H159.735ZM158.235 52.152C158.235 54.583 157.714 55.8527 157.096 56.4459L159.174 58.6101C160.689 57.1553 161.235 54.841 161.235 52.152H158.235ZM157.12 56.4241C156.489 57.0045 155.087 57.5 152.439 57.5V60.5C155.252 60.5 157.648 60.0141 159.151 58.6319L157.12 56.4241ZM152.439 57.5C150.06 57.5 148.962 56.941 148.503 56.3511L146.135 58.1929C147.468 59.907 149.784 60.5 152.439 60.5V57.5ZM148.519 56.372C147.921 55.5741 147.475 54.0398 147.475 51.448H144.475C144.475 54.2322 144.926 56.5806 146.119 58.172L148.519 56.372ZM147.475 51.448V35.704H144.475V51.448H147.475ZM147.475 35.704C147.475 34.4282 147.7 33.4006 148.096 32.5771L145.391 31.2789C144.762 32.5887 144.475 34.0784 144.475 35.704H147.475ZM148.105 32.5566C148.501 31.6997 149.053 31.0817 149.763 30.6493L148.203 28.0867C146.951 28.849 146.01 29.9376 145.381 31.2994L148.105 32.5566ZM149.763 30.6493C150.476 30.2156 151.349 29.972 152.439 29.972V26.972C150.884 26.972 149.453 27.3258 148.203 28.0867L149.763 30.6493ZM152.439 29.972C155.443 29.972 156.882 30.8325 157.522 32.0063L160.156 30.5697C158.748 27.9888 155.921 26.972 152.439 26.972V29.972ZM159.746 32.483C162.05 30.7353 164.128 29.972 166.007 29.972V26.972C163.279 26.972 160.578 28.086 157.933 30.093L159.746 32.483ZM166.007 29.972C168.034 29.972 169.275 30.4558 170.013 31.1582C170.737 31.8476 171.227 32.9891 171.227 34.872H174.227C174.227 32.4883 173.598 30.4297 172.082 28.9858C170.579 27.5549 168.461 26.972 166.007 26.972V29.972ZM171.227 34.872C171.227 36.2734 170.834 37.2748 170.151 38.0164L172.359 40.0476C173.64 38.6559 174.227 36.8839 174.227 34.872H171.227ZM170.151 38.0164C169.481 38.7449 168.616 39.132 167.415 39.132V42.132C169.372 42.132 171.067 41.4524 172.359 40.0476L170.151 38.0164ZM167.415 39.132C166.674 39.132 166.211 38.98 165.922 38.7942L164.3 41.3178C165.206 41.9 166.28 42.132 167.415 42.132V39.132ZM165.965 38.8227C165.425 38.4489 164.907 38.076 164.411 37.704L162.611 40.104C163.139 40.5 163.688 40.8951 164.257 41.2893L165.965 38.8227ZM164.461 37.7431C163.708 37.127 162.813 36.828 161.847 36.828V39.828C162.162 39.828 162.376 39.913 162.561 40.0649L164.461 37.7431ZM161.847 36.828C160.53 36.828 159.331 37.3022 158.526 38.401L160.945 40.175C161.078 39.9938 161.287 39.828 161.847 39.828V36.828ZM158.235 39.288V52.152H161.235V39.288H158.235ZM208.099 17.848L207.343 19.1437L207.343 19.1437L208.099 17.848ZM213.027 26.168L211.761 25.3627L211.751 25.3793L211.741 25.3963L213.027 26.168ZM212.003 27.128L212.612 28.4987L212.643 28.4849L212.674 28.4696L212.003 27.128ZM207.267 26.232L206.567 27.5586L206.581 27.5663L206.596 27.5736L207.267 26.232ZM202.147 23.864L201.552 25.2411L201.565 25.2468L201.579 25.2523L202.147 23.864ZM193.763 27.576L192.501 28.3871L192.535 28.4404L192.574 28.4906L193.763 27.576ZM195.747 29.368L194.875 30.5886L194.895 30.6027L194.915 30.6161L195.747 29.368ZM198.371 30.968L197.648 32.2823L197.648 32.2823L198.371 30.968ZM201.891 32.888L201.175 34.2063L201.19 34.2143L201.205 34.2219L201.891 32.888ZM205.667 34.936L204.911 36.2317L204.923 36.2384L205.667 34.936ZM212.579 40.312L211.393 41.2309L211.393 41.2309L212.579 40.312ZM189.859 58.744L189.542 60.2103L189.548 60.2115L189.859 58.744ZM184.099 56.888L183.457 58.2436L183.463 58.2468L183.47 58.2499L184.099 56.888ZM179.747 54.328L178.84 55.523L178.85 55.5304L178.86 55.5376L179.747 54.328ZM176.931 51.448L178.187 50.6286L178.187 50.6286L176.931 51.448ZM176.867 46.328L175.772 45.3021L175.77 45.3045L176.867 46.328ZM186.083 47.032L185.603 48.4532L185.611 48.4559L185.619 48.4586L186.083 47.032ZM196.963 45.688L195.558 46.2147L195.601 46.3276L195.66 46.4322L196.963 45.688ZM196.195 44.728L195.134 45.7887L195.2 45.8547L195.274 45.912L196.195 44.728ZM194.979 43.832L194.119 45.0608L194.187 45.1088L194.26 45.1488L194.979 43.832ZM193.123 42.744L192.394 44.0552L192.409 44.0635L192.424 44.0714L193.123 42.744ZM190.755 41.464L190.026 42.7752L190.041 42.7835L190.056 42.7914L190.755 41.464ZM183.971 37.752L184.715 36.4496L184.711 36.4475L183.971 37.752ZM179.875 34.424L178.725 35.3879L178.734 35.3986L178.744 35.4092L179.875 34.424ZM177.443 30.52L176.044 31.0615L176.047 31.0693L176.05 31.0771L177.443 30.52ZM181.475 18.104L180.609 16.879L180.609 16.879L181.475 18.104ZM195.107 16.212C199.978 16.212 204.035 17.2138 207.343 19.1437L208.855 16.5523C204.995 14.3009 200.391 13.212 195.107 13.212V16.212ZM207.343 19.1437C210.823 21.1737 211.975 23.0038 211.975 24.504H214.975C214.975 21.3109 212.543 18.7037 208.855 16.5523L207.343 19.1437ZM211.975 24.504C211.975 24.9026 211.885 25.1686 211.761 25.3627L214.292 26.9733C214.766 26.2288 214.975 25.3854 214.975 24.504H211.975ZM211.741 25.3963C211.625 25.5894 211.492 25.7063 211.332 25.7864L212.674 28.4696C213.367 28.1231 213.917 27.6 214.313 26.9397L211.741 25.3963ZM211.394 25.7573C211.223 25.8332 211.007 25.884 210.723 25.884V28.884C211.377 28.884 212.015 28.7641 212.612 28.4987L211.394 25.7573ZM210.723 25.884C210.337 25.884 209.462 25.6525 207.938 24.8904L206.596 27.5736C208.144 28.3475 209.573 28.884 210.723 28.884V25.884ZM207.967 24.9054C206.381 24.0687 204.63 23.2591 202.715 22.4757L201.579 25.2523C203.418 26.0049 205.08 26.774 206.567 27.5586L207.967 24.9054ZM202.741 22.4869C200.729 21.6181 198.797 21.148 196.963 21.148V24.148C198.286 24.148 199.809 24.4886 201.552 25.2411L202.741 22.4869ZM196.963 21.148C195.539 21.148 194.193 21.4313 193.184 22.2524C192.116 23.1217 191.687 24.3736 191.687 25.72H194.687C194.687 25.0184 194.887 24.7343 195.077 24.5796C195.327 24.3767 195.869 24.148 196.963 24.148V21.148ZM191.687 25.72C191.687 26.6786 191.979 27.5753 192.501 28.3871L195.025 26.7649C194.778 26.382 194.687 26.0414 194.687 25.72H191.687ZM192.574 28.4906C193.127 29.2094 193.919 29.906 194.875 30.5886L196.619 28.1474C195.782 27.55 195.252 27.0519 194.952 26.6614L192.574 28.4906ZM194.915 30.6161C195.842 31.2346 196.754 31.7905 197.648 32.2823L199.094 29.6537C198.281 29.2069 197.443 28.6961 196.579 28.1199L194.915 30.6161ZM197.648 32.2823C198.505 32.7536 199.681 33.3951 201.175 34.2063L202.606 31.5697C201.114 30.7596 199.943 30.1211 199.094 29.6537L197.648 32.2823ZM201.205 34.2219C202.683 34.9823 203.917 35.6519 204.911 36.2317L206.423 33.6403C205.368 33.0254 204.085 32.3297 202.577 31.5541L201.205 34.2219ZM204.923 36.2384C208.146 38.0804 210.25 39.7552 211.393 41.2309L213.764 39.3931C212.263 37.4554 209.758 35.5462 206.411 33.6336L204.923 36.2384ZM211.393 41.2309C212.506 42.6669 213.063 44.3041 213.063 46.2H216.063C216.063 43.6585 215.297 41.3705 213.764 39.3931L211.393 41.2309ZM213.063 46.2C213.063 50.2439 211.724 53.0624 209.205 54.9314C206.602 56.8625 202.517 57.948 196.707 57.948V60.948C202.8 60.948 207.643 59.8255 210.993 57.3406C214.426 54.7936 216.063 50.9881 216.063 46.2H213.063ZM196.707 57.948C194.461 57.948 192.282 57.7235 190.169 57.2765L189.548 60.2115C191.873 60.7032 194.259 60.948 196.707 60.948V57.948ZM190.175 57.2777C188.085 56.8268 186.273 56.2393 184.727 55.5261L183.47 58.2499C185.253 59.0727 187.281 59.7225 189.542 60.2103L190.175 57.2777ZM184.741 55.5324C183.195 54.8 181.828 53.994 180.634 53.1184L178.86 55.5376C180.226 56.5393 181.76 57.44 183.457 58.2436L184.741 55.5324ZM180.653 53.133C179.511 52.2666 178.708 51.4271 178.187 50.6286L175.674 52.2674C176.434 53.4316 177.508 54.5121 178.84 55.523L180.653 53.133ZM178.187 50.6286C177.649 49.803 177.471 49.1686 177.471 48.696H174.471C174.471 49.93 174.933 51.1303 175.674 52.2674L178.187 50.6286ZM177.471 48.696C177.471 48.1072 177.645 47.6925 177.963 47.3515L175.77 45.3045C174.894 46.2435 174.471 47.4074 174.471 48.696H177.471ZM177.961 47.3539C178.244 47.0522 178.717 46.804 179.619 46.804V43.804C178.131 43.804 176.77 44.2384 175.772 45.3021L177.961 47.3539ZM179.619 46.804C179.847 46.804 180.436 46.8955 181.519 47.1851C182.553 47.4614 183.911 47.8821 185.603 48.4532L186.562 45.6108C184.841 45.0299 183.415 44.5866 182.294 44.2869C181.223 44.0005 180.286 43.804 179.619 43.804V46.804ZM185.619 48.4586C189.091 49.587 192.017 50.196 194.339 50.196V47.196C192.479 47.196 189.901 46.6957 186.546 45.6054L185.619 48.4586ZM194.339 50.196C195.424 50.196 196.505 50.0174 197.35 49.4353C198.296 48.7836 198.719 47.7896 198.719 46.712H195.719C195.719 46.8611 195.692 46.9191 195.689 46.9267C195.688 46.9271 195.687 46.938 195.648 46.9647C195.533 47.0439 195.173 47.196 194.339 47.196V50.196ZM198.719 46.712C198.719 46.098 198.58 45.4946 198.265 44.9438L195.66 46.4322C195.687 46.4787 195.719 46.558 195.719 46.712H198.719ZM198.367 45.1613C198.114 44.4873 197.647 43.9575 197.116 43.544L195.274 45.912C195.51 46.0958 195.555 46.2061 195.558 46.2147L198.367 45.1613ZM197.255 43.6673C196.803 43.2145 196.279 42.8325 195.697 42.5152L194.26 45.1488C194.617 45.3435 194.904 45.5589 195.134 45.7887L197.255 43.6673ZM195.839 42.6032C195.336 42.251 194.653 41.8542 193.821 41.4166L192.424 44.0714C193.214 44.4871 193.768 44.8156 194.119 45.0608L195.839 42.6032ZM193.851 41.4328C193.073 41.0004 192.274 40.5683 191.453 40.1366L190.056 42.7914C190.857 43.213 191.637 43.6343 192.394 44.0552L193.851 41.4328ZM191.483 40.1528C190.704 39.7201 189.672 39.1609 188.389 38.4765L186.977 41.1235C188.253 41.8044 189.269 42.3545 190.026 42.7752L191.483 40.1528ZM188.389 38.4765C187.121 37.8003 185.896 37.1247 184.715 36.4496L183.227 39.0544C184.435 39.7446 185.685 40.4344 186.977 41.1235L188.389 38.4765ZM184.711 36.4475C183.275 35.6321 182.043 34.6293 181.006 33.4388L178.744 35.4092C180.011 36.864 181.51 38.0799 183.23 39.0565L184.711 36.4475ZM181.024 33.4601C179.992 32.2299 179.276 31.0634 178.835 29.9629L176.05 31.0771C176.634 32.5366 177.539 33.9728 178.725 35.3879L181.024 33.4601ZM178.842 29.9785C178.379 28.7826 178.175 27.7525 178.175 26.872H175.175C175.175 28.2101 175.483 29.6121 176.044 31.0615L178.842 29.9785ZM178.175 26.872C178.175 23.8259 179.495 21.3399 182.34 19.329L180.609 16.879C177.055 19.3908 175.175 22.7501 175.175 26.872H178.175ZM182.34 19.329C185.189 17.316 189.382 16.212 195.107 16.212V13.212C189.056 13.212 184.16 14.3694 180.609 16.879L182.34 19.329ZM222.55 37.752H224.05V36.3108L222.61 36.2532L222.55 37.752ZM219.99 37.24L219.284 38.5635L219.32 38.5824L219.356 38.5993L219.99 37.24ZM218.582 35.96L217.241 36.6308L217.262 36.6741L217.287 36.7158L218.582 35.96ZM222.614 30.072L222.723 31.5681L224.114 31.4672V30.072H222.614ZM226.134 19.768L226.853 21.0848L226.862 21.0798L226.871 21.0747L226.134 19.768ZM235.862 19L234.535 19.6986L234.535 19.6986L235.862 19ZM236.502 22.648L235.002 22.648L235.002 22.661L236.502 22.648ZM236.566 30.008L235.066 30.021L235.079 31.508H236.566V30.008ZM243.094 30.968L242.194 32.168L242.228 32.193L242.262 32.2161L243.094 30.968ZM244.054 36.024L242.737 35.3057L242.737 35.3057L244.054 36.024ZM242.774 37.112L242.183 35.7333L242.164 35.7414L242.146 35.7501L242.774 37.112ZM240.726 37.688L240.883 39.1798L240.922 39.1757L240.96 39.1696L240.726 37.688ZM236.566 37.816V36.316H235.066V37.816H236.566ZM236.63 46.584L235.136 46.7198L235.144 46.7996L235.159 46.8782L236.63 46.584ZM236.95 47.608L235.609 48.2788L235.609 48.2788L236.95 47.608ZM237.462 48.12L236.905 49.5127L236.946 49.5291L236.988 49.543L237.462 48.12ZM239.638 47.736L240.699 48.7967L240.73 48.7655L240.759 48.7325L239.638 47.736ZM240.406 46.52L239.041 45.8993L239.026 45.9308L239.014 45.9629L240.406 46.52ZM241.174 45.304L240.053 44.3074L240.045 44.3162L241.174 45.304ZM244.566 45.432L243.553 46.5377L243.575 46.5578L243.597 46.5771L244.566 45.432ZM244.694 50.872L243.281 50.3704L243.273 50.3908L243.267 50.4115L244.694 50.872ZM242.774 54.712L244.009 55.5636L244.009 55.5636L242.774 54.712ZM239.19 57.784L238.49 56.4574L238.482 56.4615L238.475 56.4657L239.19 57.784ZM225.174 55.8L226.334 54.8489L226.334 54.8489L225.174 55.8ZM224.05 45.304V37.752H221.05V45.304H224.05ZM222.61 36.2532C221.651 36.2148 221.016 36.0636 220.625 35.8807L219.356 38.5993C220.244 39.0138 221.317 39.2039 222.49 39.2508L222.61 36.2532ZM220.696 35.9165C220.247 35.6767 220.008 35.4273 219.878 35.2042L217.287 36.7158C217.754 37.5167 218.454 38.1206 219.284 38.5635L220.696 35.9165ZM219.924 35.2892C219.801 35.0441 219.698 34.651 219.698 34.04H216.698C216.698 34.965 216.851 35.8519 217.241 36.6308L219.924 35.2892ZM219.698 34.04C219.698 33.1443 219.956 32.6531 220.305 32.3397C220.698 31.9867 221.427 31.662 222.723 31.5681L222.506 28.5759C220.858 28.6953 219.379 29.1386 218.3 30.1083C217.176 31.1176 216.698 32.5037 216.698 34.04H219.698ZM224.114 30.072V24.12H221.114V30.072H224.114ZM224.114 24.12C224.114 23.3414 224.658 22.2817 226.853 21.0848L225.416 18.4512C222.917 19.8143 221.114 21.6559 221.114 24.12H224.114ZM226.871 21.0747C229.031 19.8572 231.105 19.284 233.11 19.284V16.284C230.508 16.284 227.931 17.0335 225.398 18.4613L226.871 21.0747ZM233.11 19.284C234.289 19.284 234.491 19.6152 234.535 19.6986L237.19 18.3014C236.38 16.7635 234.748 16.284 233.11 16.284V19.284ZM234.535 19.6986C234.792 20.1863 235.002 21.1094 235.002 22.648H238.002C238.002 20.944 237.786 19.435 237.19 18.3014L234.535 19.6986ZM235.002 22.661L235.066 30.021L238.066 29.995L238.002 22.635L235.002 22.661ZM236.566 31.508H238.294V28.508H236.566V31.508ZM238.294 31.508C239.408 31.508 240.289 31.5846 240.96 31.7189C241.646 31.856 242.016 32.0347 242.194 32.168L243.994 29.768C243.319 29.2613 242.463 28.96 241.548 28.7771C240.62 28.5914 239.527 28.508 238.294 28.508V31.508ZM242.262 32.2161C242.559 32.4137 242.938 32.9081 242.938 34.296H245.938C245.938 32.4412 245.422 30.717 243.926 29.7199L242.262 32.2161ZM242.938 34.296C242.938 34.7956 242.844 35.1095 242.737 35.3057L245.371 36.7423C245.776 35.9999 245.938 35.1618 245.938 34.296H242.938ZM242.737 35.3057C242.675 35.4202 242.54 35.5804 242.183 35.7333L243.365 38.4907C244.203 38.1316 244.922 37.5664 245.371 36.7423L242.737 35.3057ZM242.146 35.7501C241.751 35.9322 241.21 36.093 240.492 36.2064L240.96 39.1696C241.864 39.027 242.688 38.8038 243.403 38.4739L242.146 35.7501ZM240.569 36.1962C239.829 36.2742 238.882 36.316 237.718 36.316V39.316C238.944 39.316 240.003 39.2725 240.883 39.1798L240.569 36.1962ZM237.718 36.316H236.566V39.316H237.718V36.316ZM235.066 37.816V44.856H238.066V37.816H235.066ZM235.066 44.856C235.066 45.5658 235.088 46.1903 235.136 46.7198L238.124 46.4482C238.087 46.0391 238.066 45.5115 238.066 44.856H235.066ZM235.159 46.8782C235.259 47.3753 235.399 47.8588 235.609 48.2788L238.292 46.9372C238.246 46.8452 238.172 46.6461 238.101 46.2898L235.159 46.8782ZM235.609 48.2788C235.859 48.7795 236.273 49.2597 236.905 49.5127L238.019 46.7273C238.111 46.7638 238.184 46.8164 238.235 46.8673C238.283 46.9149 238.297 46.947 238.292 46.9372L235.609 48.2788ZM236.988 49.543C237.431 49.6908 237.896 49.748 238.358 49.748V46.748C238.137 46.748 238.005 46.7199 237.937 46.697L236.988 49.543ZM238.358 49.748C239.241 49.748 240.058 49.4377 240.699 48.7967L238.578 46.6753C238.536 46.717 238.499 46.748 238.358 46.748V49.748ZM240.759 48.7325C241.202 48.2341 241.557 47.6827 241.799 47.0771L239.014 45.9629C238.914 46.2106 238.757 46.4699 238.517 46.7395L240.759 48.7325ZM241.772 47.1407C241.933 46.7867 242.113 46.5091 242.303 46.2918L240.045 44.3162C239.638 44.7816 239.306 45.3146 239.041 45.8993L241.772 47.1407ZM242.295 46.3005C242.364 46.2238 242.398 46.2093 242.389 46.2136C242.385 46.2158 242.375 46.2202 242.36 46.2236C242.345 46.2271 242.333 46.228 242.326 46.228V43.228C241.384 43.228 240.616 43.6745 240.053 44.3075L242.295 46.3005ZM242.326 46.228C243.087 46.228 243.413 46.4101 243.553 46.5377L245.58 44.3263C244.695 43.5153 243.528 43.228 242.326 43.228V46.228ZM243.597 46.5771C243.84 46.7823 243.898 46.9499 243.898 47.16H246.898C246.898 46.0047 246.402 45.0204 245.535 44.2869L243.597 46.5771ZM243.898 47.16C243.898 48.1084 243.705 49.1748 243.281 50.3704L246.108 51.3736C246.622 49.9239 246.898 48.5156 246.898 47.16H243.898ZM243.267 50.4115C242.888 51.5843 242.317 52.7336 241.539 53.8604L244.009 55.5636C244.939 54.2157 245.647 52.8051 246.122 51.3325L243.267 50.4115ZM241.539 53.8604C240.843 54.8697 239.846 55.742 238.49 56.4574L239.89 59.1106C241.607 58.2046 242.998 57.029 244.009 55.5636L241.539 53.8604ZM238.475 56.4657C237.223 57.145 235.788 57.5 234.134 57.5V60.5C236.235 60.5 238.171 60.0443 239.906 59.1023L238.475 56.4657ZM234.134 57.5C230.118 57.5 227.674 56.4834 226.334 54.8489L224.014 56.7511C226.173 59.3833 229.702 60.5 234.134 60.5V57.5ZM226.334 54.8489C224.919 53.1229 224.05 50.0587 224.05 45.304H221.05C221.05 50.2773 221.931 54.2104 224.014 56.7511L226.334 54.8489ZM270.003 38.008L268.576 38.4716L268.58 38.4823L270.003 38.008ZM264.435 39.864L265.904 40.1679L265.904 40.1679L264.435 39.864ZM264.947 49.592L263.535 50.0988L263.539 50.1106L264.947 49.592ZM270.003 49.592L268.584 49.1065L268.584 49.1065L270.003 49.592ZM258.483 57.656L257.865 59.0231L257.874 59.0267L258.483 57.656ZM252.083 52.28L250.831 53.1069L250.836 53.1146L250.842 53.1223L252.083 52.28ZM254.707 32.312L255.684 33.4499L254.707 32.312ZM280.115 55.288L279.162 54.1297L279.154 54.1357L280.115 55.288ZM272.335 43.832C272.335 41.4928 272.043 39.385 271.426 37.5337L268.58 38.4823C269.072 39.959 269.335 41.7339 269.335 43.832H272.335ZM271.429 37.5444C270.83 35.7009 269.68 33.948 267.571 33.948V36.948C267.648 36.948 267.737 36.9584 267.891 37.1211C268.083 37.323 268.335 37.7298 268.576 38.4716L271.429 37.5444ZM267.571 33.948C266.149 33.948 265.103 34.819 264.393 35.9105L266.908 37.5455C267.308 36.9304 267.542 36.948 267.571 36.948V33.948ZM264.393 35.9105C263.715 36.9532 263.251 38.1825 262.966 39.5601L265.904 40.1679C266.131 39.0708 266.477 38.2095 266.908 37.5455L264.393 35.9105ZM262.966 39.5601C262.687 40.908 262.551 42.3333 262.551 43.832H265.551C265.551 42.5147 265.671 41.2947 265.904 40.1679L262.966 39.5601ZM262.551 43.832C262.551 46.1423 262.868 48.2396 263.535 50.0988L266.359 49.0852C265.831 47.6164 265.551 45.8737 265.551 43.832H262.551ZM263.539 50.1106C264.213 51.9405 265.442 53.524 267.507 53.524V50.524C267.353 50.524 266.875 50.4862 266.354 49.0734L263.539 50.1106ZM267.507 53.524C269.59 53.524 270.793 51.9164 271.422 50.0775L268.584 49.1065C268.349 49.792 268.102 50.16 267.916 50.3417C267.765 50.4883 267.65 50.524 267.507 50.524V53.524ZM271.422 50.0775C272.043 48.2616 272.335 46.1698 272.335 43.832H269.335C269.335 45.9316 269.072 47.6798 268.584 49.1065L271.422 50.0775ZM267.507 57.948C264.361 57.948 261.564 57.3842 259.092 56.2853L257.874 59.0267C260.777 60.3172 263.996 60.948 267.507 60.948V57.948ZM259.1 56.2889C256.706 55.2076 254.789 53.5966 253.324 51.4377L250.842 53.1223C252.619 55.742 254.969 57.715 257.865 59.0231L259.1 56.2889ZM253.334 51.4531C251.936 49.3373 251.215 46.8377 251.215 43.896H248.215C248.215 47.3543 249.072 50.444 250.831 53.1069L253.334 51.4531ZM251.215 43.896C251.215 39.4159 252.726 35.9905 255.684 33.4499L253.729 31.1741C250.031 34.3508 248.215 38.6481 248.215 43.896H251.215ZM255.684 33.4499C258.691 30.8669 262.59 29.524 267.507 29.524V26.524C262.013 26.524 257.378 28.0398 253.729 31.1741L255.684 33.4499ZM267.507 29.524C272.424 29.524 276.297 30.867 279.258 33.4436L281.227 31.1804C277.618 28.0396 273 26.524 267.507 26.524V29.524ZM279.258 33.4436C282.176 35.9821 283.671 39.4092 283.671 43.896H286.671C286.671 38.6548 284.881 34.3592 281.227 31.1804L279.258 33.4436ZM283.671 43.896C283.671 48.322 282.147 51.6734 279.162 54.1297L281.068 56.4463C284.824 53.3559 286.671 49.1126 286.671 43.896H283.671ZM279.154 54.1357C276.141 56.6469 272.297 57.948 267.507 57.948V60.948C272.872 60.948 277.432 59.4758 281.075 56.4403L279.154 54.1357ZM302.698 57.528L303.713 58.6319L303.725 58.6211L303.737 58.6101L302.698 57.528ZM291.882 57.272L290.682 58.172L290.69 58.1825L290.698 58.1929L291.882 57.272ZM291.306 31.928L292.658 32.5771L292.663 32.5669L292.668 32.5566L291.306 31.928ZM303.402 31.288L302.085 32.0063L302.92 33.5366L304.308 32.483L303.402 31.288ZM309.674 40.056L308.82 41.2893L308.841 41.3039L308.863 41.3178L309.674 40.056ZM308.074 38.904L307.124 40.0649L307.148 40.085L307.174 40.104L308.074 38.904ZM304.298 39.288L303.088 38.401L302.798 38.7969V39.288H304.298ZM302.798 52.152C302.798 54.583 302.277 55.8527 301.659 56.4459L303.737 58.6101C305.252 57.1553 305.798 54.841 305.798 52.152H302.798ZM301.682 56.4241C301.051 57.0045 299.65 57.5 297.002 57.5V60.5C299.815 60.5 302.211 60.0141 303.713 58.6319L301.682 56.4241ZM297.002 57.5C294.622 57.5 293.525 56.941 293.066 56.3511L290.698 58.1929C292.031 59.907 294.347 60.5 297.002 60.5V57.5ZM293.082 56.372C292.483 55.5741 292.038 54.0398 292.038 51.448H289.038C289.038 54.2322 289.488 56.5806 290.682 58.172L293.082 56.372ZM292.038 51.448V35.704H289.038V51.448H292.038ZM292.038 35.704C292.038 34.4282 292.263 33.4006 292.658 32.5771L289.953 31.2789C289.325 32.5887 289.038 34.0784 289.038 35.704H292.038ZM292.668 32.5566C293.063 31.6997 293.615 31.0817 294.326 30.6493L292.766 28.0867C291.513 28.849 290.572 29.9376 289.944 31.2994L292.668 32.5566ZM294.326 30.6493C295.038 30.2156 295.912 29.972 297.002 29.972V26.972C295.446 26.972 294.016 27.3258 292.766 28.0867L294.326 30.6493ZM297.002 29.972C300.005 29.972 301.445 30.8325 302.085 32.0063L304.719 30.5697C303.311 27.9888 300.483 26.972 297.002 26.972V29.972ZM304.308 32.483C306.612 30.7353 308.69 29.972 310.57 29.972V26.972C307.841 26.972 305.141 28.086 302.495 30.093L304.308 32.483ZM310.57 29.972C312.596 29.972 313.838 30.4558 314.575 31.1582C315.299 31.8476 315.79 32.9891 315.79 34.872H318.79C318.79 32.4883 318.16 30.4297 316.644 28.9858C315.142 27.5549 313.023 26.972 310.57 26.972V29.972ZM315.79 34.872C315.79 36.2734 315.396 37.2748 314.714 38.0164L316.922 40.0476C318.202 38.6559 318.79 36.8839 318.79 34.872H315.79ZM314.714 38.0164C314.044 38.7449 313.179 39.132 311.978 39.132V42.132C313.934 42.132 315.629 41.4524 316.922 40.0476L314.714 38.0164ZM311.978 39.132C311.236 39.132 310.774 38.98 310.485 38.7942L308.863 41.3178C309.768 41.9 310.842 42.132 311.978 42.132V39.132ZM310.528 38.8227C309.988 38.4489 309.47 38.076 308.974 37.704L307.174 40.104C307.702 40.5 308.25 40.8951 308.82 41.2893L310.528 38.8227ZM309.024 37.7431C308.271 37.127 307.375 36.828 306.41 36.828V39.828C306.724 39.828 306.938 39.913 307.124 40.0649L309.024 37.7431ZM306.41 36.828C305.092 36.828 303.894 37.3022 303.088 38.401L305.507 40.175C305.64 39.9938 305.85 39.828 306.41 39.828V36.828ZM302.798 39.288V52.152H305.798V39.288H302.798ZM324.147 55.352L323.212 56.5248L323.219 56.5305L324.147 55.352ZM324.083 32.44L325.069 33.5707L325.07 33.5697L324.083 32.44ZM348.019 30.712L347.098 31.896L347.11 31.9054L347.123 31.9146L348.019 30.712ZM351.283 39.672L349.85 39.2309L349.834 39.2823L349.822 39.3347L351.283 39.672ZM350.579 41.336L349.302 40.5499L349.292 40.5649L349.284 40.5802L350.579 41.336ZM349.299 42.808L350.26 43.9604L350.268 43.9531L349.299 42.808ZM347.507 44.024L348.178 45.3656L348.211 45.3493L348.243 45.3314L347.507 44.024ZM345.075 44.856L345.344 46.3318L345.376 46.326L345.408 46.3187L345.075 44.856ZM342.067 45.112V43.612L342.057 43.612L342.067 45.112ZM333.043 45.176L333.033 43.676L331.007 43.6904L331.612 45.6234L333.043 45.176ZM335.347 48.44L334.462 49.6511L334.478 49.6624L334.493 49.6733L335.347 48.44ZM345.203 48.888L345.559 50.3451L345.572 50.342L345.585 50.3386L345.203 48.888ZM347.827 47.864L347.18 46.5108L347.168 46.5165L347.156 46.5224L347.827 47.864ZM351.603 47.8L350.488 48.8034L350.515 48.8328L350.543 48.8607L351.603 47.8ZM351.219 52.216L352.483 53.0246L352.49 53.0134L352.497 53.0021L351.219 52.216ZM348.339 55.48L349.338 56.5989L349.341 56.5969L348.339 55.48ZM343.539 58.232L344.076 59.6328L343.539 58.232ZM332.723 41.08L331.229 40.9442L331.079 42.604L332.745 42.5798L332.723 41.08ZM338.931 39.864L340.329 40.4077L340.331 40.4025L338.931 39.864ZM335.027 34.488L333.931 33.4645L333.912 33.4847L333.894 33.5056L335.027 34.488ZM333.555 37.24L334.962 37.761L334.965 37.7528L334.968 37.7445L333.555 37.24ZM337.075 57.884C332.138 57.884 328.175 56.6142 325.075 54.1735L323.219 56.5305C326.947 59.4658 331.602 60.884 337.075 60.884V57.884ZM325.082 54.1792C322.1 51.8006 320.591 48.5794 320.591 44.344H317.591C317.591 49.4099 319.453 53.5274 323.212 56.5247L325.082 54.1792ZM320.591 44.344C320.591 39.6752 322.115 36.1455 325.069 33.5707L323.098 31.3093C319.395 34.5372 317.591 38.9435 317.591 44.344H320.591ZM325.07 33.5697C328.119 30.9066 332.078 29.524 337.075 29.524V26.524C331.491 26.524 326.789 28.0854 323.097 31.3102L325.07 33.5697ZM337.075 29.524C341.948 29.524 345.188 30.4099 347.098 31.896L348.94 29.528C346.243 27.4301 342.187 26.524 337.075 26.524V29.524ZM347.123 31.9146C349.068 33.3648 350.039 35.3182 350.039 37.944H353.039C353.039 34.4258 351.664 31.5578 348.916 29.5094L347.123 31.9146ZM350.039 37.944C350.039 38.3962 349.975 38.8233 349.85 39.2309L352.717 40.1131C352.933 39.4114 353.039 38.6864 353.039 37.944H350.039ZM349.822 39.3347C349.735 39.7097 349.57 40.1142 349.302 40.5499L351.857 42.1221C352.271 41.4485 352.575 40.7436 352.745 40.0093L349.822 39.3347ZM349.284 40.5802C349.088 40.9158 348.783 41.2798 348.33 41.6629L350.268 43.9531C350.925 43.3975 351.473 42.7802 351.875 42.0918L349.284 40.5802ZM348.339 41.6557C347.908 42.0148 347.388 42.3698 346.772 42.7166L348.243 45.3314C348.991 44.9102 349.667 44.4545 350.26 43.9603L348.339 41.6557ZM346.836 42.6824C346.285 42.9581 345.593 43.2 344.743 43.3933L345.408 46.3187C346.435 46.0853 347.364 45.7726 348.178 45.3656L346.836 42.6824ZM344.807 43.3802C343.966 43.533 343.054 43.612 342.067 43.612V46.612C343.214 46.612 344.307 46.5203 345.344 46.3318L344.807 43.3802ZM342.057 43.612L333.033 43.676L333.054 46.676L342.078 46.612L342.057 43.612ZM331.612 45.6234C332.13 47.2818 333.082 48.6428 334.462 49.6511L336.232 47.2289C335.393 46.6159 334.81 45.8009 334.475 44.7286L331.612 45.6234ZM334.493 49.6733C335.913 50.656 337.64 51.092 339.571 51.092V48.092C338.089 48.092 337 47.76 336.201 47.2067L334.493 49.6733ZM339.571 51.092C341.535 51.092 343.532 50.8407 345.559 50.3451L344.847 47.4309C343.035 47.8739 341.277 48.092 339.571 48.092V51.092ZM345.585 50.3386C346.517 50.0934 347.489 49.7102 348.498 49.2056L347.156 46.5224C346.288 46.9565 345.511 47.2559 344.822 47.4374L345.585 50.3386ZM348.474 49.2172C348.932 48.9982 349.293 48.8499 349.566 48.759C349.86 48.6609 349.964 48.66 349.939 48.66V45.66C349.488 45.66 349.026 45.7765 348.617 45.913C348.186 46.0567 347.704 46.2604 347.18 46.5108L348.474 49.2172ZM349.939 48.66C350.359 48.66 350.46 48.7722 350.488 48.8034L352.718 46.7966C351.978 45.9744 350.97 45.66 349.939 45.66V48.66ZM350.543 48.8607C350.67 48.9876 350.743 49.131 350.743 49.4H353.743C353.743 48.389 353.39 47.4657 352.664 46.7393L350.543 48.8607ZM350.743 49.4C350.743 49.7585 350.569 50.4113 349.942 51.4299L352.497 53.0021C353.235 51.802 353.743 50.5775 353.743 49.4H350.743ZM349.956 51.4074C349.365 52.3308 348.504 53.3178 347.338 54.3631L349.341 56.5969C350.649 55.4235 351.708 54.2345 352.483 53.0246L349.956 51.4074ZM347.34 54.3611C346.319 55.273 344.893 56.1075 343.003 56.8312L344.076 59.6328C346.197 58.8205 347.97 57.8204 349.338 56.5989L347.34 54.3611ZM343.003 56.8312C341.181 57.529 339.209 57.884 337.075 57.884V60.884C339.549 60.884 341.887 60.471 344.076 59.6328L343.003 56.8312ZM332.745 42.5798C335.699 42.537 337.282 42.516 337.523 42.516V39.516C337.253 39.516 335.635 39.5376 332.702 39.5802L332.745 42.5798ZM337.523 42.516C338.169 42.516 338.787 42.313 339.305 41.8889C339.799 41.4849 340.118 40.9497 340.329 40.4077L337.533 39.3203C337.445 39.5463 337.381 39.5871 337.405 39.5671C337.42 39.5549 337.447 39.5382 337.481 39.5265C337.513 39.5152 337.531 39.516 337.523 39.516V42.516ZM340.331 40.4025C340.64 39.6001 340.751 38.6214 340.751 37.56H337.751C337.751 38.4613 337.649 39.0186 337.531 39.3255L340.331 40.4025ZM340.751 37.56C340.751 36.1141 340.542 34.7797 339.928 33.7613C339.24 32.6213 338.134 32.028 336.819 32.028V35.028C337.013 35.028 337.11 35.0667 337.158 35.0929C337.203 35.1178 337.274 35.1702 337.359 35.3107C337.555 35.6363 337.751 36.3179 337.751 37.56H340.751ZM336.819 32.028C335.645 32.028 334.679 32.6632 333.931 33.4645L336.124 35.5115C336.571 35.0328 336.799 35.028 336.819 35.028V32.028ZM333.894 33.5056C333.172 34.338 332.604 35.4444 332.143 36.7355L334.968 37.7445C335.36 36.6463 335.773 35.918 336.161 35.4704L333.894 33.5056ZM332.149 36.719C331.67 38.012 331.368 39.4239 331.229 40.9442L334.217 41.2158C334.335 39.9201 334.587 38.772 334.962 37.761L332.149 36.719Z" fill="#28231C" mask="url(#path-1-outside-1_351_435)"/>
</svg>
