<svg width="93" height="74" viewBox="0 0 93 74" fill="none" xmlns="http://www.w3.org/2000/svg">
<g filter="url(#filter0_d_351_491)">
<path d="M70.1373 40.2372C68.5876 39.2644 66.0873 36.3138 63.3435 32.6683L59.6346 34.3978C58.2367 35.0496 56.5753 34.4449 55.9234 33.047C55.272 31.6478 55.8763 29.9877 57.2747 29.3345L59.9968 28.0662C58.99 26.6387 57.9888 25.1878 57.0214 23.7628L54.0911 25.1292C52.6932 25.781 51.0318 25.1763 50.3799 23.7784C49.7281 22.3805 50.3328 20.719 51.7307 20.0672L53.8791 19.0643C52.1628 16.4585 50.7318 14.2285 49.852 12.8443C49.3026 11.9815 48.2015 11.6624 47.2744 12.0948L43.5977 13.8093C42.5024 14.3201 42.0285 15.6219 42.5388 16.7188L43.0059 17.7181C43.5805 18.9527 42.7515 20.418 41.3917 20.4953C26.4084 21.3433 24.2536 8.41546 24.2536 8.41546C20.1974 6.05593 7.45113 29.651 7.45113 29.651L82.2303 56.8684C85.7943 47.0758 75.3656 43.5282 70.1373 40.2372Z" fill="#37281C"/>
<path d="M41.1613 28.5426L34.9801 24.5703L34.5288 19.7751C33.7695 19.5462 33.0601 19.2778 32.4068 18.9701L28.9552 22.3775L21.6668 21.4472L25.0077 27.4293L21.0897 34.6127L29.0251 31.5563L33.1394 38.9984L34.7555 30.9772L41.1613 28.5426Z" fill="#F79200"/>
<path d="M32.2462 26.7864C31.9821 27.5122 31.1806 27.8848 30.4562 27.6211C29.7317 27.3575 29.3573 26.5568 29.6215 25.8311C29.8856 25.1053 30.6871 24.7327 31.4115 24.9964C32.1359 25.26 32.5103 26.0608 32.2462 26.7864Z" fill="#37281C"/>
<path d="M81.5745 57.1626C80.4931 59.5731 78.3092 60.3496 76.2439 60.4976C75.1484 60.5762 74.1116 60.4732 73.3449 60.3489C72.9628 60.2869 72.6506 60.2201 72.4354 60.1692C72.3279 60.1438 72.2448 60.1224 72.1895 60.1076C72.1619 60.1002 72.1412 60.0944 72.1279 60.0907L72.1237 60.0895L14.5814 39.1458C9.77715 37.3972 7.42273 35.7887 6.27561 34.6588C5.7043 34.096 5.43642 33.6559 5.31117 33.3798C5.27684 33.3041 5.25297 33.2402 5.23641 33.1887L7.61654 30.2441L81.5745 57.1626Z" fill="#FDBD8E" stroke="#37281C"/>
<path d="M50.3804 23.7789C49.7281 22.3822 50.3333 20.7196 51.7312 20.0677L55.529 18.2979C56.9257 17.6456 58.5883 18.2508 59.2402 19.6487C59.8921 21.0466 59.2873 22.708 57.8894 23.3599L54.093 25.1302C52.6937 25.7816 51.0323 25.1769 50.3804 23.7789Z" fill="#FB923C"/>
<path d="M55.9246 33.047C55.2728 31.6491 55.8775 29.9876 57.2754 29.3358L61.0732 27.5659C62.4699 26.9136 64.1325 27.5188 64.7844 28.9167C65.4367 30.3134 64.8315 31.976 63.4336 32.6279L59.6371 34.3982C58.2381 35.0496 56.5766 34.4449 55.9246 33.047Z" fill="#FB923C"/>
</g>
<defs>
<filter id="filter0_d_351_491" x="0.699951" y="8.2496" width="86.2571" height="64.7754" filterUnits="userSpaceOnUse" color-interpolation-filters="sRGB">
<feFlood flood-opacity="0" result="BackgroundImageFix"/>
<feColorMatrix in="SourceAlpha" type="matrix" values="0 0 0 0 0 0 0 0 0 0 0 0 0 0 0 0 0 0 127 0" result="hardAlpha"/>
<feOffset dy="8"/>
<feGaussianBlur stdDeviation="2"/>
<feComposite in2="hardAlpha" operator="out"/>
<feColorMatrix type="matrix" values="0 0 0 0 0.156863 0 0 0 0 0.137255 0 0 0 0 0.109804 0 0 0 0.5 0"/>
<feBlend mode="normal" in2="BackgroundImageFix" result="effect1_dropShadow_351_491"/>
<feBlend mode="normal" in="SourceGraphic" in2="effect1_dropShadow_351_491" result="shape"/>
</filter>
</defs>
</svg>
