<svg width="60" height="45" viewBox="0 0 60 45" fill="none" xmlns="http://www.w3.org/2000/svg">
<mask id="path-1-outside-1_348_350" maskUnits="userSpaceOnUse" x="-2" y="-2" width="63" height="48" fill="black">
<rect fill="white" x="-2" y="-2" width="63" height="48"/>
<path d="M39.432 33.952C41.096 33.952 42.248 33.056 42.888 31.264C43.528 29.4293 43.848 26.464 43.848 22.368L43.976 6.688C43.976 4.42666 44.488 2.784 45.512 1.76C46.5787 0.69333 48.392 0.159996 50.952 0.159996C52.5307 0.159996 53.7893 0.415997 54.728 0.927998C55.7093 1.44 56.5413 2.44267 57.224 3.936C57.9067 5.42933 58.376 7.456 58.632 10.016C58.888 12.576 59.016 15.968 59.016 20.192C59.016 22.7093 58.8027 25.056 58.376 27.232C57.9493 29.408 57.3733 31.3067 56.648 32.928C55.9227 34.5493 55.048 36.0213 54.024 37.344C53.0427 38.624 51.9973 39.6907 50.888 40.544C49.7787 41.3973 48.6053 42.1227 47.368 42.72C46.1307 43.2747 44.9147 43.68 43.72 43.936C42.568 44.1493 41.4373 44.256 40.328 44.256C36.488 44.256 33.0107 43.04 29.896 40.608C26.824 43.1253 23.3467 44.384 19.464 44.384C17.8 44.384 16.136 44.1493 14.472 43.68C12.808 43.168 11.1013 42.3147 9.352 41.12C7.64533 39.9253 6.13067 38.4533 4.808 36.704C3.48533 34.912 2.39733 32.608 1.544 29.792C0.733333 26.9333 0.328 23.776 0.328 20.32C0.328 14.7307 0.584 10.5067 1.096 7.648C1.65067 4.78933 2.46133 2.848 3.528 1.824C4.63733 0.799998 6.23733 0.287998 8.328 0.287998C10.0773 0.287998 11.464 0.543999 12.488 1.056C13.512 1.52533 14.2373 2.22933 14.664 3.168C15.0907 4.10666 15.304 5.32266 15.304 6.816L15.368 22.432C15.368 26.528 15.688 29.4933 16.328 31.328C16.968 33.1627 18.2267 34.08 20.104 34.08C21.0427 34.08 21.7467 33.696 22.216 32.928C22.6853 32.1173 23.0053 30.8373 23.176 29.088C22.6213 26.6133 22.344 22.752 22.344 17.504C22.344 14.56 22.408 12.2133 22.536 10.464C22.664 8.71467 22.856 7.2 23.112 5.92C23.368 4.64 23.7947 3.72267 24.392 3.168C24.9893 2.61333 25.6507 2.22933 26.376 2.016C27.144 1.76 28.1893 1.632 29.512 1.632C30.28 1.632 30.9413 1.65333 31.496 1.696C32.0933 1.73867 32.648 1.86666 33.16 2.08C33.672 2.29333 34.0987 2.48533 34.44 2.656C34.7813 2.82667 35.1013 3.14666 35.4 3.616C35.6987 4.08533 35.9333 4.49067 36.104 4.832C36.2747 5.17333 36.424 5.728 36.552 6.496C36.7227 7.264 36.8293 7.94667 36.872 8.544C36.9573 9.09867 37 9.952 37 11.104C37.0427 12.2133 37.064 13.1947 37.064 14.048C37.1067 14.8587 37.128 16.032 37.128 17.568C37.128 22.944 36.8507 26.912 36.296 29.472C36.4667 31.008 36.7867 32.1387 37.256 32.864C37.7253 33.5893 38.4507 33.952 39.432 33.952Z"/>
</mask>
<path d="M39.432 33.952C41.096 33.952 42.248 33.056 42.888 31.264C43.528 29.4293 43.848 26.464 43.848 22.368L43.976 6.688C43.976 4.42666 44.488 2.784 45.512 1.76C46.5787 0.69333 48.392 0.159996 50.952 0.159996C52.5307 0.159996 53.7893 0.415997 54.728 0.927998C55.7093 1.44 56.5413 2.44267 57.224 3.936C57.9067 5.42933 58.376 7.456 58.632 10.016C58.888 12.576 59.016 15.968 59.016 20.192C59.016 22.7093 58.8027 25.056 58.376 27.232C57.9493 29.408 57.3733 31.3067 56.648 32.928C55.9227 34.5493 55.048 36.0213 54.024 37.344C53.0427 38.624 51.9973 39.6907 50.888 40.544C49.7787 41.3973 48.6053 42.1227 47.368 42.72C46.1307 43.2747 44.9147 43.68 43.72 43.936C42.568 44.1493 41.4373 44.256 40.328 44.256C36.488 44.256 33.0107 43.04 29.896 40.608C26.824 43.1253 23.3467 44.384 19.464 44.384C17.8 44.384 16.136 44.1493 14.472 43.68C12.808 43.168 11.1013 42.3147 9.352 41.12C7.64533 39.9253 6.13067 38.4533 4.808 36.704C3.48533 34.912 2.39733 32.608 1.544 29.792C0.733333 26.9333 0.328 23.776 0.328 20.32C0.328 14.7307 0.584 10.5067 1.096 7.648C1.65067 4.78933 2.46133 2.848 3.528 1.824C4.63733 0.799998 6.23733 0.287998 8.328 0.287998C10.0773 0.287998 11.464 0.543999 12.488 1.056C13.512 1.52533 14.2373 2.22933 14.664 3.168C15.0907 4.10666 15.304 5.32266 15.304 6.816L15.368 22.432C15.368 26.528 15.688 29.4933 16.328 31.328C16.968 33.1627 18.2267 34.08 20.104 34.08C21.0427 34.08 21.7467 33.696 22.216 32.928C22.6853 32.1173 23.0053 30.8373 23.176 29.088C22.6213 26.6133 22.344 22.752 22.344 17.504C22.344 14.56 22.408 12.2133 22.536 10.464C22.664 8.71467 22.856 7.2 23.112 5.92C23.368 4.64 23.7947 3.72267 24.392 3.168C24.9893 2.61333 25.6507 2.22933 26.376 2.016C27.144 1.76 28.1893 1.632 29.512 1.632C30.28 1.632 30.9413 1.65333 31.496 1.696C32.0933 1.73867 32.648 1.86666 33.16 2.08C33.672 2.29333 34.0987 2.48533 34.44 2.656C34.7813 2.82667 35.1013 3.14666 35.4 3.616C35.6987 4.08533 35.9333 4.49067 36.104 4.832C36.2747 5.17333 36.424 5.728 36.552 6.496C36.7227 7.264 36.8293 7.94667 36.872 8.544C36.9573 9.09867 37 9.952 37 11.104C37.0427 12.2133 37.064 13.1947 37.064 14.048C37.1067 14.8587 37.128 16.032 37.128 17.568C37.128 22.944 36.8507 26.912 36.296 29.472C36.4667 31.008 36.7867 32.1387 37.256 32.864C37.7253 33.5893 38.4507 33.952 39.432 33.952Z" fill="#FB923C"/>
<path d="M42.888 31.264L44.3007 31.7685L44.3043 31.7581L42.888 31.264ZM43.848 22.368L42.348 22.3558V22.368H43.848ZM43.976 6.688L45.476 6.70024V6.688H43.976ZM54.728 0.927998L54.0097 2.24484L54.0219 2.25147L54.0342 2.25787L54.728 0.927998ZM57.224 3.936L58.5882 3.31236V3.31236L57.224 3.936ZM58.632 10.016L60.1246 9.86674L58.632 10.016ZM58.376 27.232L56.904 26.9434L58.376 27.232ZM54.024 37.344L52.8379 36.4257L52.8336 36.4314L54.024 37.344ZM50.888 40.544L51.8026 41.7329L50.888 40.544ZM47.368 42.72L47.9816 44.0888L48.001 44.0801L48.0201 44.0708L47.368 42.72ZM43.72 43.936L43.9931 45.4109L44.0138 45.4071L44.0343 45.4027L43.72 43.936ZM29.896 40.608L30.8192 39.4257L29.8734 38.6872L28.9453 39.4478L29.896 40.608ZM14.472 43.68L14.0309 45.1137L14.0478 45.1189L14.0648 45.1237L14.472 43.68ZM9.352 41.12L8.49181 42.3488L8.4989 42.3538L8.50606 42.3587L9.352 41.12ZM4.808 36.704L3.60114 37.5948L3.60629 37.6017L3.61151 37.6087L4.808 36.704ZM1.544 29.792L0.100904 30.2012L0.104568 30.2142L0.108464 30.227L1.544 29.792ZM1.096 7.648L-0.376537 7.36228L-0.378598 7.3729L-0.380505 7.38355L1.096 7.648ZM3.528 1.824L2.51058 0.721792L2.49979 0.73175L2.4892 0.741917L3.528 1.824ZM12.488 1.056L11.8172 2.39764L11.8399 2.40901L11.863 2.4196L12.488 1.056ZM14.664 3.168L16.0296 2.54729L14.664 3.168ZM15.304 6.816H13.804L13.804 6.82215L15.304 6.816ZM15.368 22.432H16.868L16.868 22.4258L15.368 22.432ZM16.328 31.328L17.7443 30.8339V30.8339L16.328 31.328ZM22.216 32.928L23.4959 33.7102L23.5052 33.695L23.5141 33.6796L22.216 32.928ZM23.176 29.088L24.6689 29.2337L24.6922 28.9944L24.6397 28.7599L23.176 29.088ZM22.536 10.464L21.04 10.3545L22.536 10.464ZM23.112 5.92L21.6411 5.62582L23.112 5.92ZM26.376 2.016L26.7993 3.45505L26.8249 3.44749L26.8503 3.43902L26.376 2.016ZM31.496 1.696L31.381 3.1916L31.3891 3.19219L31.496 1.696ZM33.16 2.08L32.5831 3.46461V3.46461L33.16 2.08ZM35.4 3.616L34.1345 4.42131V4.42131L35.4 3.616ZM36.104 4.832L34.7624 5.50281L34.7624 5.50282L36.104 4.832ZM36.552 6.496L35.0724 6.7426L35.079 6.7822L35.0877 6.82139L36.552 6.496ZM36.872 8.544L35.3758 8.65087L35.3802 8.71175L35.3894 8.77208L36.872 8.544ZM37 11.104H35.5V11.1328L35.5011 11.1617L37 11.104ZM37.064 14.048H35.564V14.0874L35.5661 14.1268L37.064 14.048ZM36.296 29.472L34.83 29.1544L34.7781 29.394L34.8052 29.6376L36.296 29.472ZM37.256 32.864L35.9966 33.6789L35.9966 33.6789L37.256 32.864ZM39.432 35.452C40.5485 35.452 41.5893 35.145 42.4649 34.464C43.325 33.795 43.9133 32.8529 44.3006 31.7685L41.4754 30.7595C41.2227 31.4671 40.915 31.869 40.6231 32.096C40.3467 32.311 39.9795 32.452 39.432 32.452V35.452ZM44.3043 31.7581C45.0328 29.6697 45.348 26.4881 45.348 22.368H42.348C42.348 26.4398 42.0232 29.189 41.4717 30.7699L44.3043 31.7581ZM45.348 22.3802L45.476 6.70024L42.4761 6.67575L42.3481 22.3558L45.348 22.3802ZM45.476 6.688C45.476 4.60732 45.9533 3.44007 46.5727 2.82066L44.4513 0.699338C43.0228 2.12793 42.476 4.24602 42.476 6.688H45.476ZM46.5727 2.82066C47.2161 2.17724 48.5297 1.66 50.952 1.66V-1.34C48.2543 -1.34 45.9413 -0.790578 44.4513 0.699338L46.5727 2.82066ZM50.952 1.66C52.3906 1.66 53.3716 1.8968 54.0097 2.24484L55.4463 -0.388845C54.207 -1.0648 52.6708 -1.34 50.952 -1.34V1.66ZM54.0342 2.25787C54.6069 2.55671 55.2515 3.22907 55.8598 4.55964L58.5882 3.31236C57.8311 1.65626 56.8118 0.323292 55.4219 -0.401879L54.0342 2.25787ZM55.8598 4.55964C56.4464 5.84286 56.8916 7.68727 57.1394 10.1653L60.1246 9.86674C59.8604 7.22473 59.3669 5.0158 58.5882 3.31236L55.8598 4.55964ZM57.1394 10.1653C57.3884 12.6544 57.516 15.9906 57.516 20.192H60.516C60.516 15.9454 60.3876 12.4976 60.1246 9.86674L57.1394 10.1653ZM57.516 20.192C57.516 22.6252 57.3098 24.8742 56.904 26.9434L59.848 27.5206C60.2956 25.2378 60.516 22.7935 60.516 20.192H57.516ZM56.904 26.9434C56.4941 29.0341 55.9479 30.8197 55.2788 32.3154L58.0172 33.5406C58.7988 31.7936 59.4046 29.7819 59.848 27.5206L56.904 26.9434ZM55.2788 32.3154C54.5991 33.8347 53.7846 35.203 52.8379 36.4257L55.2101 38.2623C56.3114 36.8397 57.2462 35.264 58.0172 33.5406L55.2788 32.3154ZM52.8336 36.4314C51.92 37.623 50.9648 38.5924 49.9734 39.3551L51.8026 41.7329C53.0298 40.7889 54.1654 39.625 55.2144 38.2566L52.8336 36.4314ZM49.9734 39.3551C48.9443 40.1467 47.8587 40.8175 46.7159 41.3692L48.0201 44.0708C49.352 43.4279 50.6131 42.6479 51.8026 41.7329L49.9734 39.3551ZM46.7544 41.3512C45.6028 41.8675 44.4869 42.2376 43.4057 42.4693L44.0343 45.4027C45.3424 45.1224 46.6585 44.6819 47.9816 44.0888L46.7544 41.3512ZM43.4469 42.4611C42.3799 42.6587 41.3408 42.756 40.328 42.756V45.756C41.5339 45.756 42.7561 45.64 43.9931 45.4109L43.4469 42.4611ZM40.328 42.756C36.8329 42.756 33.6784 41.6583 30.8192 39.4257L28.9728 41.7903C32.3429 44.4217 36.1431 45.756 40.328 45.756V42.756ZM28.9453 39.4478C26.1347 41.7509 22.9915 42.884 19.464 42.884V45.884C23.7019 45.884 27.5133 44.4998 30.8467 41.7682L28.9453 39.4478ZM19.464 42.884C17.943 42.884 16.4159 42.6698 14.8792 42.2363L14.0648 45.1237C15.8561 45.6289 17.657 45.884 19.464 45.884V42.884ZM14.9131 42.2463C13.4203 41.787 11.8488 41.0087 10.1979 39.8813L8.50606 42.3587C10.3538 43.6206 12.1957 44.549 14.0309 45.1137L14.9131 42.2463ZM10.2122 39.8912C8.6405 38.791 7.23768 37.4303 6.00449 35.7993L3.61151 37.6087C5.02365 39.4763 6.65017 41.0597 8.49181 42.3488L10.2122 39.8912ZM6.01486 35.8132C4.82064 34.1952 3.79823 32.0587 2.97954 29.357L0.108464 30.227C0.99644 33.1573 2.15003 35.6288 3.60114 37.5948L6.01486 35.8132ZM2.9871 29.3828C2.21974 26.6768 1.828 23.6596 1.828 20.32H-1.172C-1.172 23.8924 -0.753074 27.1898 0.100904 30.2012L2.9871 29.3828ZM1.828 20.32C1.828 14.7541 2.08451 10.6371 2.5725 7.91245L-0.380505 7.38355C-0.916506 10.3762 -1.172 14.7073 -1.172 20.32H1.828ZM2.56854 7.93372C3.1121 5.13227 3.85389 3.59047 4.5668 2.90608L2.4892 0.741917C1.06877 2.10553 0.189233 4.44639 -0.376537 7.36228L2.56854 7.93372ZM4.54542 2.9262C5.28632 2.24229 6.46831 1.788 8.328 1.788V-1.212C6.00636 -1.212 3.98834 -0.642297 2.51058 0.721792L4.54542 2.9262ZM8.328 1.788C9.95622 1.788 11.0825 2.03031 11.8172 2.39764L13.1588 -0.285641C11.8455 -0.942316 10.1984 -1.212 8.328 -1.212V1.788ZM11.863 2.4196C12.5915 2.75349 13.0354 3.21007 13.2985 3.7887L16.0296 2.54729C15.4392 1.2486 14.4325 0.297176 13.113 -0.307598L11.863 2.4196ZM13.2985 3.7887C13.606 4.46536 13.804 5.44827 13.804 6.816H16.804C16.804 5.19706 16.5753 3.74797 16.0296 2.54729L13.2985 3.7887ZM13.804 6.82215L13.868 22.4381L16.868 22.4258L16.804 6.80985L13.804 6.82215ZM13.868 22.432C13.868 26.5521 14.1832 29.7337 14.9117 31.8221L17.7443 30.8339C17.1928 29.253 16.868 26.5038 16.868 22.432H13.868ZM14.9117 31.8221C15.3071 32.9556 15.9377 33.9258 16.8685 34.6042C17.8036 35.2857 18.9145 35.58 20.104 35.58V32.58C19.4161 32.58 18.9591 32.4156 18.6355 32.1798C18.3076 31.9409 17.9889 31.535 17.7443 30.8339L14.9117 31.8221ZM20.104 35.58C21.5379 35.58 22.7402 34.9469 23.4959 33.7102L20.9361 32.1458C20.7532 32.4451 20.5474 32.58 20.104 32.58V35.58ZM23.5141 33.6796C24.1484 32.5841 24.4925 31.0417 24.6689 29.2337L21.6831 28.9423C21.5181 30.633 21.2223 31.6506 20.9179 32.1764L23.5141 33.6796ZM24.6397 28.7599C24.1232 26.4554 23.844 22.7327 23.844 17.504H20.844C20.844 22.7713 21.1195 26.7712 21.7123 29.4161L24.6397 28.7599ZM23.844 17.504C23.844 14.5757 23.9078 12.2702 24.032 10.5735L21.04 10.3545C20.9082 12.1564 20.844 14.5443 20.844 17.504H23.844ZM24.032 10.5735C24.1569 8.86658 24.3424 7.41656 24.5829 6.21417L21.6411 5.62582C21.3696 6.98344 21.1711 8.56276 21.04 10.3545L24.032 10.5735ZM24.5829 6.21417C24.8113 5.07191 25.1477 4.51323 25.4127 4.26719L23.3713 2.06881C22.4416 2.9321 21.9247 4.20809 21.6411 5.62582L24.5829 6.21417ZM25.4127 4.26719C25.8534 3.85791 26.3138 3.59783 26.7993 3.45505L25.9528 0.57695C24.9875 0.860838 24.1252 1.36875 23.3713 2.06881L25.4127 4.26719ZM26.8503 3.43902C27.3994 3.256 28.262 3.132 29.512 3.132V0.131996C28.1167 0.131996 26.8886 0.263993 25.9017 0.592975L26.8503 3.43902ZM29.512 3.132C30.2549 3.132 30.8758 3.15272 31.381 3.19158L31.6111 0.200418C31.0068 0.153937 30.3051 0.131996 29.512 0.131996V3.132ZM31.3891 3.19219C31.8377 3.22422 32.2322 3.3184 32.5831 3.46461L33.7369 0.695383C33.0638 0.414927 32.349 0.253106 31.6029 0.199811L31.3891 3.19219ZM32.5831 3.46461C33.0761 3.67006 33.469 3.84754 33.7692 3.99764L35.1108 1.31436C34.7284 1.12312 34.2679 0.916606 33.7369 0.695382L32.5831 3.46461ZM33.7692 3.99764C33.7806 4.00336 33.9191 4.08275 34.1345 4.42131L36.6655 2.81069C36.2836 2.21058 35.7821 1.64997 35.1108 1.31436L33.7692 3.99764ZM34.1345 4.42131C34.4168 4.8649 34.6226 5.2232 34.7624 5.50281L37.4456 4.16118C37.2441 3.75813 36.9805 3.30577 36.6655 2.81068L34.1345 4.42131ZM34.7624 5.50282C34.8276 5.63336 34.949 6.00206 35.0724 6.7426L38.0316 6.2494C37.899 5.45393 37.7217 4.71331 37.4456 4.16118L34.7624 5.50282ZM35.0877 6.82139C35.247 7.53836 35.3397 8.14573 35.3758 8.65087L38.3682 8.43713C38.3189 7.74761 38.1983 6.98964 38.0163 6.1706L35.0877 6.82139ZM35.3894 8.77208C35.4565 9.20802 35.5 9.96636 35.5 11.104H38.5C38.5 9.93764 38.4582 8.98931 38.3546 8.31592L35.3894 8.77208ZM35.5011 11.1617C35.5432 12.2571 35.564 13.2186 35.564 14.048H38.564C38.564 13.1707 38.5421 12.1695 38.4989 11.0463L35.5011 11.1617ZM35.5661 14.1268C35.6066 14.8975 35.628 16.0396 35.628 17.568H38.628C38.628 16.0244 38.6067 14.8198 38.5619 13.9692L35.5661 14.1268ZM35.628 17.568C35.628 22.9242 35.3491 26.7588 34.83 29.1544L37.762 29.7896C38.3523 27.0652 38.628 22.9638 38.628 17.568H35.628ZM34.8052 29.6376C34.9843 31.2498 35.3369 32.6593 35.9966 33.6789L38.5154 32.0491C38.2364 31.618 37.949 30.7662 37.7868 29.3064L34.8052 29.6376ZM35.9966 33.6789C36.7838 34.8954 38.0231 35.452 39.432 35.452V32.452C38.8782 32.452 38.6669 32.2832 38.5154 32.0491L35.9966 33.6789Z" fill="#37281C" mask="url(#path-1-outside-1_348_350)"/>
</svg>
